<svg
                width="24"
                height="25"
                viewBox="0 0 24 25"
                fill="none"
                xmlns="http://www.w3.org/2000/svg"
                className="hidden xl:block"
              >
                <path
                  fillRule="evenodd"
                  clipRule="evenodd"
                  d="M19.424 8.2849C19.22 8.37364 19.125 8.52968 19.125 8.77578V8.98498L20.6583 10.5229L22.1915 12.0607L11.2609 12.0727L0.330265 12.0847L0.210593 12.2044C-0.0255161 12.4406 0.0142339 12.8293 0.291828 12.9986C0.444078 13.0914 0.533937 13.0922 11.3194 13.0924L22.1934 13.0925L20.6593 14.6293L19.125 16.1661V16.3808C19.125 16.7682 19.4593 17.016 19.789 16.8732C19.8815 16.8331 20.764 15.9842 21.9492 14.7954L23.9532 12.7853V12.5769V12.3685L21.9492 10.3585C20.1838 8.58767 19.7716 8.21112 19.607 8.21937C19.5868 8.2204 19.5045 8.24989 19.424 8.2849Z"
                  fill="currentColor"
                />
              </svg>