<svg width="211" height="82" viewBox="0 0 211 82" fill="none" xmlns="http://www.w3.org/2000/svg">
<path d="M41.864 52.4257H42.6787L46.2843 61.0208H46.3102L49.8783 52.4257H50.6923V61.6548H50.1237V53.1237H50.0978L46.5822 61.6548H46.013L42.4585 53.1237H42.4326V61.6548H41.864V52.4257Z" fill="#A58C65"/>
<path d="M57.8015 58.2039L55.8238 52.9819H55.7979L53.7425 58.2039H57.8015ZM55.4877 52.4257H56.1081L59.7533 61.6548H59.1458L57.9822 58.6948H53.5619L52.3859 61.6548H51.7778L55.4877 52.4257Z" fill="#A58C65"/>
<path d="M60.8389 52.4257H61.55L67.38 60.892H67.4053V52.4257H67.9745V61.6548H67.3016L61.4334 53.1237H61.4075V61.6548H60.8389V52.4257Z" fill="#A58C65"/>
<path d="M75.0828 58.2039L73.1051 52.9819H73.0792L71.0239 58.2039H75.0828ZM72.7697 52.4257H73.3901L77.0352 61.6548H76.4272L75.2641 58.6948H70.8432L69.6672 61.6548H69.0591L72.7697 52.4257Z" fill="#A58C65"/>
<path d="M77.5523 57.0917C77.5523 56.4364 77.6488 55.8141 77.8424 55.2235C78.0367 54.6336 78.319 54.1142 78.6894 53.6661C79.0598 53.2186 79.5144 52.8631 80.0532 52.5996C80.5913 52.3367 81.2098 52.2052 81.9085 52.2052C82.3819 52.2052 82.8339 52.2751 83.2651 52.4118C83.6958 52.5504 84.0817 52.753 84.4217 53.0198C84.7623 53.2873 85.0492 53.6104 85.2823 53.9893C85.5148 54.3687 85.6696 54.7994 85.7466 55.2818H85.204C84.9883 54.4717 84.6011 53.839 84.0409 53.3818C83.4801 52.9247 82.7736 52.6967 81.9208 52.6967C81.3004 52.6967 80.7532 52.8172 80.2792 53.0581C79.8052 53.3002 79.4089 53.6234 79.0903 54.0281C78.7717 54.4335 78.5301 54.9004 78.3663 55.4307C78.2025 55.9604 78.1209 56.5141 78.1209 57.0917C78.1209 57.6778 78.2005 58.2315 78.3598 58.7521C78.5191 59.274 78.7561 59.728 79.0709 60.1165C79.3849 60.5044 79.7793 60.812 80.2533 61.0406C80.7273 61.2685 81.2836 61.3832 81.9208 61.3832C82.4725 61.3832 82.9679 61.2925 83.4076 61.1118C83.8473 60.9305 84.2197 60.6767 84.5259 60.349C84.831 60.0213 85.0621 59.627 85.2169 59.1659C85.3723 58.7055 85.4371 58.19 85.4112 57.6215H82.0114V57.1306H85.9027V61.6545H85.4112V59.6898H85.3853C85.2732 60.0259 85.1049 60.3296 84.8808 60.6009C84.6568 60.8722 84.3919 61.1008 84.0863 61.286C83.78 61.4719 83.44 61.6156 83.065 61.7193C82.6901 61.8229 82.3003 61.874 81.8949 61.874C81.1975 61.874 80.579 61.749 80.0403 61.4997C79.5015 61.2498 79.0475 60.9098 78.6765 60.4779C78.3061 60.0472 78.0257 59.5408 77.8359 58.9593C77.6469 58.3772 77.5523 57.7549 77.5523 57.0917Z" fill="#A58C65"/>
<path d="M87.8925 52.4257H94.0975V52.9172H88.4617V56.6135H93.7614V57.105H88.4617V61.1633H94.1623V61.6548H87.8925V52.4257Z" fill="#A58C65"/>
<path d="M95.5577 52.4257H96.3724L99.9787 61.0208H100.005L103.572 52.4257H104.387V61.6548H103.818V53.1237H103.792L100.276 61.6548H99.7073L96.1529 53.1237H96.127V61.6548H95.5577V52.4257Z" fill="#A58C65"/>
<path d="M106.441 52.4257H112.646V52.9172H107.01V56.6135H112.31V57.105H107.01V61.1633H112.711V61.6548H106.441V52.4257Z" fill="#A58C65"/>
<path d="M114.106 52.4257H114.818L120.647 60.892H120.673V52.4257H121.242V61.6548H120.569L114.701 53.1237H114.675V61.6548H114.106V52.4257Z" fill="#A58C65"/>
<path d="M122.301 52.9172V52.4257H129.372V52.9172H126.115V61.6548H125.546V52.9172H122.301Z" fill="#A58C65"/>
<path d="M49.2314 72.5512C49.2314 71.879 49.3305 71.2476 49.5286 70.6577C49.7274 70.0671 50.0136 69.5542 50.3879 69.1191C50.7629 68.6839 51.2239 68.342 51.7718 68.0914C52.319 67.8421 52.9368 67.7164 53.6264 67.7164C54.1691 67.7164 54.6392 67.7883 55.0355 67.9301C55.4312 68.0726 55.7653 68.2487 56.0373 68.4605C56.3086 68.6716 56.5301 68.9015 56.7024 69.1514C56.8753 69.4021 57.0067 69.6365 57.0967 69.856C57.1874 70.0762 57.2502 70.2659 57.2845 70.4252C57.3182 70.5845 57.3363 70.6726 57.3363 70.6901H56.7678C56.7069 70.3015 56.5819 69.9551 56.3928 69.6494C56.2031 69.3438 55.9654 69.0828 55.6818 68.8678C55.3969 68.6522 55.0802 68.4883 54.7312 68.3763C54.3821 68.2643 54.0143 68.2079 53.6264 68.2079C53.0229 68.2079 52.4841 68.3245 52.0107 68.557C51.5367 68.7895 51.1352 69.1022 50.8089 69.494C50.4812 69.8864 50.2312 70.3456 50.0583 70.8707C49.8861 71.3966 49.7999 71.9567 49.7999 72.5512C49.7999 73.1456 49.8861 73.7058 50.0583 74.2316C50.2312 74.7568 50.4812 75.2159 50.8089 75.6083C51.1352 76.0001 51.5367 76.3129 52.0107 76.5454C52.4841 76.7778 53.0229 76.8944 53.6264 76.8944C54.0745 76.8944 54.4942 76.8011 54.8866 76.6159C55.2784 76.4307 55.6209 76.1853 55.9143 75.8797C56.207 75.574 56.442 75.2204 56.6182 74.8196C56.7956 74.4194 56.8966 74.003 56.9225 73.5724H57.4911C57.4393 74.1241 57.3039 74.6324 57.0838 75.098C56.8643 75.5624 56.5839 75.9658 56.2439 76.3064C55.9033 76.6464 55.5089 76.9112 55.0608 77.101C54.6133 77.2901 54.1348 77.3853 53.6264 77.3853C52.9368 77.3853 52.319 77.2603 51.7718 77.011C51.2239 76.761 50.7629 76.4184 50.3879 75.9833C50.0136 75.5481 49.7274 75.0352 49.5286 74.4447C49.3305 73.8547 49.2314 73.2233 49.2314 72.5512Z" fill="#A58C65"/>
<path d="M59.2617 72.5512C59.2617 73.1456 59.3479 73.7058 59.5201 74.2316C59.6924 74.7568 59.943 75.2159 60.2706 75.6083C60.5977 76.0001 60.9985 76.3129 61.4719 76.5454C61.9466 76.7778 62.4847 76.8944 63.0876 76.8944C63.6911 76.8944 64.2273 76.7778 64.6974 76.5454C65.1669 76.3129 65.5652 76.0001 65.8928 75.6083C66.2205 75.2159 66.4704 74.7568 66.6421 74.2316C66.815 73.7058 66.9011 73.1456 66.9011 72.5512C66.9011 71.9567 66.815 71.3966 66.6421 70.8707C66.4704 70.3456 66.2205 69.8864 65.8928 69.494C65.5652 69.1022 65.1669 68.7895 64.6974 68.557C64.2273 68.3245 63.6911 68.2079 63.0876 68.2079C62.4847 68.2079 61.9466 68.3245 61.4719 68.557C60.9985 68.7895 60.5977 69.1022 60.2706 69.494C59.943 69.8864 59.6924 70.3456 59.5201 70.8707C59.3479 71.3966 59.2617 71.9567 59.2617 72.5512ZM67.4703 72.5512C67.4703 73.2233 67.3706 73.8547 67.1724 74.4447C66.9743 75.0352 66.688 75.5481 66.3131 75.9833C65.9381 76.4184 65.4797 76.761 64.9364 77.011C64.3937 77.2603 63.7772 77.3853 63.0876 77.3853C62.3986 77.3853 61.7808 77.2603 61.2329 77.011C60.6857 76.761 60.2247 76.4184 59.8497 75.9833C59.4754 75.5481 59.1886 75.0352 58.9904 74.4447C58.7916 73.8547 58.6932 73.2233 58.6932 72.5512C58.6932 71.879 58.7916 71.2476 58.9904 70.6577C59.1886 70.0671 59.4754 69.5542 59.8497 69.1191C60.2247 68.6839 60.6857 68.342 61.2329 68.0914C61.7808 67.8421 62.3986 67.7164 63.0876 67.7164C63.7772 67.7164 64.3937 67.8421 64.9364 68.0914C65.4797 68.342 65.9381 68.6839 66.3131 69.1191C66.688 69.5542 66.9743 70.0671 67.1724 70.6577C67.3706 71.2476 67.4703 71.879 67.4703 72.5512Z" fill="#A58C65"/>
<path d="M69.1111 67.9369H69.8228L75.6522 76.4032H75.6781V67.9369H76.2467V77.166H75.5739L69.7063 68.635H69.6804V77.166H69.1111V67.9369Z" fill="#A58C65"/>
<path d="M84.3253 70.5735C84.3078 70.1772 84.2242 69.832 84.0727 69.5387C83.9225 69.246 83.7178 69.0006 83.4588 68.8024C83.2011 68.6043 82.8922 68.4553 82.5347 68.3562C82.1773 68.2578 81.7874 68.2079 81.3652 68.2079C81.1062 68.2079 80.829 68.2384 80.5318 68.298C80.2346 68.3588 79.9581 68.4644 79.7042 68.6153C79.4504 68.7661 79.2406 68.9682 79.0774 69.2227C78.9135 69.4772 78.832 69.7938 78.832 70.1727C78.832 70.5431 78.922 70.8448 79.1033 71.0773C79.284 71.3104 79.521 71.4976 79.8137 71.6394C80.107 71.7819 80.4431 71.8965 80.8226 71.9826C81.2014 72.0687 81.5854 72.1503 81.9727 72.228C82.369 72.3057 82.7549 72.3977 83.1292 72.5052C83.5041 72.6133 83.8402 72.7603 84.1381 72.9449C84.4353 73.1307 84.6743 73.3716 84.855 73.6689C85.0363 73.9661 85.1263 74.3391 85.1263 74.7872C85.1263 75.2697 85.0233 75.675 84.8168 76.0021C84.6095 76.3297 84.3486 76.5972 84.0345 76.8037C83.7191 77.0103 83.3707 77.1593 82.9874 77.2499C82.604 77.3399 82.2349 77.3853 81.8826 77.3853C81.3393 77.3853 80.831 77.327 80.357 77.2111C79.883 77.0945 79.4692 76.9048 79.1162 76.6418C78.7627 76.3796 78.4842 76.0409 78.2822 75.6278C78.0795 75.214 77.983 74.7095 77.9914 74.115H78.5606C78.5347 74.6234 78.6072 75.0521 78.7801 75.4011C78.9524 75.7501 79.1914 76.037 79.4977 76.2604C79.8033 76.4851 80.1627 76.6464 80.5765 76.7455C80.9903 76.8452 81.4248 76.8944 81.8826 76.8944C82.1579 76.8944 82.4525 76.8594 82.7679 76.7908C83.0819 76.7215 83.3707 76.6049 83.6337 76.4417C83.8966 76.2786 84.1161 76.0629 84.2929 75.7948C84.4697 75.528 84.5577 75.1926 84.5577 74.7872C84.5577 74.3993 84.4677 74.0827 84.2864 73.8372C84.1051 73.5912 83.8661 73.393 83.5689 73.2421C83.2717 73.0919 82.9356 72.9708 82.5606 72.8808C82.1857 72.7901 81.8004 72.7059 81.4041 72.6289C81.0162 72.5512 80.6328 72.4605 80.2534 72.3569C79.8745 72.2539 79.5378 72.1141 79.2451 71.9366C78.9524 71.7605 78.7154 71.5319 78.5347 71.2522C78.3534 70.9718 78.2634 70.6124 78.2634 70.1727C78.2634 69.733 78.3553 69.3561 78.5405 69.042C78.7264 68.7266 78.9679 68.4728 79.2652 68.2792C79.5624 68.0849 79.8959 67.9431 80.2663 67.8524C80.6374 67.7618 81.0032 67.7164 81.3652 67.7164C81.8477 67.7164 82.2977 67.7708 82.7161 67.8783C83.1337 67.9858 83.5003 68.1542 83.815 68.3821C84.129 68.6107 84.381 68.906 84.5707 69.2674C84.7604 69.63 84.8679 70.0652 84.8938 70.5735H84.3253Z" fill="#A58C65"/>
<path d="M87.4403 67.9366V73.4688C87.4403 73.6494 87.4487 73.8605 87.4662 74.1021C87.483 74.3436 87.5264 74.591 87.5951 74.8455C87.6644 75.1 87.7609 75.3493 87.8858 75.5954C88.0108 75.8408 88.1818 76.0603 88.3968 76.2546C88.6124 76.4489 88.8773 76.6036 89.1913 76.7196C89.506 76.8361 89.8875 76.8944 90.3356 76.8944C90.9048 76.8944 91.3801 76.8147 91.7641 76.6554C92.1475 76.4961 92.4577 76.2669 92.6947 75.9697C92.931 75.6724 93.1013 75.313 93.2049 74.8908C93.3092 74.4686 93.3604 73.9946 93.3604 73.4688V67.9366H93.9296V73.4688C93.9296 74.0205 93.8713 74.5334 93.7547 75.0074C93.6382 75.4808 93.4426 75.8946 93.1667 76.2481C92.8902 76.6017 92.5224 76.8795 92.0613 77.0815C91.6003 77.2842 91.0246 77.3853 90.3356 77.3853C89.7929 77.3853 89.3273 77.316 88.9394 77.178C88.5522 77.0414 88.231 76.862 87.9765 76.6418C87.7226 76.4223 87.5219 76.1704 87.3755 75.8855C87.2292 75.6019 87.1172 75.3156 87.0395 75.0262C86.9624 74.738 86.9145 74.4576 86.897 74.1863C86.8802 73.9143 86.8711 73.6753 86.8711 73.4688V67.9366H87.4403Z" fill="#A58C65"/>
<path d="M95.9839 67.9369H96.5532V76.6745H101.788V77.166H95.9839V67.9369Z" fill="#A58C65"/>
<path d="M100.483 68.4279V67.9364H107.554V68.4279H104.296V77.1655H103.728V68.4279H100.483Z" fill="#A58C65"/>
<path d="M108.613 67.9369H109.182V77.166H108.613V67.9369Z" fill="#A58C65"/>
<path d="M111.237 67.9369H111.948L117.778 76.4032H117.803V67.9369H118.372V77.166H117.699L111.832 68.635H111.806V77.166H111.237V67.9369Z" fill="#A58C65"/>
<path d="M120.091 72.603C120.091 71.9476 120.188 71.3253 120.381 70.7347C120.576 70.1448 120.858 69.6255 121.228 69.1773C121.599 68.7299 122.053 68.3744 122.592 68.1108C123.13 67.8479 123.749 67.7164 124.447 67.7164C124.921 67.7164 125.373 67.7864 125.804 67.923C126.235 68.0616 126.621 68.2643 126.961 68.5311C127.301 68.7985 127.588 69.1217 127.821 69.5005C128.054 69.88 128.208 70.3106 128.285 70.793H127.743C127.527 69.9829 127.14 69.3502 126.58 68.8931C126.019 68.4359 125.313 68.2079 124.46 68.2079C123.839 68.2079 123.292 68.3284 122.818 68.5693C122.344 68.8115 121.948 69.1346 121.629 69.5393C121.311 69.9447 121.069 70.4116 120.905 70.942C120.741 71.4717 120.66 72.0253 120.66 72.603C120.66 73.189 120.739 73.7427 120.899 74.2633C121.058 74.7853 121.295 75.2392 121.61 75.6278C121.924 76.0157 122.318 76.3232 122.792 76.5518C123.266 76.7798 123.822 76.8944 124.46 76.8944C125.011 76.8944 125.507 76.8037 125.946 76.6231C126.386 76.4417 126.759 76.1879 127.065 75.8602C127.37 75.5326 127.601 75.1382 127.756 74.6771C127.911 74.2167 127.976 73.7012 127.95 73.1327H124.55V72.6418H128.442V77.1657H127.95V75.201H127.924C127.812 75.5371 127.644 75.8408 127.42 76.1121C127.196 76.3835 126.931 76.6121 126.625 76.7973C126.319 76.9831 125.979 77.1269 125.604 77.2305C125.229 77.3341 124.839 77.3853 124.434 77.3853C123.736 77.3853 123.118 77.2603 122.579 77.011C122.04 76.761 121.586 76.421 121.215 75.9891C120.845 75.5585 120.565 75.0521 120.375 74.4706C120.186 73.8884 120.091 73.2661 120.091 72.603Z" fill="#A58C65"/>
<path d="M41.6484 2.90949H45.6251L63.235 44.8822H63.3606L80.7815 2.90949H84.7575V47.9756H81.9808V6.31828H81.8545L64.6862 47.9756H61.9094L44.5514 6.31828H44.4258V47.9756H41.6484V2.90949Z" fill="#A58C65"/>
<path d="M88.86 25.4426C88.86 22.1601 89.3431 19.0783 90.3112 16.196C91.2787 13.3143 92.6781 10.8095 94.5094 8.68422C96.3394 6.5602 98.5897 4.88754 101.262 3.66687C103.934 2.44686 106.952 1.8362 110.32 1.8362C112.971 1.8362 115.263 2.1833 117.2 2.87749C119.134 3.57233 120.766 4.43554 122.091 5.46517C123.417 6.49739 124.5 7.62222 125.342 8.84223C126.183 10.0635 126.825 11.2097 127.267 12.2827C127.709 13.3551 128.014 14.2818 128.182 15.0595C128.349 15.8385 128.435 16.2698 128.435 16.3534H125.657C125.363 14.4599 124.752 12.7665 123.827 11.2725C122.901 9.7799 121.744 8.50615 120.356 7.45385C118.967 6.40285 117.42 5.60246 115.717 5.05591C114.012 4.50936 112.213 4.23479 110.32 4.23479C107.374 4.23479 104.744 4.80271 102.43 5.93919C100.115 7.07502 98.1585 8.60069 96.5603 10.5149C94.9608 12.4297 93.7408 14.671 92.8996 17.2366C92.0571 19.8042 91.6368 22.5389 91.6368 25.4426C91.6368 28.3456 92.0571 31.0816 92.8996 33.6479C93.7408 36.2149 94.9608 38.4554 96.5603 40.3697C98.1585 42.2852 100.115 43.8095 102.43 44.9454C104.744 46.0818 107.374 46.6498 110.32 46.6498C112.508 46.6498 114.559 46.1984 116.474 45.2925C118.388 44.3885 120.061 43.1892 121.492 41.6952C122.922 40.2019 124.069 38.4762 124.931 36.5192C125.793 34.5629 126.289 32.5328 126.415 30.4282H129.192C128.94 33.1214 128.277 35.6042 127.204 37.8765C126.131 40.1488 124.762 42.1161 123.101 43.7778C121.438 45.4407 119.513 46.7346 117.326 47.66C115.138 48.5847 112.803 49.0483 110.32 49.0483C106.952 49.0483 103.934 48.4377 101.262 47.2177C98.5897 45.9977 96.3394 44.325 94.5094 42.2003C92.6781 40.0757 91.2787 37.5715 90.3112 34.6886C89.3431 31.8075 88.86 28.7245 88.86 25.4426Z" fill="#A58C65"/>
<path d="M2.01976 2.90949H36.2922V8.90596L10.0353 41.1587H36.9236V47.9756H0V41.5375L26.2569 9.72578H2.01976V2.90949Z" fill="#4D2958"/>
<path d="M171.383 14.4578L172.857 8.95799L167.155 10.2298L168.193 11.2685L148.544 30.9085V32.5806H150.747L170.205 13.2805L171.383 14.4578Z" fill="#A58C65"/>
<path d="M158.996 14.4578L160.469 8.95799L154.768 10.2298L155.806 11.2685L155.859 11.3216L151.392 15.7885V4.686H176.439V12.0948L179.288 9.57059V1.83735H148.544V22.1787L157.871 13.333L158.996 14.4578Z" fill="#A58C65"/>
<path d="M185.122 8.95799L179.421 10.2305L179.622 10.4319L180.554 11.3637L161.944 29.9741L161.945 29.9748L159.334 32.5806H179.287V19.5548L176.439 22.34V29.7326H166.214L176.439 19.5075V19.5159L182.568 13.3783L183.538 14.3477L183.648 14.4578L185.122 8.95799Z" fill="#A58C65"/>
<path d="M139.781 81.1543H139.055V-4.57764e-05H139.781V81.1543Z" fill="#A58C65"/>
<path d="M148.891 39.0868H149.547L150.518 41.9419L151.482 39.0868H152.133V42.4639H151.696V40.4707C151.696 40.402 151.698 40.2874 151.701 40.1281C151.704 39.9688 151.706 39.7978 151.706 39.6152L150.741 42.4639H150.288L149.314 39.6152V39.7188C149.314 39.8017 149.317 39.928 149.321 40.097C149.326 40.2667 149.329 40.391 149.329 40.4707V42.4639H148.891V39.0868Z" fill="#A58C65"/>
<path d="M154.448 41.0356C154.432 40.8563 154.393 40.7125 154.332 40.6057C154.22 40.4062 154.032 40.3071 153.769 40.3071C153.581 40.3071 153.423 40.3751 153.295 40.5124C153.167 40.6497 153.099 40.8239 153.092 41.0356H154.448ZM154.3 40.0688C154.463 40.1511 154.588 40.2566 154.673 40.3874C154.755 40.5111 154.81 40.6562 154.837 40.8213C154.862 40.9353 154.874 41.1159 154.874 41.364H153.083C153.09 41.6152 153.149 41.816 153.259 41.9668C153.368 42.1184 153.538 42.1941 153.767 42.1941C153.981 42.1941 154.153 42.1229 154.281 41.9798C154.352 41.8963 154.403 41.8004 154.433 41.691H154.839C154.828 41.781 154.793 41.882 154.732 41.9934C154.672 42.1041 154.604 42.1954 154.53 42.2654C154.406 42.3884 154.25 42.4706 154.066 42.514C153.968 42.538 153.856 42.5503 153.731 42.5503C153.426 42.5503 153.168 42.4389 152.956 42.2161C152.745 41.9934 152.639 41.6806 152.639 41.2791C152.639 40.8841 152.746 40.5629 152.959 40.3162C153.172 40.0688 153.451 39.9458 153.795 39.9458C153.969 39.9458 154.137 39.9866 154.3 40.0688Z" fill="#A58C65"/>
<path d="M155.419 40.0018H155.812V40.4273C155.844 40.3444 155.923 40.2434 156.049 40.1249C156.175 40.0057 156.32 39.9468 156.484 39.9468C156.491 39.9468 156.504 39.9474 156.522 39.9487C156.541 39.95 156.572 39.9533 156.617 39.9584V40.3949C156.592 40.3904 156.57 40.3871 156.549 40.3858C156.528 40.3839 156.506 40.3832 156.482 40.3832C156.272 40.3832 156.113 40.4506 156.001 40.5846C155.889 40.7187 155.833 40.8728 155.833 41.0476V42.4639H155.419V40.0018Z" fill="#A58C65"/>
<path d="M158.404 40.544C158.28 40.3964 158.12 40.3232 157.927 40.3232C157.636 40.3232 157.438 40.4599 157.331 40.7325C157.275 40.8782 157.247 41.0692 157.247 41.3049C157.247 41.5827 157.303 41.7932 157.415 41.9383C157.527 42.0833 157.678 42.1558 157.867 42.1558C158.162 42.1558 158.37 42.0218 158.491 41.7531C158.558 41.6015 158.592 41.4241 158.592 41.2221C158.592 40.917 158.529 40.691 158.404 40.544ZM158.354 40.0998C158.432 40.1536 158.511 40.2319 158.592 40.3349V40.0241H158.974V42.2633C158.974 42.5761 158.928 42.8235 158.836 43.0042C158.665 43.3377 158.342 43.5054 157.867 43.5054C157.603 43.5054 157.38 43.4458 157.2 43.3266C157.019 43.2081 156.919 43.0223 156.898 42.7697H157.318C157.338 42.8798 157.377 42.9647 157.437 43.0249C157.53 43.1168 157.677 43.1622 157.876 43.1622C158.191 43.1622 158.398 43.0508 158.496 42.8267C158.553 42.6953 158.58 42.4596 158.576 42.1215C158.493 42.2465 158.393 42.3404 158.278 42.4019C158.162 42.4628 158.009 42.4939 157.818 42.4939C157.552 42.4939 157.319 42.3987 157.12 42.2096C156.921 42.0205 156.822 41.7071 156.822 41.2706C156.822 40.8581 156.922 40.5363 157.123 40.3045C157.323 40.0733 157.566 39.958 157.85 39.958C158.042 39.958 158.21 40.0053 158.354 40.0998Z" fill="#A58C65"/>
<path d="M161.282 41.0356C161.266 40.8563 161.227 40.7125 161.165 40.6057C161.053 40.4062 160.866 40.3071 160.603 40.3071C160.414 40.3071 160.256 40.3751 160.129 40.5124C160 40.6497 159.933 40.8239 159.925 41.0356H161.282ZM161.134 40.0688C161.297 40.1511 161.421 40.2566 161.507 40.3874C161.589 40.5111 161.644 40.6562 161.671 40.8213C161.696 40.9353 161.707 41.1159 161.707 41.364H159.917C159.924 41.6152 159.982 41.816 160.092 41.9668C160.202 42.1184 160.371 42.1941 160.601 42.1941C160.815 42.1941 160.987 42.1229 161.114 41.9798C161.186 41.8963 161.237 41.8004 161.266 41.691H161.673C161.662 41.781 161.626 41.882 161.566 41.9934C161.506 42.1041 161.438 42.1954 161.363 42.2654C161.239 42.3884 161.084 42.4706 160.9 42.514C160.801 42.538 160.689 42.5503 160.565 42.5503C160.26 42.5503 160.002 42.4389 159.79 42.2161C159.578 41.9934 159.473 41.6806 159.473 41.2791C159.473 40.8841 159.579 40.5629 159.792 40.3162C160.006 40.0688 160.285 39.9458 160.629 39.9458C160.803 39.9458 160.971 39.9866 161.134 40.0688Z" fill="#A58C65"/>
<path d="M162.252 40.0018H162.645V40.4273C162.677 40.3444 162.756 40.2434 162.882 40.1249C163.008 40.0057 163.153 39.9468 163.317 39.9468C163.324 39.9468 163.337 39.9474 163.355 39.9487C163.374 39.95 163.405 39.9533 163.45 39.9584V40.3949C163.425 40.3904 163.403 40.3871 163.382 40.3858C163.361 40.3839 163.339 40.3832 163.315 40.3832C163.106 40.3832 162.946 40.4506 162.834 40.5846C162.722 40.7187 162.666 40.8728 162.666 41.0476V42.4639H162.252V40.0018Z" fill="#A58C65"/>
<path d="M164.064 41.6917C164.077 41.8296 164.111 41.9351 164.169 42.009C164.275 42.1424 164.46 42.2091 164.724 42.2091C164.88 42.2091 165.018 42.1754 165.136 42.1093C165.255 42.0426 165.315 41.939 165.315 41.7998C165.315 41.6936 165.266 41.6133 165.172 41.5583C165.111 41.5246 164.991 41.4857 164.812 41.4411L164.478 41.3582C164.264 41.3064 164.107 41.2481 164.006 41.1833C163.825 41.0713 163.735 40.9172 163.735 40.719C163.735 40.4859 163.82 40.2975 163.99 40.1537C164.16 40.0093 164.389 39.9374 164.676 39.9374C165.052 39.9374 165.323 40.0462 165.489 40.2638C165.593 40.4017 165.644 40.5506 165.641 40.71H165.25C165.242 40.6167 165.209 40.5325 165.149 40.4561C165.051 40.348 164.883 40.2936 164.643 40.2936C164.483 40.2936 164.362 40.3234 164.279 40.3829C164.196 40.4425 164.156 40.5215 164.156 40.6193C164.156 40.7261 164.21 40.8116 164.318 40.8757C164.38 40.9139 164.473 40.9476 164.594 40.9767L164.873 41.0434C165.176 41.1153 165.379 41.1853 165.482 41.2526C165.643 41.3582 165.723 41.5246 165.723 41.7512C165.723 41.9708 165.64 42.1599 165.471 42.3192C165.303 42.4785 165.047 42.5581 164.702 42.5581C164.331 42.5581 164.068 42.4752 163.914 42.3088C163.759 42.1424 163.676 41.9371 163.666 41.6917H164.064Z" fill="#A58C65"/>
<path d="M168.837 40.1473C168.926 40.043 168.971 39.9278 168.971 39.8008C168.971 39.7011 168.938 39.6156 168.873 39.5438C168.807 39.4719 168.719 39.4356 168.608 39.4356C168.439 39.4356 168.321 39.4926 168.256 39.6059C168.222 39.6636 168.205 39.7277 168.205 39.7963C168.205 39.8896 168.231 39.9789 168.283 40.0644C168.334 40.1499 168.419 40.2613 168.539 40.3973C168.684 40.2949 168.783 40.2114 168.837 40.1473ZM168.869 42.0615C168.991 41.9831 169.086 41.8957 169.15 41.7992L168.391 40.868C168.176 41.0124 168.035 41.1225 167.97 41.1996C167.87 41.3142 167.819 41.4547 167.819 41.6199C167.819 41.7992 167.884 41.9372 168.015 42.0337C168.145 42.1308 168.284 42.1787 168.432 42.1787C168.602 42.1787 168.747 42.1399 168.869 42.0615ZM167.875 40.1719C167.827 40.0599 167.803 39.9517 167.803 39.8475C167.803 39.6299 167.877 39.4492 168.023 39.3061C168.17 39.1623 168.366 39.0911 168.612 39.0911C168.846 39.0911 169.029 39.1578 169.16 39.2912C169.291 39.424 169.357 39.5833 169.357 39.7691C169.357 39.9848 169.289 40.1745 169.153 40.3364C169.074 40.4316 168.941 40.541 168.755 40.6653L169.368 41.4016C169.41 41.2792 169.437 41.1873 169.454 41.1271C169.47 41.0662 169.485 40.982 169.501 40.8726H169.895C169.869 41.0889 169.817 41.2961 169.74 41.4949C169.661 41.693 169.623 41.7733 169.623 41.7345L170.222 42.4636H169.689L169.373 42.077C169.248 42.2137 169.133 42.3134 169.029 42.3762C168.848 42.4869 168.638 42.542 168.402 42.542C168.052 42.542 167.798 42.4474 167.638 42.2577C167.48 42.0686 167.401 41.8556 167.401 41.6179C167.401 41.3615 167.478 41.1478 167.633 40.9762C167.726 40.8719 167.904 40.7418 168.162 40.5857C168.019 40.4212 167.924 40.2833 167.875 40.1719Z" fill="#A58C65"/>
<path d="M173.498 41.08L172.986 39.588L172.441 41.08H173.498ZM172.747 39.0868H173.265L174.489 42.4639H173.989L173.646 41.4524H172.31L171.945 42.4639H171.475L172.747 39.0868Z" fill="#A58C65"/>
<path d="M176.486 40.1322C176.661 40.2669 176.766 40.4994 176.8 40.829H176.398C176.373 40.6768 176.317 40.5512 176.23 40.4508C176.143 40.3504 176.003 40.2999 175.809 40.2999C175.546 40.2999 175.357 40.4288 175.244 40.6859C175.171 40.8529 175.134 41.0589 175.134 41.3036C175.134 41.5497 175.185 41.7576 175.29 41.926C175.394 42.0943 175.558 42.1785 175.782 42.1785C175.953 42.1785 176.089 42.1261 176.19 42.0211C176.29 41.9169 176.36 41.7738 176.398 41.5918H176.8C176.755 41.9188 176.639 42.1571 176.455 42.308C176.271 42.4596 176.036 42.5347 175.749 42.5347C175.428 42.5347 175.171 42.4168 174.98 42.1817C174.788 41.9467 174.692 41.6527 174.692 41.3004C174.692 40.8678 174.797 40.5317 175.007 40.2909C175.217 40.0506 175.485 39.9302 175.809 39.9302C176.087 39.9302 176.312 39.9975 176.486 40.1322Z" fill="#A58C65"/>
<path d="M177.578 41.8016C177.683 42.0581 177.872 42.1856 178.145 42.1856C178.432 42.1856 178.63 42.0509 178.739 41.7809C178.799 41.632 178.829 41.4422 178.829 41.2104C178.829 40.998 178.795 40.8199 178.729 40.6775C178.618 40.434 178.422 40.3116 178.14 40.3116C177.961 40.3116 177.807 40.3893 177.68 40.5454C177.552 40.7008 177.488 40.941 177.488 41.2661C177.488 41.4791 177.518 41.6572 177.578 41.8016ZM178.613 40.1005C178.689 40.1555 178.762 40.2365 178.833 40.344V40.0014H179.224V43.4458H178.81V42.1811C178.741 42.2912 178.646 42.3793 178.524 42.444C178.402 42.5094 178.251 42.5418 178.069 42.5418C177.807 42.5418 177.572 42.4395 177.366 42.2336C177.16 42.0283 177.055 41.7162 177.055 41.2959C177.055 40.9022 177.153 40.5784 177.347 40.3258C177.54 40.0726 177.79 39.9464 178.099 39.9464C178.302 39.9464 178.473 39.9975 178.613 40.1005Z" fill="#A58C65"/>
<path d="M180.266 40.0015V41.636C180.266 41.7616 180.285 41.8646 180.324 41.9442C180.396 42.0912 180.529 42.165 180.725 42.165C181.006 42.165 181.196 42.0362 181.298 41.7784C181.353 41.6405 181.381 41.4514 181.381 41.2105V40.0015H181.794V42.4636H181.404L181.408 42.1003C181.356 42.1942 181.29 42.2725 181.212 42.3373C181.057 42.4662 180.869 42.5303 180.648 42.5303C180.304 42.5303 180.069 42.4131 179.944 42.1786C179.876 42.053 179.843 41.8853 179.843 41.6748V40.0015H180.266Z" fill="#A58C65"/>
<path d="M182.479 40.0133H182.9V42.4644H182.479V40.0133ZM182.479 39.0866H182.9V39.5555H182.479V39.0866Z" fill="#A58C65"/>
<path d="M183.781 41.6917C183.794 41.8296 183.828 41.9351 183.887 42.009C183.993 42.1424 184.177 42.2091 184.441 42.2091C184.597 42.2091 184.735 42.1754 184.853 42.1093C184.972 42.0426 185.032 41.939 185.032 41.7998C185.032 41.6936 184.983 41.6133 184.889 41.5583C184.828 41.5246 184.708 41.4857 184.529 41.4411L184.195 41.3582C183.982 41.3064 183.824 41.2481 183.723 41.1833C183.543 41.0713 183.452 40.9172 183.452 40.719C183.452 40.4859 183.537 40.2975 183.707 40.1537C183.877 40.0093 184.106 39.9374 184.393 39.9374C184.769 39.9374 185.04 40.0462 185.206 40.2638C185.311 40.4017 185.361 40.5506 185.358 40.71H184.967C184.959 40.6167 184.926 40.5325 184.866 40.4561C184.769 40.348 184.6 40.2936 184.361 40.2936C184.2 40.2936 184.079 40.3234 183.997 40.3829C183.914 40.4425 183.873 40.5215 183.873 40.6193C183.873 40.7261 183.927 40.8116 184.035 40.8757C184.098 40.9139 184.19 40.9476 184.311 40.9767L184.59 41.0434C184.893 41.1153 185.096 41.1853 185.199 41.2526C185.36 41.3582 185.441 41.5246 185.441 41.7512C185.441 41.9708 185.357 42.1599 185.188 42.3192C185.02 42.4785 184.764 42.5581 184.419 42.5581C184.048 42.5581 183.786 42.4752 183.631 42.3088C183.477 42.1424 183.394 41.9371 183.383 41.6917H183.781Z" fill="#A58C65"/>
<path d="M185.899 40.0133H186.319V42.4644H185.899V40.0133ZM185.899 39.0866H186.319V39.5555H185.899V39.0866Z" fill="#A58C65"/>
<path d="M187.037 39.3138H187.456V40.0015H187.849V40.3389H187.456V41.9462C187.456 42.0323 187.484 42.0893 187.543 42.1184C187.575 42.1353 187.628 42.1437 187.704 42.1437C187.724 42.1437 187.746 42.1437 187.768 42.1424C187.791 42.1411 187.818 42.1385 187.849 42.1346V42.4636C187.801 42.4772 187.752 42.4869 187.7 42.4934C187.649 42.4992 187.593 42.5024 187.534 42.5024C187.341 42.5024 187.209 42.4532 187.14 42.3541C187.072 42.2551 187.037 42.1269 187.037 41.9695V40.3389H186.704V40.0015H187.037V39.3138Z" fill="#A58C65"/>
<path d="M188.273 40.0133H188.693V42.4644H188.273V40.0133ZM188.273 39.0866H188.693V39.5555H188.273V39.0866Z" fill="#A58C65"/>
<path d="M190.855 41.8836C190.955 41.6764 191.006 41.4452 191.006 41.1914C191.006 40.9615 190.97 40.775 190.896 40.6312C190.782 40.4046 190.583 40.2913 190.301 40.2913C190.051 40.2913 189.869 40.3877 189.756 40.5807C189.642 40.7737 189.585 41.0062 189.585 41.2788C189.585 41.5404 189.642 41.7586 189.756 41.9328C189.869 42.1077 190.05 42.1945 190.297 42.1945C190.568 42.1945 190.754 42.0908 190.855 41.8836ZM191.111 40.2472C191.329 40.4583 191.438 40.7692 191.438 41.1797C191.438 41.5767 191.343 41.9044 191.15 42.1634C190.959 42.4218 190.661 42.5513 190.258 42.5513C189.922 42.5513 189.654 42.4367 189.457 42.2074C189.259 41.9788 189.16 41.6712 189.16 41.2853C189.16 40.8721 189.264 40.5432 189.472 40.2977C189.682 40.053 189.961 39.9299 190.313 39.9299C190.628 39.9299 190.894 40.0361 191.111 40.2472Z" fill="#A58C65"/>
<path d="M191.956 40.0018H192.349V40.3515C192.466 40.2071 192.589 40.1035 192.719 40.0407C192.85 39.9779 192.995 39.9468 193.154 39.9468C193.504 39.9468 193.739 40.0685 193.862 40.312C193.929 40.4454 193.963 40.6358 193.963 40.8845V42.4639H193.542V40.9123C193.542 40.7621 193.52 40.641 193.476 40.549C193.402 40.3955 193.269 40.3191 193.076 40.3191C192.977 40.3191 192.897 40.3288 192.834 40.3489C192.721 40.3826 192.621 40.4499 192.536 40.551C192.466 40.6325 192.422 40.7167 192.401 40.8029C192.38 40.8896 192.37 41.0133 192.37 41.1746V42.4639H191.956V40.0018Z" fill="#A58C65"/>
<path d="M194.83 41.6917C194.843 41.8296 194.877 41.9351 194.936 42.009C195.042 42.1424 195.226 42.2091 195.49 42.2091C195.646 42.2091 195.784 42.1754 195.902 42.1093C196.022 42.0426 196.081 41.939 196.081 41.7998C196.081 41.6936 196.033 41.6133 195.938 41.5583C195.877 41.5246 195.757 41.4857 195.578 41.4411L195.245 41.3582C195.031 41.3064 194.873 41.2481 194.772 41.1833C194.592 41.0713 194.501 40.9172 194.501 40.719C194.501 40.4859 194.586 40.2975 194.756 40.1537C194.926 40.0093 195.155 39.9374 195.442 39.9374C195.818 39.9374 196.089 40.0462 196.255 40.2638C196.36 40.4017 196.41 40.5506 196.408 40.71H196.016C196.008 40.6167 195.975 40.5325 195.915 40.4561C195.818 40.348 195.649 40.2936 195.41 40.2936C195.249 40.2936 195.128 40.3234 195.046 40.3829C194.963 40.4425 194.922 40.5215 194.922 40.6193C194.922 40.7261 194.976 40.8116 195.085 40.8757C195.147 40.9139 195.239 40.9476 195.36 40.9767L195.64 41.0434C195.943 41.1153 196.145 41.1853 196.248 41.2526C196.41 41.3582 196.49 41.5246 196.49 41.7512C196.49 41.9708 196.406 42.1599 196.237 42.3192C196.069 42.4785 195.813 42.5581 195.468 42.5581C195.097 42.5581 194.835 42.4752 194.681 42.3088C194.526 42.1424 194.443 41.9371 194.432 41.6917H194.83Z" fill="#A58C65"/>
<path d="M199.355 39.0311C199.115 39.4986 198.958 39.8425 198.885 40.0633C198.777 40.3994 198.722 40.7866 198.722 41.227C198.722 41.6712 198.785 42.0772 198.909 42.445C198.986 42.6723 199.137 42.9987 199.362 43.4248H199.084C198.86 43.0751 198.721 42.8524 198.667 42.7552C198.613 42.6594 198.556 42.5279 198.493 42.3628C198.407 42.1355 198.347 41.8933 198.314 41.6356C198.297 41.5028 198.288 41.3753 198.288 41.2542C198.288 40.8009 198.36 40.3968 198.502 40.0426C198.592 39.8172 198.781 39.4805 199.068 39.0311H199.355Z" fill="#A58C65"/>
<path d="M199.886 39.0868H200.541L201.513 41.9419L202.477 39.0868H203.128V42.4639H202.691V40.4707C202.691 40.402 202.693 40.2874 202.696 40.1281C202.698 39.9688 202.7 39.7978 202.7 39.6152L201.736 42.4639H201.282L200.309 39.6152V39.7188C200.309 39.8017 200.312 39.928 200.316 40.097C200.321 40.2667 200.323 40.391 200.323 40.4707V42.4639H199.886V39.0868Z" fill="#A58C65"/>
<path d="M205.111 40.1473C205.201 40.043 205.246 39.9278 205.246 39.8008C205.246 39.7011 205.212 39.6156 205.147 39.5438C205.082 39.4719 204.993 39.4356 204.882 39.4356C204.713 39.4356 204.595 39.4926 204.531 39.6059C204.496 39.6636 204.479 39.7277 204.479 39.7963C204.479 39.8896 204.505 39.9789 204.557 40.0644C204.608 40.1499 204.694 40.2613 204.814 40.3973C204.958 40.2949 205.057 40.2114 205.111 40.1473ZM205.144 42.0615C205.266 41.9831 205.36 41.8957 205.425 41.7992L204.665 40.868C204.45 41.0124 204.31 41.1225 204.244 41.1996C204.144 41.3142 204.093 41.4547 204.093 41.6199C204.093 41.7992 204.158 41.9372 204.289 42.0337C204.42 42.1308 204.558 42.1787 204.707 42.1787C204.876 42.1787 205.021 42.1399 205.144 42.0615ZM204.15 40.1719C204.101 40.0599 204.077 39.9517 204.077 39.8475C204.077 39.6299 204.151 39.4492 204.297 39.3061C204.444 39.1623 204.64 39.0911 204.886 39.0911C205.121 39.0911 205.303 39.1578 205.435 39.2912C205.565 39.424 205.631 39.5833 205.631 39.7691C205.631 39.9848 205.563 40.1745 205.427 40.3364C205.348 40.4316 205.216 40.541 205.03 40.6653L205.642 41.4016C205.684 41.2792 205.712 41.1873 205.728 41.1271C205.744 41.0662 205.76 40.982 205.776 40.8726H206.17C206.144 41.0889 206.092 41.2961 206.014 41.4949C205.936 41.693 205.898 41.7733 205.898 41.7345L206.496 42.4636H205.963L205.648 42.077C205.523 42.2137 205.407 42.3134 205.304 42.3762C205.122 42.4869 204.913 42.542 204.676 42.542C204.327 42.542 204.072 42.4474 203.913 42.2577C203.754 42.0686 203.675 41.8556 203.675 41.6179C203.675 41.3615 203.752 41.1478 203.907 40.9762C204.001 40.8719 204.178 40.7418 204.436 40.5857C204.294 40.4212 204.198 40.2833 204.15 40.1719Z" fill="#A58C65"/>
<path d="M208.712 41.08L208.2 39.588L207.655 41.08H208.712ZM207.961 39.0868H208.478L209.703 42.4639H209.202L208.86 41.4524H207.524L207.159 42.4639H206.689L207.961 39.0868Z" fill="#A58C65"/>
<path d="M209.933 43.4243C210.177 42.9497 210.334 42.6026 210.405 42.3856C210.512 42.056 210.566 41.6694 210.566 41.2265C210.566 40.7835 210.504 40.3782 210.379 40.0103C210.303 39.7831 210.152 39.4573 209.926 39.0306H210.205C210.44 39.4081 210.584 39.6406 210.633 39.7287C210.683 39.8167 210.737 39.9385 210.795 40.0932C210.869 40.2849 210.922 40.474 210.953 40.6605C210.984 40.8476 211 41.0277 211 41.2012C211 41.6552 210.928 42.0599 210.784 42.4148C210.694 42.6434 210.506 42.9794 210.221 43.4243H209.933Z" fill="#A58C65"/>
<path d="M148.947 44.9149H151.289V45.3287H149.404V46.3538H151.062V46.7566H149.404V48.292H148.947V44.9149Z" fill="#A58C65"/>
<path d="M151.734 45.8415H152.154V48.2925H151.734V45.8415ZM151.734 44.9148H152.154V45.3836H151.734V44.9148Z" fill="#A58C65"/>
<path d="M152.789 45.8299H153.182V46.1796C153.299 46.0352 153.422 45.9316 153.552 45.8688C153.683 45.806 153.828 45.7749 153.987 45.7749C154.337 45.7749 154.572 45.8966 154.695 46.1401C154.762 46.2735 154.796 46.4639 154.796 46.7126V48.292H154.375V46.7404C154.375 46.5902 154.353 46.4691 154.309 46.3771C154.235 46.2237 154.102 46.1473 153.909 46.1473C153.81 46.1473 153.73 46.157 153.667 46.177C153.554 46.2107 153.454 46.2781 153.369 46.3791C153.299 46.4607 153.255 46.5449 153.234 46.631C153.213 46.7178 153.203 46.8414 153.203 47.0027V48.292H152.789V45.8299Z" fill="#A58C65"/>
<path d="M155.865 47.9198C155.953 47.9884 156.056 48.0227 156.176 48.0227C156.321 48.0227 156.462 47.9891 156.599 47.9217C156.828 47.8103 156.944 47.6271 156.944 47.3732V47.0404C156.893 47.0727 156.828 47.0993 156.748 47.1213C156.669 47.1427 156.591 47.1582 156.514 47.1673L156.264 47.1997C156.115 47.2191 156.002 47.2508 155.926 47.2936C155.798 47.3654 155.735 47.4801 155.735 47.6374C155.735 47.7572 155.778 47.8511 155.865 47.9198ZM156.737 46.8014C156.832 46.7898 156.896 46.7496 156.928 46.6823C156.946 46.6453 156.955 46.5922 156.955 46.523C156.955 46.3818 156.905 46.2788 156.804 46.2154C156.705 46.1513 156.561 46.1195 156.374 46.1195C156.159 46.1195 156.006 46.1778 155.915 46.295C155.865 46.3598 155.832 46.4556 155.817 46.5838H155.431C155.439 46.2795 155.536 46.0677 155.726 45.9486C155.915 45.8294 156.134 45.7698 156.384 45.7698C156.673 45.7698 156.908 45.8249 157.089 45.9356C157.268 46.0457 157.357 46.2173 157.357 46.4504V47.8686C157.357 47.912 157.366 47.9463 157.384 47.9729C157.401 47.9988 157.439 48.0117 157.495 48.0117C157.514 48.0117 157.534 48.0104 157.557 48.0078C157.58 48.0059 157.605 48.002 157.631 47.9975V48.3031C157.567 48.3219 157.518 48.3336 157.484 48.3381C157.45 48.3426 157.404 48.3446 157.346 48.3446C157.203 48.3446 157.1 48.2941 157.036 48.193C157.002 48.1393 156.978 48.0635 156.964 47.9657C156.879 48.0758 156.759 48.1717 156.601 48.2533C156.444 48.3342 156.269 48.375 156.079 48.375C155.851 48.375 155.664 48.3057 155.52 48.1671C155.375 48.0279 155.302 47.855 155.302 47.6471C155.302 47.4185 155.373 47.2418 155.516 47.1161C155.659 46.9905 155.845 46.9134 156.076 46.8843L156.737 46.8014Z" fill="#A58C65"/>
<path d="M158.045 45.8299H158.438V46.1796C158.555 46.0352 158.679 45.9316 158.809 45.8688C158.939 45.806 159.084 45.7749 159.243 45.7749C159.593 45.7749 159.829 45.8966 159.951 46.1401C160.018 46.2735 160.053 46.4639 160.053 46.7126V48.292H159.631V46.7404C159.631 46.5902 159.609 46.4691 159.565 46.3771C159.491 46.2237 159.358 46.1473 159.165 46.1473C159.067 46.1473 158.986 46.157 158.923 46.177C158.81 46.2107 158.71 46.2781 158.625 46.3791C158.556 46.4607 158.511 46.5449 158.49 46.631C158.469 46.7178 158.459 46.8414 158.459 47.0027V48.292H158.045V45.8299Z" fill="#A58C65"/>
<path d="M162.299 45.9603C162.474 46.095 162.579 46.3275 162.613 46.6571H162.211C162.186 46.5049 162.13 46.3793 162.043 46.2789C161.956 46.1786 161.816 46.128 161.622 46.128C161.358 46.128 161.17 46.2569 161.057 46.514C160.984 46.6811 160.947 46.887 160.947 47.1318C160.947 47.3778 160.998 47.5857 161.103 47.7541C161.207 47.9224 161.371 48.0066 161.595 48.0066C161.766 48.0066 161.902 47.9542 162.003 47.8493C162.103 47.745 162.172 47.6019 162.211 47.4199H162.613C162.568 47.747 162.452 47.9853 162.268 48.1361C162.084 48.2877 161.849 48.3628 161.562 48.3628C161.241 48.3628 160.984 48.2449 160.793 48.0099C160.601 47.7748 160.505 47.4808 160.505 47.1285C160.505 46.696 160.61 46.3599 160.82 46.119C161.03 45.8787 161.298 45.7583 161.622 45.7583C161.9 45.7583 162.125 45.8256 162.299 45.9603Z" fill="#A58C65"/>
<path d="M164.706 46.8638C164.689 46.6844 164.651 46.5406 164.589 46.4338C164.477 46.2343 164.289 46.1352 164.026 46.1352C163.838 46.1352 163.68 46.2032 163.552 46.3405C163.424 46.4778 163.357 46.652 163.349 46.8638H164.706ZM164.557 45.8969C164.72 45.9792 164.845 46.0847 164.93 46.2155C165.013 46.3392 165.068 46.4843 165.095 46.6494C165.119 46.7634 165.131 46.9441 165.131 47.1921H163.341C163.348 47.4433 163.406 47.6441 163.516 47.795C163.625 47.9465 163.795 48.0223 164.024 48.0223C164.239 48.0223 164.41 47.951 164.538 47.8079C164.61 47.7244 164.66 47.6285 164.69 47.5191H165.097C165.086 47.6091 165.05 47.7101 164.989 47.8215C164.93 47.9322 164.862 48.0236 164.787 48.0935C164.663 48.2165 164.507 48.2988 164.324 48.3422C164.225 48.3661 164.113 48.3784 163.989 48.3784C163.684 48.3784 163.425 48.267 163.214 48.0443C163.002 47.8215 162.896 47.5087 162.896 47.1072C162.896 46.7122 163.003 46.391 163.216 46.1443C163.429 45.8969 163.708 45.7739 164.052 45.7739C164.226 45.7739 164.395 45.8147 164.557 45.8969Z" fill="#A58C65"/>
<path d="M150.444 52.2901C150.653 52.2901 150.818 52.2474 150.939 52.1612C151.06 52.0757 151.121 51.921 151.121 51.6969C151.121 51.456 151.037 51.2922 150.866 51.2048C150.776 51.1588 150.654 51.1361 150.502 51.1361H149.416V52.2901H150.444ZM148.958 50.7431H150.493C150.746 50.7431 150.954 50.7806 151.119 50.8557C151.43 50.9995 151.586 51.2656 151.586 51.6535C151.586 51.8556 151.544 52.0207 151.461 52.1502C151.377 52.2784 151.261 52.382 151.11 52.4604C151.242 52.5142 151.342 52.5847 151.408 52.6715C151.475 52.7596 151.511 52.9007 151.519 53.097L151.536 53.5503C151.54 53.6791 151.551 53.7743 151.568 53.8378C151.595 53.9446 151.645 54.0139 151.715 54.0444V54.1201H151.154C151.138 54.091 151.127 54.0534 151.117 54.0074C151.108 53.9615 151.1 53.8727 151.094 53.7406L151.066 53.1779C151.056 52.9571 150.976 52.8088 150.827 52.7343C150.743 52.6929 150.609 52.6715 150.428 52.6715H149.416V54.1201H148.958V50.7431Z" fill="#A58C65"/>
<path d="M153.927 52.6919C153.91 52.5125 153.872 52.3687 153.81 52.2619C153.698 52.0625 153.51 51.9634 153.247 51.9634C153.059 51.9634 152.901 52.0314 152.773 52.1687C152.645 52.3059 152.578 52.4801 152.57 52.6919H153.927ZM153.778 51.7251C153.941 51.8073 154.066 51.9129 154.151 52.0437C154.233 52.1674 154.289 52.3124 154.316 52.4775C154.34 52.5915 154.352 52.7722 154.352 53.0202H152.561C152.569 53.2715 152.627 53.4722 152.737 53.6231C152.846 53.7746 153.016 53.8504 153.245 53.8504C153.46 53.8504 153.631 53.7791 153.759 53.636C153.831 53.5525 153.881 53.4567 153.911 53.3472H154.318C154.307 53.4372 154.271 53.5383 154.21 53.6496C154.151 53.7604 154.083 53.8517 154.008 53.9216C153.884 54.0447 153.728 54.1269 153.544 54.1703C153.446 54.1942 153.334 54.2065 153.21 54.2065C152.905 54.2065 152.646 54.0952 152.435 53.8724C152.223 53.6496 152.117 53.3369 152.117 52.9354C152.117 52.5404 152.224 52.2192 152.437 51.9724C152.65 51.7251 152.929 51.602 153.273 51.602C153.447 51.602 153.616 51.6428 153.778 51.7251Z" fill="#A58C65"/>
<path d="M155.132 53.3479C155.145 53.4858 155.179 53.5914 155.237 53.6652C155.344 53.7986 155.528 53.8653 155.792 53.8653C155.948 53.8653 156.086 53.8316 156.204 53.7656C156.323 53.6989 156.383 53.5953 156.383 53.4561C156.383 53.3499 156.334 53.2696 156.24 53.2145C156.179 53.1808 156.059 53.142 155.88 53.0973L155.546 53.0144C155.333 52.9626 155.175 52.9043 155.074 52.8396C154.894 52.7275 154.803 52.5734 154.803 52.3753C154.803 52.1421 154.888 51.9537 155.058 51.8099C155.228 51.6655 155.457 51.5937 155.744 51.5937C156.12 51.5937 156.391 51.7024 156.557 51.92C156.661 52.058 156.712 52.2069 156.709 52.3662H156.318C156.31 52.273 156.277 52.1888 156.217 52.1124C156.119 52.0042 155.951 51.9498 155.711 51.9498C155.551 51.9498 155.43 51.9796 155.348 52.0392C155.265 52.0988 155.224 52.1778 155.224 52.2755C155.224 52.3824 155.278 52.4679 155.386 52.532C155.449 52.5702 155.541 52.6039 155.662 52.633L155.941 52.6997C156.244 52.7716 156.447 52.8415 156.55 52.9089C156.711 53.0144 156.792 53.1808 156.792 53.4075C156.792 53.627 156.708 53.8161 156.539 53.9754C156.371 54.1347 156.115 54.2144 155.77 54.2144C155.399 54.2144 155.136 54.1315 154.982 53.965C154.828 53.7986 154.745 53.5933 154.734 53.3479H155.132Z" fill="#A58C65"/>
<path d="M157.333 50.9701H157.751V51.6578H158.144V51.9952H157.751V53.6024C157.751 53.6886 157.779 53.7455 157.838 53.7747C157.87 53.7915 157.924 53.7999 157.999 53.7999C158.02 53.7999 158.041 53.7999 158.064 53.7986C158.086 53.7973 158.114 53.7948 158.144 53.7909V54.1198C158.097 54.1334 158.048 54.1431 157.996 54.1496C157.944 54.1555 157.889 54.1587 157.829 54.1587C157.636 54.1587 157.505 54.1095 157.436 54.0104C157.367 53.9113 157.333 53.7831 157.333 53.6257V51.9952H156.999V51.6578H157.333V50.9701Z" fill="#A58C65"/>
<path d="M158.579 51.6581H158.972V52.0835C159.005 52.0006 159.083 51.8996 159.209 51.7811C159.335 51.662 159.48 51.603 159.644 51.603C159.651 51.603 159.664 51.6037 159.683 51.605C159.701 51.6063 159.732 51.6095 159.777 51.6147V52.0511C159.752 52.0466 159.73 52.0434 159.709 52.0421C159.688 52.0401 159.666 52.0395 159.642 52.0395C159.433 52.0395 159.273 52.1068 159.161 52.2409C159.049 52.3749 158.993 52.529 158.993 52.7039V54.1201H158.579V51.6581Z" fill="#A58C65"/>
<path d="M160.558 51.6578V53.2922C160.558 53.4179 160.577 53.5208 160.616 53.6005C160.688 53.7475 160.821 53.8213 161.017 53.8213C161.298 53.8213 161.488 53.6924 161.591 53.4347C161.646 53.2968 161.674 53.1077 161.674 52.8668V51.6578H162.087V54.1198H161.696L161.701 53.7565C161.648 53.8504 161.582 53.9288 161.505 53.9935C161.35 54.1224 161.161 54.1865 160.941 54.1865C160.596 54.1865 160.361 54.0693 160.237 53.8349C160.169 53.7093 160.135 53.5415 160.135 53.3311V51.6578H160.558Z" fill="#A58C65"/>
<path d="M164.399 51.7884C164.573 51.9231 164.678 52.1556 164.712 52.4852H164.31C164.286 52.333 164.23 52.2074 164.143 52.107C164.056 52.0067 163.915 51.9562 163.722 51.9562C163.458 51.9562 163.27 52.085 163.156 52.3421C163.083 52.5092 163.046 52.7151 163.046 52.9599C163.046 53.206 163.098 53.4138 163.202 53.5822C163.307 53.7506 163.47 53.8348 163.694 53.8348C163.866 53.8348 164.002 53.7823 164.102 53.6774C164.203 53.5731 164.272 53.43 164.31 53.2481H164.712C164.667 53.5751 164.552 53.8134 164.368 53.9643C164.184 54.1158 163.949 54.1909 163.662 54.1909C163.34 54.1909 163.084 54.0731 162.892 53.838C162.7 53.6029 162.605 53.3089 162.605 52.9567C162.605 52.5241 162.71 52.188 162.92 51.9471C163.13 51.7069 163.397 51.5864 163.722 51.5864C163.999 51.5864 164.225 51.6538 164.399 51.7884Z" fill="#A58C65"/>
<path d="M165.219 50.9701H165.638V51.6578H166.031V51.9952H165.638V53.6024C165.638 53.6886 165.666 53.7455 165.725 53.7747C165.757 53.7915 165.81 53.7999 165.886 53.7999C165.906 53.7999 165.928 53.7999 165.95 53.7986C165.973 53.7973 166 53.7948 166.031 53.7909V54.1198C165.983 54.1334 165.934 54.1431 165.882 54.1496C165.83 54.1555 165.775 54.1587 165.716 54.1587C165.523 54.1587 165.391 54.1095 165.322 54.0104C165.253 53.9113 165.219 53.7831 165.219 53.6257V51.9952H164.886V51.6578H165.219V50.9701Z" fill="#A58C65"/>
<path d="M166.868 51.6578V53.2922C166.868 53.4179 166.887 53.5208 166.926 53.6005C166.998 53.7475 167.131 53.8213 167.327 53.8213C167.608 53.8213 167.798 53.6924 167.901 53.4347C167.956 53.2968 167.984 53.1077 167.984 52.8668V51.6578H168.397V54.1198H168.006L168.011 53.7565C167.958 53.8504 167.892 53.9288 167.815 53.9935C167.66 54.1224 167.471 54.1865 167.251 54.1865C166.906 54.1865 166.671 54.0693 166.547 53.8349C166.479 53.7093 166.445 53.5415 166.445 53.3311V51.6578H166.868Z" fill="#A58C65"/>
<path d="M169.094 51.6581H169.487V52.0835C169.519 52.0006 169.598 51.8996 169.724 51.7811C169.849 51.662 169.995 51.603 170.158 51.603C170.165 51.603 170.179 51.6037 170.197 51.605C170.215 51.6063 170.247 51.6095 170.292 51.6147V52.0511C170.267 52.0466 170.244 52.0434 170.224 52.0421C170.203 52.0401 170.18 52.0395 170.156 52.0395C169.947 52.0395 169.787 52.1068 169.675 52.2409C169.564 52.3749 169.508 52.529 169.508 52.7039V54.1201H169.094V51.6581Z" fill="#A58C65"/>
<path d="M170.659 51.6696H171.08V54.1206H170.659V51.6696ZM170.659 50.7429H171.08V51.2117H170.659V50.7429Z" fill="#A58C65"/>
<path d="M171.715 51.6581H172.108V52.0078C172.225 51.8633 172.348 51.7597 172.478 51.6969C172.609 51.6341 172.754 51.603 172.913 51.603C173.263 51.603 173.498 51.7248 173.621 51.9683C173.688 52.1017 173.722 52.292 173.722 52.5407V54.1201H173.301V52.5685C173.301 52.4183 173.279 52.2972 173.235 52.2053C173.161 52.0518 173.028 51.9754 172.835 51.9754C172.736 51.9754 172.656 51.9851 172.593 52.0052C172.48 52.0388 172.38 52.1062 172.295 52.2072C172.225 52.2888 172.181 52.373 172.16 52.4591C172.139 52.5459 172.129 52.6696 172.129 52.8308V54.1201H171.715V51.6581Z" fill="#A58C65"/>
<path d="M175.763 52.2003C175.638 52.0527 175.479 51.9795 175.285 51.9795C174.994 51.9795 174.797 52.1161 174.69 52.3887C174.634 52.5344 174.605 52.7255 174.605 52.9612C174.605 53.239 174.661 53.4495 174.773 53.5945C174.885 53.7396 175.036 53.8121 175.225 53.8121C175.521 53.8121 175.729 53.678 175.85 53.4093C175.916 53.2578 175.95 53.0803 175.95 52.8783C175.95 52.5733 175.887 52.3473 175.763 52.2003ZM175.712 51.7561C175.79 51.8098 175.869 51.8882 175.95 51.9911V51.6803H176.332V53.9196C176.332 54.2324 176.286 54.4797 176.194 54.6604C176.023 54.9939 175.7 55.1616 175.225 55.1616C174.961 55.1616 174.739 55.102 174.558 54.9829C174.378 54.8644 174.277 54.6785 174.256 54.426H174.676C174.696 54.5361 174.736 54.6209 174.795 54.6811C174.888 54.7731 175.035 54.8184 175.235 54.8184C175.55 54.8184 175.756 54.707 175.854 54.483C175.912 54.3515 175.938 54.1158 175.935 53.7778C175.852 53.9028 175.752 53.9966 175.637 54.0582C175.52 54.119 175.367 54.1501 175.176 54.1501C174.911 54.1501 174.678 54.0549 174.479 53.8658C174.279 53.6768 174.18 53.3633 174.18 52.9269C174.18 52.5144 174.28 52.1925 174.481 51.9607C174.682 51.7295 174.924 51.6143 175.209 51.6143C175.4 51.6143 175.569 51.6615 175.712 51.7561Z" fill="#A58C65"/>
<path d="M149.007 56.5707H149.468V59.9478H149.007V56.5707Z" fill="#A58C65"/>
<path d="M150.166 57.4862H150.559V57.8359C150.675 57.6915 150.799 57.5879 150.929 57.525C151.059 57.4622 151.204 57.4312 151.364 57.4312C151.713 57.4312 151.949 57.5529 152.071 57.7964C152.139 57.9298 152.173 58.1202 152.173 58.3688V59.9482H151.752V58.3967C151.752 58.2464 151.73 58.1253 151.686 58.0334C151.612 57.8799 151.478 57.8035 151.285 57.8035C151.187 57.8035 151.107 57.8132 151.044 57.8333C150.93 57.867 150.831 57.9343 150.745 58.0353C150.676 58.1169 150.631 58.2011 150.611 58.2872C150.59 58.374 150.58 58.4977 150.58 58.6589V59.9482H150.166V57.4862Z" fill="#A58C65"/>
<path d="M152.877 56.7982H153.295V57.4859H153.688V57.8233H153.295V59.4306C153.295 59.5167 153.324 59.5737 153.383 59.6028C153.414 59.6196 153.468 59.6281 153.543 59.6281C153.564 59.6281 153.585 59.6281 153.608 59.6268C153.631 59.6255 153.658 59.6229 153.688 59.619V59.948C153.641 59.9616 153.592 59.9713 153.54 59.9778C153.488 59.9836 153.433 59.9868 153.374 59.9868C153.181 59.9868 153.049 59.9376 152.98 59.8385C152.911 59.7394 152.877 59.6112 152.877 59.4539V57.8233H152.543V57.4859H152.877V56.7982Z" fill="#A58C65"/>
<path d="M155.781 58.52C155.764 58.3406 155.726 58.1969 155.664 58.09C155.552 57.8906 155.364 57.7915 155.101 57.7915C154.913 57.7915 154.755 57.8595 154.627 57.9968C154.499 58.1341 154.432 58.3083 154.424 58.52H155.781ZM155.632 57.5532C155.796 57.6354 155.92 57.741 156.005 57.8718C156.088 57.9955 156.143 58.1405 156.17 58.3057C156.194 58.4196 156.206 58.6003 156.206 58.8483H154.416C154.423 59.0996 154.481 59.3003 154.591 59.4512C154.701 59.6027 154.87 59.6785 155.099 59.6785C155.314 59.6785 155.485 59.6073 155.613 59.4642C155.685 59.3806 155.735 59.2848 155.765 59.1753H156.172C156.161 59.2654 156.125 59.3664 156.064 59.4778C156.005 59.5885 155.937 59.6798 155.862 59.7497C155.738 59.8728 155.583 59.955 155.399 59.9984C155.3 60.0224 155.188 60.0347 155.064 60.0347C154.759 60.0347 154.5 59.9233 154.289 59.7005C154.077 59.4778 153.971 59.165 153.971 58.7635C153.971 58.3685 154.078 58.0473 154.291 57.8006C154.504 57.5532 154.783 57.4302 155.127 57.4302C155.301 57.4302 155.47 57.471 155.632 57.5532Z" fill="#A58C65"/>
<path d="M156.751 57.4862H157.145V57.9116C157.177 57.8288 157.255 57.7277 157.382 57.6092C157.507 57.4901 157.652 57.4312 157.816 57.4312C157.823 57.4312 157.837 57.4318 157.855 57.4331C157.873 57.4344 157.905 57.4376 157.949 57.4428V57.8793C157.925 57.8747 157.902 57.8715 157.881 57.8702C157.861 57.8683 157.838 57.8676 157.814 57.8676C157.605 57.8676 157.445 57.935 157.333 58.069C157.222 58.2031 157.165 58.3572 157.165 58.532V59.9482H156.751V57.4862Z" fill="#A58C65"/>
<path d="M158.317 57.4977H158.737V59.9487H158.317V57.4977ZM158.317 56.571H158.737V57.0399H158.317V56.571Z" fill="#A58C65"/>
<path d="M159.372 57.4862H159.781V57.8359C159.879 57.7148 159.968 57.6261 160.048 57.571C160.184 57.4778 160.339 57.4312 160.512 57.4312C160.708 57.4312 160.867 57.4791 160.986 57.5756C161.054 57.6312 161.115 57.7122 161.17 57.8197C161.262 57.6876 161.37 57.5898 161.494 57.5263C161.618 57.4629 161.758 57.4312 161.912 57.4312C162.244 57.4312 162.469 57.5503 162.589 57.7893C162.653 57.9181 162.685 58.0917 162.685 58.3093V59.9482H162.255V58.238C162.255 58.0742 162.214 57.9609 162.132 57.9C162.05 57.8385 161.95 57.808 161.832 57.808C161.67 57.808 161.53 57.8624 161.412 57.9712C161.295 58.08 161.236 58.262 161.236 58.5158V59.9482H160.815V58.3416C160.815 58.1739 160.795 58.0528 160.756 57.9758C160.693 57.8611 160.576 57.8035 160.404 57.8035C160.248 57.8035 160.106 57.8637 159.978 57.9848C159.849 58.1059 159.786 58.3254 159.786 58.6427V59.9482H159.372V57.4862Z" fill="#A58C65"/>
<path d="M163.55 59.1755C163.563 59.3135 163.597 59.419 163.655 59.4929C163.761 59.6263 163.946 59.693 164.21 59.693C164.366 59.693 164.504 59.6593 164.622 59.5932C164.741 59.5265 164.801 59.4229 164.801 59.2837C164.801 59.1775 164.752 59.0972 164.658 59.0421C164.597 59.0085 164.477 58.9696 164.298 58.9249L163.964 58.8421C163.75 58.7902 163.593 58.732 163.492 58.6672C163.311 58.5552 163.221 58.4011 163.221 58.2029C163.221 57.9698 163.306 57.7813 163.476 57.6376C163.645 57.4932 163.875 57.4213 164.162 57.4213C164.538 57.4213 164.809 57.5301 164.975 57.7477C165.079 57.8856 165.13 58.0345 165.127 58.1938H164.736C164.728 58.1006 164.695 58.0164 164.635 57.94C164.537 57.8318 164.369 57.7775 164.129 57.7775C163.969 57.7775 163.848 57.8072 163.765 57.8668C163.682 57.9264 163.642 58.0054 163.642 58.1032C163.642 58.21 163.696 58.2955 163.804 58.3596C163.866 58.3978 163.959 58.4315 164.08 58.4606L164.359 58.5273C164.662 58.5992 164.865 58.6692 164.968 58.7365C165.129 58.8421 165.209 59.0085 165.209 59.2351C165.209 59.4546 165.126 59.6437 164.957 59.803C164.788 59.9623 164.533 60.042 164.187 60.042C163.816 60.042 163.554 59.9591 163.4 59.7927C163.245 59.6263 163.162 59.421 163.152 59.1755H163.55Z" fill="#A58C65"/>
<path d="M165.559 58.4232H166.713V58.8486H165.559V58.4232Z" fill="#A58C65"/>
<path d="M167.288 56.5712H167.944L168.915 59.4263L169.879 56.5712H170.53V59.9482H170.093V57.955C170.093 57.8864 170.095 57.7718 170.098 57.6125C170.101 57.4532 170.103 57.2822 170.103 57.0996L169.138 59.9482H168.684L167.711 57.0996V57.2032C167.711 57.2861 167.714 57.4124 167.718 57.5814C167.723 57.751 167.725 57.8754 167.725 57.955V59.9482H167.288V56.5712Z" fill="#A58C65"/>
<path d="M171.625 59.576C171.712 59.6447 171.816 59.679 171.935 59.679C172.08 59.679 172.222 59.6453 172.358 59.578C172.588 59.4666 172.703 59.2833 172.703 59.0295V58.6966C172.652 58.729 172.587 58.7555 172.507 58.7776C172.428 58.7989 172.35 58.8145 172.273 58.8235L172.024 58.8559C171.874 58.8753 171.761 58.9071 171.685 58.9498C171.557 59.0217 171.494 59.1363 171.494 59.2937C171.494 59.4135 171.537 59.5074 171.625 59.576ZM172.496 58.4577C172.591 58.446 172.655 58.4059 172.687 58.3385C172.705 58.3016 172.714 58.2485 172.714 58.1792C172.714 58.038 172.664 57.9351 172.564 57.8716C172.464 57.8075 172.32 57.7758 172.134 57.7758C171.918 57.7758 171.765 57.8341 171.674 57.9513C171.625 58.016 171.592 58.1119 171.576 58.2401H171.19C171.198 57.9357 171.296 57.724 171.485 57.6048C171.674 57.4857 171.893 57.4261 172.143 57.4261C172.432 57.4261 172.667 57.4811 172.848 57.5919C173.027 57.702 173.117 57.8736 173.117 58.1067V59.5249C173.117 59.5682 173.125 59.6026 173.143 59.6291C173.161 59.655 173.198 59.668 173.255 59.668C173.273 59.668 173.293 59.6667 173.317 59.6641C173.339 59.6621 173.365 59.6583 173.391 59.6537V59.9594C173.326 59.9781 173.277 59.9898 173.243 59.9943C173.209 59.9989 173.163 60.0008 173.105 60.0008C172.962 60.0008 172.859 59.9503 172.795 59.8493C172.761 59.7955 172.737 59.7198 172.724 59.622C172.639 59.7321 172.518 59.8279 172.36 59.9095C172.203 59.9905 172.028 60.0312 171.838 60.0312C171.61 60.0312 171.423 59.962 171.279 59.8234C171.134 59.6842 171.061 59.5113 171.061 59.3034C171.061 59.0748 171.132 58.898 171.275 58.7724C171.418 58.6468 171.605 58.5697 171.836 58.5406L172.496 58.4577Z" fill="#A58C65"/>
<path d="M173.804 57.4862H174.198V57.8359C174.314 57.6915 174.438 57.5879 174.568 57.525C174.698 57.4622 174.843 57.4312 175.002 57.4312C175.352 57.4312 175.588 57.5529 175.71 57.7964C175.778 57.9298 175.812 58.1202 175.812 58.3688V59.9482H175.39V58.3967C175.39 58.2464 175.368 58.1253 175.324 58.0334C175.25 57.8799 175.117 57.8035 174.924 57.8035C174.826 57.8035 174.745 57.8132 174.683 57.8333C174.569 57.867 174.469 57.9343 174.384 58.0353C174.315 58.1169 174.27 58.2011 174.249 58.2872C174.229 58.374 174.218 58.4977 174.218 58.6589V59.9482H173.804V57.4862Z" fill="#A58C65"/>
<path d="M176.881 59.576C176.968 59.6447 177.072 59.679 177.191 59.679C177.337 59.679 177.478 59.6453 177.615 59.578C177.844 59.4666 177.959 59.2833 177.959 59.0295V58.6966C177.909 58.729 177.843 58.7555 177.764 58.7776C177.685 58.7989 177.606 58.8145 177.53 58.8235L177.28 58.8559C177.13 58.8753 177.018 58.9071 176.942 58.9498C176.814 59.0217 176.75 59.1363 176.75 59.2937C176.75 59.4135 176.794 59.5074 176.881 59.576ZM177.753 58.4577C177.847 58.446 177.911 58.4059 177.944 58.3385C177.962 58.3016 177.971 58.2485 177.971 58.1792C177.971 58.038 177.92 57.9351 177.82 57.8716C177.72 57.8075 177.576 57.7758 177.39 57.7758C177.174 57.7758 177.022 57.8341 176.931 57.9513C176.881 58.016 176.848 58.1119 176.832 58.2401H176.446C176.454 57.9357 176.552 57.724 176.741 57.6048C176.93 57.4857 177.15 57.4261 177.4 57.4261C177.689 57.4261 177.924 57.4811 178.104 57.5919C178.284 57.702 178.373 57.8736 178.373 58.1067V59.5249C178.373 59.5682 178.381 59.6026 178.4 59.6291C178.417 59.655 178.455 59.668 178.511 59.668C178.53 59.668 178.55 59.6667 178.573 59.6641C178.596 59.6621 178.621 59.6583 178.647 59.6537V59.9594C178.582 59.9781 178.534 59.9898 178.499 59.9943C178.466 59.9989 178.42 60.0008 178.361 60.0008C178.219 60.0008 178.115 59.9503 178.051 59.8493C178.017 59.7955 177.994 59.7198 177.98 59.622C177.895 59.7321 177.775 59.8279 177.617 59.9095C177.459 59.9905 177.284 60.0312 177.095 60.0312C176.867 60.0312 176.68 59.962 176.535 59.8234C176.39 59.6842 176.318 59.5113 176.318 59.3034C176.318 59.0748 176.389 58.898 176.531 58.7724C176.674 58.6468 176.861 58.5697 177.092 58.5406L177.753 58.4577Z" fill="#A58C65"/>
<path d="M180.481 58.0284C180.356 57.8808 180.196 57.8076 180.003 57.8076C179.712 57.8076 179.514 57.9442 179.408 58.2169C179.351 58.3626 179.323 58.5536 179.323 58.7893C179.323 59.0671 179.379 59.2776 179.491 59.4226C179.603 59.5677 179.754 59.6402 179.943 59.6402C180.238 59.6402 180.446 59.5062 180.567 59.2374C180.634 59.0859 180.668 58.9085 180.668 58.7064C180.668 58.4014 180.605 58.1754 180.481 58.0284ZM180.43 57.5842C180.508 57.6379 180.587 57.7163 180.668 57.8193V57.5084H181.05V59.7477C181.05 60.0605 181.004 60.3079 180.912 60.4885C180.741 60.822 180.418 60.9897 179.943 60.9897C179.679 60.9897 179.456 60.9302 179.276 60.811C179.095 60.6925 178.995 60.5067 178.974 60.2541H179.394C179.414 60.3642 179.454 60.449 179.513 60.5093C179.606 60.6012 179.753 60.6465 179.952 60.6465C180.268 60.6465 180.474 60.5352 180.572 60.3111C180.63 60.1796 180.656 59.9439 180.652 59.6059C180.569 59.7309 180.47 59.8248 180.354 59.8863C180.238 59.9472 180.085 59.9782 179.894 59.9782C179.628 59.9782 179.395 59.8831 179.196 59.694C178.997 59.5049 178.898 59.1915 178.898 58.755C178.898 58.3425 178.998 58.0207 179.199 57.7888C179.399 57.5576 179.642 57.4424 179.926 57.4424C180.118 57.4424 180.286 57.4896 180.43 57.5842Z" fill="#A58C65"/>
<path d="M183.357 58.52C183.341 58.3406 183.302 58.1969 183.241 58.09C183.129 57.8906 182.941 57.7915 182.678 57.7915C182.49 57.7915 182.332 57.8595 182.204 57.9968C182.076 58.1341 182.008 58.3083 182.001 58.52H183.357ZM183.209 57.5532C183.372 57.6354 183.497 57.741 183.582 57.8718C183.664 57.9955 183.719 58.1405 183.746 58.3057C183.771 58.4196 183.783 58.6003 183.783 58.8483H181.992C181.999 59.0996 182.058 59.3003 182.168 59.4512C182.277 59.6027 182.447 59.6785 182.676 59.6785C182.89 59.6785 183.062 59.6073 183.19 59.4642C183.261 59.3806 183.312 59.2848 183.342 59.1753H183.748C183.737 59.2654 183.702 59.3664 183.641 59.4778C183.581 59.5885 183.513 59.6798 183.439 59.7497C183.315 59.8728 183.159 59.955 182.975 59.9984C182.877 60.0224 182.765 60.0347 182.64 60.0347C182.335 60.0347 182.077 59.9233 181.865 59.7005C181.654 59.4778 181.548 59.165 181.548 58.7635C181.548 58.3685 181.655 58.0473 181.868 57.8006C182.081 57.5532 182.36 57.4302 182.704 57.4302C182.878 57.4302 183.046 57.471 183.209 57.5532Z" fill="#A58C65"/>
<path d="M184.317 57.4862H184.726V57.8359C184.824 57.7148 184.913 57.6261 184.993 57.571C185.129 57.4778 185.283 57.4312 185.457 57.4312C185.653 57.4312 185.811 57.4791 185.93 57.5756C185.998 57.6312 186.059 57.7122 186.114 57.8197C186.206 57.6876 186.314 57.5898 186.439 57.5263C186.563 57.4629 186.702 57.4312 186.857 57.4312C187.189 57.4312 187.413 57.5503 187.533 57.7893C187.597 57.9181 187.63 58.0917 187.63 58.3093V59.9482H187.2V58.238C187.2 58.0742 187.159 57.9609 187.077 57.9C186.995 57.8385 186.895 57.808 186.777 57.808C186.614 57.808 186.474 57.8624 186.356 57.9712C186.24 58.08 186.181 58.262 186.181 58.5158V59.9482H185.76V58.3416C185.76 58.1739 185.74 58.0528 185.701 57.9758C185.638 57.8611 185.52 57.8035 185.349 57.8035C185.193 57.8035 185.05 57.8637 184.923 57.9848C184.794 58.1059 184.73 58.3254 184.73 58.6427V59.9482H184.317V57.4862Z" fill="#A58C65"/>
<path d="M189.917 58.52C189.901 58.3406 189.862 58.1969 189.8 58.09C189.688 57.8906 189.501 57.7915 189.238 57.7915C189.049 57.7915 188.891 57.8595 188.764 57.9968C188.635 58.1341 188.568 58.3083 188.56 58.52H189.917ZM189.769 57.5532C189.932 57.6354 190.056 57.741 190.142 57.8718C190.224 57.9955 190.279 58.1405 190.306 58.3057C190.331 58.4196 190.342 58.6003 190.342 58.8483H188.552C188.559 59.0996 188.617 59.3003 188.727 59.4512C188.837 59.6027 189.007 59.6785 189.236 59.6785C189.45 59.6785 189.622 59.6073 189.749 59.4642C189.821 59.3806 189.872 59.2848 189.901 59.1753H190.308C190.297 59.2654 190.262 59.3664 190.201 59.4778C190.141 59.5885 190.073 59.6798 189.999 59.7497C189.874 59.8728 189.719 59.955 189.535 59.9984C189.437 60.0224 189.325 60.0347 189.2 60.0347C188.895 60.0347 188.637 59.9233 188.425 59.7005C188.213 59.4778 188.108 59.165 188.108 58.7635C188.108 58.3685 188.215 58.0473 188.428 57.8006C188.641 57.5532 188.92 57.4302 189.264 57.4302C189.438 57.4302 189.606 57.471 189.769 57.5532Z" fill="#A58C65"/>
<path d="M190.876 57.4862H191.269V57.8359C191.386 57.6915 191.51 57.5879 191.64 57.525C191.77 57.4622 191.915 57.4312 192.074 57.4312C192.424 57.4312 192.66 57.5529 192.782 57.7964C192.85 57.9298 192.884 58.1202 192.884 58.3688V59.9482H192.462V58.3967C192.462 58.2464 192.44 58.1253 192.396 58.0334C192.322 57.8799 192.189 57.8035 191.996 57.8035C191.898 57.8035 191.817 57.8132 191.755 57.8333C191.641 57.867 191.541 57.9343 191.456 58.0353C191.387 58.1169 191.342 58.2011 191.321 58.2872C191.301 58.374 191.29 58.4977 191.29 58.6589V59.9482H190.876V57.4862Z" fill="#A58C65"/>
<path d="M193.587 56.7982H194.006V57.4859H194.399V57.8233H194.006V59.4306C194.006 59.5167 194.034 59.5737 194.093 59.6028C194.125 59.6196 194.179 59.6281 194.254 59.6281C194.275 59.6281 194.296 59.6281 194.319 59.6268C194.341 59.6255 194.368 59.6229 194.399 59.619V59.948C194.352 59.9616 194.302 59.9713 194.251 59.9778C194.199 59.9836 194.144 59.9868 194.084 59.9868C193.891 59.9868 193.76 59.9376 193.69 59.8385C193.622 59.7394 193.587 59.6112 193.587 59.4539V57.8233H193.254V57.4859H193.587V56.7982Z" fill="#A58C65"/>
<path d="M151.291 62.6452C151.525 62.8706 151.655 63.1264 151.681 63.4132H151.234C151.185 63.1956 151.086 63.0227 150.937 62.8958C150.79 62.7683 150.581 62.7048 150.313 62.7048C149.986 62.7048 149.722 62.822 149.522 63.0558C149.321 63.2895 149.22 63.6483 149.22 64.1314C149.22 64.527 149.31 64.8482 149.492 65.0943C149.674 65.341 149.944 65.4641 150.304 65.4641C150.635 65.4641 150.888 65.3346 151.061 65.0749C151.153 64.9389 151.221 64.7595 151.266 64.5374H151.712C151.673 64.8929 151.543 65.1908 151.322 65.4317C151.056 65.7212 150.699 65.8662 150.249 65.8662C149.861 65.8662 149.535 65.7477 149.272 65.5094C148.925 65.1953 148.751 64.7097 148.751 64.053C148.751 63.555 148.881 63.1458 149.142 62.8272C149.424 62.4807 149.812 62.3072 150.308 62.3072C150.731 62.3072 151.059 62.4199 151.291 62.6452Z" fill="#A58C65"/>
<path d="M153.785 65.1961C153.885 64.9889 153.936 64.7577 153.936 64.5039C153.936 64.274 153.9 64.0875 153.826 63.9437C153.712 63.7171 153.513 63.6038 153.231 63.6038C152.981 63.6038 152.799 63.7002 152.686 63.8932C152.572 64.0862 152.515 64.3187 152.515 64.5913C152.515 64.8529 152.572 65.0711 152.686 65.2453C152.799 65.4202 152.98 65.507 153.227 65.507C153.498 65.507 153.684 65.4033 153.785 65.1961ZM154.041 63.5597C154.259 63.7708 154.368 64.0817 154.368 64.4922C154.368 64.8892 154.273 65.2169 154.08 65.4759C153.889 65.7343 153.591 65.8638 153.188 65.8638C152.852 65.8638 152.584 65.7492 152.387 65.5199C152.189 65.2913 152.09 64.9837 152.09 64.5978C152.09 64.1846 152.194 63.8557 152.402 63.6102C152.612 63.3655 152.891 63.2424 153.243 63.2424C153.558 63.2424 153.824 63.3486 154.041 63.5597Z" fill="#A58C65"/>
<path d="M155.334 65.4041C155.422 65.4728 155.525 65.5071 155.644 65.5071C155.79 65.5071 155.931 65.4734 156.068 65.4061C156.297 65.2947 156.412 65.1114 156.412 64.8576V64.5247C156.362 64.5571 156.297 64.5837 156.217 64.6057C156.138 64.6271 156.06 64.6426 155.983 64.6517L155.733 64.684C155.584 64.7035 155.471 64.7352 155.395 64.7779C155.267 64.8498 155.203 64.9644 155.203 65.1218C155.203 65.2416 155.247 65.3355 155.334 65.4041ZM156.206 64.2858C156.3 64.2741 156.365 64.234 156.397 64.1666C156.415 64.1297 156.424 64.0766 156.424 64.0073C156.424 63.8662 156.374 63.7632 156.273 63.6997C156.174 63.6356 156.03 63.6039 155.843 63.6039C155.628 63.6039 155.475 63.6622 155.384 63.7794C155.334 63.8441 155.301 63.94 155.286 64.0682H154.9C154.908 63.7638 155.005 63.5521 155.194 63.4329C155.383 63.3138 155.603 63.2542 155.853 63.2542C156.142 63.2542 156.377 63.3093 156.558 63.42C156.737 63.5301 156.826 63.7017 156.826 63.9348V65.353C156.826 65.3964 156.835 65.4307 156.853 65.4572C156.87 65.4831 156.908 65.4961 156.964 65.4961C156.983 65.4961 157.003 65.4948 157.026 65.4922C157.049 65.4903 157.074 65.4864 157.1 65.4818V65.7875C157.035 65.8063 156.987 65.8179 156.953 65.8225C156.919 65.827 156.873 65.8289 156.815 65.8289C156.672 65.8289 156.569 65.7784 156.504 65.6774C156.471 65.6237 156.447 65.5479 156.433 65.4501C156.348 65.5602 156.228 65.656 156.07 65.7376C155.913 65.8186 155.738 65.8594 155.548 65.8594C155.32 65.8594 155.133 65.7901 154.988 65.6515C154.843 65.5123 154.771 65.3394 154.771 65.1315C154.771 64.9029 154.842 64.7261 154.985 64.6005C155.128 64.4749 155.314 64.3978 155.545 64.3687L156.206 64.2858Z" fill="#A58C65"/>
<path d="M159.141 63.4447C159.315 63.5794 159.42 63.8119 159.454 64.1415H159.052C159.027 63.9893 158.972 63.8637 158.884 63.7633C158.797 63.6629 158.657 63.6124 158.463 63.6124C158.2 63.6124 158.011 63.7413 157.898 63.9984C157.825 64.1654 157.788 64.3714 157.788 64.6161C157.788 64.8622 157.84 65.0701 157.944 65.2385C158.048 65.4068 158.212 65.491 158.436 65.491C158.608 65.491 158.744 65.4386 158.844 65.3336C158.944 65.2294 159.014 65.0863 159.052 64.9043H159.454C159.409 65.2313 159.293 65.4696 159.11 65.6205C158.926 65.7721 158.691 65.8472 158.404 65.8472C158.082 65.8472 157.825 65.7293 157.634 65.4942C157.442 65.2592 157.346 64.9652 157.346 64.6129C157.346 64.1803 157.451 63.8442 157.662 63.6034C157.871 63.3631 158.139 63.2427 158.463 63.2427C158.741 63.2427 158.966 63.31 159.141 63.4447Z" fill="#A58C65"/>
<path d="M159.878 62.3872H160.292V63.6473C160.39 63.523 160.478 63.4356 160.556 63.3851C160.689 63.2976 160.856 63.2543 161.055 63.2543C161.412 63.2543 161.654 63.3792 161.781 63.6285C161.85 63.7652 161.885 63.9543 161.885 64.1965V65.7759H161.459V64.2243C161.459 64.0436 161.437 63.9109 161.391 63.8267C161.316 63.692 161.174 63.624 160.968 63.624C160.796 63.624 160.641 63.6829 160.501 63.8014C160.362 63.9193 160.292 64.1421 160.292 64.4704V65.7759H159.878V62.3872Z" fill="#A58C65"/>
<path d="M162.506 63.3258H162.926V65.7769H162.506V63.3258ZM162.506 62.3991H162.926V62.868H162.506V62.3991Z" fill="#A58C65"/>
<path d="M163.561 63.3143H163.954V63.664C164.071 63.5196 164.194 63.416 164.324 63.3532C164.455 63.2904 164.6 63.2593 164.759 63.2593C165.109 63.2593 165.344 63.381 165.467 63.6245C165.534 63.7579 165.568 63.9483 165.568 64.197V65.7764H165.147V64.2248C165.147 64.0746 165.125 63.9535 165.081 63.8615C165.007 63.708 164.874 63.6316 164.681 63.6316C164.582 63.6316 164.502 63.6413 164.439 63.6614C164.326 63.6951 164.226 63.7624 164.141 63.8635C164.071 63.945 164.027 64.0292 164.006 64.1154C163.985 64.2021 163.975 64.3258 163.975 64.4871V65.7764H163.561V63.3143Z" fill="#A58C65"/>
<path d="M167.609 63.8565C167.484 63.7089 167.325 63.6357 167.131 63.6357C166.84 63.6357 166.643 63.7724 166.536 64.045C166.48 64.1907 166.451 64.3817 166.451 64.6174C166.451 64.8952 166.507 65.1057 166.619 65.2508C166.732 65.3958 166.882 65.4683 167.071 65.4683C167.367 65.4683 167.575 65.3343 167.696 65.0656C167.762 64.914 167.796 64.7366 167.796 64.5346C167.796 64.2295 167.733 64.0035 167.609 63.8565ZM167.558 63.4123C167.636 63.4661 167.715 63.5444 167.796 63.6474V63.3366H168.178V65.5758C168.178 65.8886 168.132 66.136 168.04 66.3167C167.869 66.6502 167.546 66.8179 167.071 66.8179C166.807 66.8179 166.585 66.7583 166.404 66.6391C166.224 66.5206 166.123 66.3348 166.102 66.0822H166.522C166.542 66.1923 166.582 66.2772 166.641 66.3374C166.734 66.4293 166.881 66.4747 167.081 66.4747C167.396 66.4747 167.602 66.3633 167.7 66.1392C167.758 66.0078 167.784 65.7721 167.781 65.434C167.698 65.559 167.598 65.6529 167.483 65.7144C167.366 65.7753 167.213 65.8064 167.022 65.8064C166.757 65.8064 166.524 65.7112 166.325 65.5221C166.125 65.333 166.026 65.0196 166.026 64.5831C166.026 64.1706 166.126 63.8488 166.327 63.617C166.528 63.3858 166.77 63.2705 167.055 63.2705C167.246 63.2705 167.415 63.3178 167.558 63.4123Z" fill="#A58C65"/>
<path d="M171.473 63.4593C171.562 63.355 171.607 63.2398 171.607 63.1129C171.607 63.0131 171.574 62.9277 171.508 62.8558C171.443 62.7839 171.354 62.7476 171.244 62.7476C171.075 62.7476 170.957 62.8046 170.892 62.9179C170.858 62.9756 170.841 63.0397 170.841 63.1083C170.841 63.2016 170.867 63.2909 170.918 63.3764C170.97 63.4619 171.055 63.5733 171.175 63.7093C171.319 63.6069 171.418 63.5234 171.473 63.4593ZM171.505 65.3735C171.627 65.2952 171.721 65.2077 171.786 65.1112L171.027 64.18C170.812 64.3245 170.671 64.4345 170.606 64.5116C170.505 64.6262 170.455 64.7667 170.455 64.9319C170.455 65.1112 170.52 65.2492 170.65 65.3457C170.781 65.4428 170.92 65.4907 171.068 65.4907C171.238 65.4907 171.383 65.4519 171.505 65.3735ZM170.511 63.4839C170.463 63.3719 170.439 63.2637 170.439 63.1595C170.439 62.9419 170.512 62.7612 170.659 62.6181C170.806 62.4744 171.001 62.4031 171.247 62.4031C171.482 62.4031 171.664 62.4698 171.796 62.6032C171.927 62.736 171.993 62.8953 171.993 63.0811C171.993 63.2968 171.925 63.4865 171.789 63.6484C171.71 63.7436 171.577 63.853 171.391 63.9774L172.004 64.7136C172.045 64.5912 172.073 64.4993 172.089 64.4391C172.105 64.3782 172.121 64.294 172.137 64.1846H172.531C172.505 64.4009 172.453 64.6081 172.376 64.8069C172.297 65.005 172.259 65.0853 172.259 65.0465L172.857 65.7756H172.324L172.009 65.3891C171.884 65.5257 171.769 65.6254 171.665 65.6882C171.484 65.799 171.274 65.854 171.038 65.854C170.688 65.854 170.433 65.7595 170.274 65.5697C170.116 65.3806 170.036 65.1676 170.036 64.9299C170.036 64.6735 170.114 64.4598 170.268 64.2882C170.362 64.1839 170.54 64.0538 170.797 63.8977C170.655 63.7332 170.56 63.5953 170.511 63.4839Z" fill="#A58C65"/>
<path d="M174.647 62.3993H175.302L176.273 65.2544L177.238 62.3993H177.889V65.7764H177.451V63.7832C177.451 63.7145 177.453 63.5999 177.457 63.4406C177.459 63.2813 177.461 63.1103 177.461 62.9277L176.496 65.7764H176.043L175.07 62.9277V63.0313C175.07 63.1142 175.072 63.2405 175.077 63.4095C175.081 63.5792 175.084 63.7035 175.084 63.7832V65.7764H174.647V62.3993Z" fill="#A58C65"/>
<path d="M180.204 64.3481C180.187 64.1688 180.148 64.025 180.087 63.9182C179.975 63.7187 179.787 63.6196 179.524 63.6196C179.336 63.6196 179.178 63.6876 179.05 63.8249C178.922 63.9622 178.855 64.1364 178.847 64.3481H180.204ZM180.055 63.3813C180.218 63.4636 180.343 63.5691 180.428 63.6999C180.51 63.8236 180.566 63.9687 180.593 64.1338C180.617 64.2478 180.629 64.4284 180.629 64.6765H178.838C178.846 64.9277 178.904 65.1285 179.014 65.2793C179.123 65.4309 179.293 65.5066 179.522 65.5066C179.737 65.5066 179.908 65.4354 180.036 65.2923C180.108 65.2088 180.158 65.1129 180.188 65.0035H180.595C180.584 65.0935 180.548 65.1945 180.487 65.3059C180.428 65.4166 180.36 65.5079 180.285 65.5779C180.161 65.7009 180.005 65.7831 179.821 65.8265C179.723 65.8505 179.611 65.8628 179.487 65.8628C179.182 65.8628 178.923 65.7514 178.712 65.5286C178.5 65.3059 178.394 64.9931 178.394 64.5916C178.394 64.1966 178.501 63.8754 178.714 63.6287C178.927 63.3813 179.206 63.2583 179.55 63.2583C179.724 63.2583 179.893 63.2991 180.055 63.3813Z" fill="#A58C65"/>
<path d="M181.592 65.2358C181.703 65.4139 181.882 65.5026 182.127 65.5026C182.318 65.5026 182.474 65.4203 182.597 65.2552C182.72 65.0907 182.781 64.8544 182.781 64.5461C182.781 64.2353 182.718 64.0048 182.591 63.8552C182.465 63.7056 182.308 63.6311 182.123 63.6311C181.915 63.6311 181.747 63.7108 181.618 63.8701C181.489 64.0294 181.425 64.2644 181.425 64.574C181.425 64.8375 181.48 65.0584 181.592 65.2358ZM182.516 63.3896C182.589 63.4356 182.672 63.5165 182.765 63.6311V62.3871H183.163V65.7759H182.791V65.4339C182.694 65.5855 182.58 65.6949 182.449 65.7623C182.318 65.8296 182.168 65.8633 181.998 65.8633C181.725 65.8633 181.488 65.7487 181.288 65.5175C181.088 65.2869 180.988 64.98 180.988 64.5966C180.988 64.2379 181.079 63.9271 181.261 63.6648C181.444 63.4012 181.705 63.2704 182.044 63.2704C182.231 63.2704 182.389 63.3099 182.516 63.3896Z" fill="#A58C65"/>
<path d="M183.791 63.3258H184.211V65.7769H183.791V63.3258ZM183.791 62.3991H184.211V62.868H183.791V62.3991Z" fill="#A58C65"/>
<path d="M185.294 65.4041C185.382 65.4728 185.485 65.5071 185.605 65.5071C185.75 65.5071 185.891 65.4734 186.028 65.4061C186.257 65.2947 186.373 65.1114 186.373 64.8576V64.5247C186.322 64.5571 186.257 64.5837 186.177 64.6057C186.098 64.6271 186.02 64.6426 185.943 64.6517L185.693 64.684C185.544 64.7035 185.431 64.7352 185.355 64.7779C185.227 64.8498 185.164 64.9644 185.164 65.1218C185.164 65.2416 185.207 65.3355 185.294 65.4041ZM186.166 64.2858C186.261 64.2741 186.325 64.234 186.357 64.1666C186.375 64.1297 186.384 64.0766 186.384 64.0073C186.384 63.8662 186.334 63.7632 186.233 63.6997C186.134 63.6356 185.99 63.6039 185.803 63.6039C185.588 63.6039 185.435 63.6622 185.344 63.7794C185.294 63.8441 185.261 63.94 185.246 64.0682H184.86C184.868 63.7638 184.965 63.5521 185.155 63.4329C185.344 63.3138 185.563 63.2542 185.813 63.2542C186.102 63.2542 186.337 63.3093 186.518 63.42C186.697 63.5301 186.786 63.7017 186.786 63.9348V65.353C186.786 65.3964 186.795 65.4307 186.813 65.4572C186.83 65.4831 186.868 65.4961 186.924 65.4961C186.943 65.4961 186.963 65.4948 186.986 65.4922C187.009 65.4903 187.034 65.4864 187.06 65.4818V65.7875C186.996 65.8063 186.947 65.8179 186.913 65.8225C186.879 65.827 186.833 65.8289 186.775 65.8289C186.632 65.8289 186.529 65.7784 186.465 65.6774C186.431 65.6237 186.407 65.5479 186.393 65.4501C186.308 65.5602 186.188 65.656 186.03 65.7376C185.873 65.8186 185.698 65.8594 185.508 65.8594C185.28 65.8594 185.093 65.7901 184.949 65.6515C184.804 65.5123 184.731 65.3394 184.731 65.1315C184.731 64.9029 184.802 64.7261 184.945 64.6005C185.088 64.4749 185.274 64.3978 185.506 64.3687L186.166 64.2858Z" fill="#A58C65"/>
<path d="M187.557 62.6263H187.975V63.314H188.368V63.6514H187.975V65.2587C187.975 65.3448 188.004 65.4018 188.063 65.4309C188.094 65.4478 188.148 65.4562 188.223 65.4562C188.244 65.4562 188.265 65.4562 188.288 65.4549C188.311 65.4536 188.338 65.451 188.368 65.4471V65.7761C188.321 65.7897 188.272 65.7994 188.22 65.8059C188.168 65.8117 188.113 65.8149 188.054 65.8149C187.861 65.8149 187.729 65.7657 187.66 65.6666C187.591 65.5676 187.557 65.4394 187.557 65.282V63.6514H187.224V63.314H187.557V62.6263Z" fill="#A58C65"/>
<path d="M188.792 63.3258H189.212V65.7769H188.792V63.3258ZM188.792 62.3991H189.212V62.868H188.792V62.3991Z" fill="#A58C65"/>
<path d="M191.375 65.1961C191.475 64.9889 191.526 64.7577 191.526 64.5039C191.526 64.274 191.489 64.0875 191.416 63.9437C191.302 63.7171 191.103 63.6038 190.821 63.6038C190.571 63.6038 190.389 63.7002 190.276 63.8932C190.162 64.0862 190.105 64.3187 190.105 64.5913C190.105 64.8529 190.162 65.0711 190.276 65.2453C190.389 65.4202 190.57 65.507 190.817 65.507C191.088 65.507 191.274 65.4033 191.375 65.1961ZM191.631 63.5597C191.849 63.7708 191.958 64.0817 191.958 64.4922C191.958 64.8892 191.862 65.2169 191.67 65.4759C191.478 65.7343 191.181 65.8638 190.778 65.8638C190.442 65.8638 190.174 65.7492 189.977 65.5199C189.779 65.2913 189.679 64.9837 189.679 64.5978C189.679 64.1846 189.784 63.8557 189.992 63.6102C190.201 63.3655 190.481 63.2424 190.833 63.2424C191.147 63.2424 191.414 63.3486 191.631 63.5597Z" fill="#A58C65"/>
<path d="M192.476 63.3143H192.869V63.664C192.985 63.5196 193.109 63.416 193.239 63.3532C193.369 63.2904 193.514 63.2593 193.674 63.2593C194.023 63.2593 194.259 63.381 194.381 63.6245C194.449 63.7579 194.483 63.9483 194.483 64.197V65.7764H194.062V64.2248C194.062 64.0746 194.04 63.9535 193.996 63.8615C193.922 63.708 193.788 63.6316 193.595 63.6316C193.497 63.6316 193.417 63.6413 193.354 63.6614C193.24 63.6951 193.141 63.7624 193.055 63.8635C192.986 63.945 192.941 64.0292 192.921 64.1154C192.9 64.2021 192.89 64.3258 192.89 64.4871V65.7764H192.476V63.3143Z" fill="#A58C65"/>
<path d="M149.007 68.2269H149.468V71.604H149.007V68.2269Z" fill="#A58C65"/>
<path d="M150.166 69.1424H150.559V69.4921C150.675 69.3477 150.799 69.2441 150.929 69.1813C151.059 69.1185 151.204 69.0874 151.364 69.0874C151.713 69.0874 151.949 69.2091 152.071 69.4526C152.139 69.586 152.173 69.7764 152.173 70.0251V71.6045H151.752V70.0529C151.752 69.9027 151.73 69.7816 151.686 69.6896C151.612 69.5362 151.478 69.4598 151.285 69.4598C151.187 69.4598 151.107 69.4695 151.044 69.4895C150.93 69.5232 150.831 69.5906 150.745 69.6916C150.676 69.7732 150.631 69.8574 150.611 69.9435C150.59 70.0303 150.58 70.1539 150.58 70.3152V71.6045H150.166V69.1424Z" fill="#A58C65"/>
<path d="M152.998 69.1424L153.655 71.1473L154.34 69.1424H154.793L153.866 71.6045H153.425L152.517 69.1424H152.998Z" fill="#A58C65"/>
<path d="M156.827 70.1763C156.811 69.9969 156.772 69.8531 156.71 69.7463C156.598 69.5468 156.41 69.4477 156.147 69.4477C155.959 69.4477 155.801 69.5157 155.673 69.653C155.545 69.7903 155.478 69.9645 155.47 70.1763H156.827ZM156.678 69.2094C156.842 69.2917 156.966 69.3972 157.051 69.528C157.134 69.6517 157.189 69.7968 157.216 69.9619C157.24 70.0759 157.252 70.2566 157.252 70.5046H155.462C155.469 70.7558 155.527 70.9566 155.637 71.1075C155.747 71.259 155.916 71.3348 156.145 71.3348C156.36 71.3348 156.531 71.2635 156.659 71.1204C156.731 71.0369 156.781 70.941 156.811 70.8316H157.218C157.207 70.9216 157.171 71.0226 157.11 71.134C157.051 71.2447 156.983 71.3361 156.908 71.406C156.784 71.529 156.629 71.6113 156.445 71.6547C156.346 71.6786 156.234 71.6909 156.11 71.6909C155.805 71.6909 155.546 71.5795 155.335 71.3568C155.123 71.134 155.017 70.8212 155.017 70.4197C155.017 70.0247 155.124 69.7035 155.337 69.4568C155.55 69.2094 155.829 69.0864 156.173 69.0864C156.347 69.0864 156.516 69.1272 156.678 69.2094Z" fill="#A58C65"/>
<path d="M158.032 70.8318C158.045 70.9697 158.079 71.0753 158.138 71.1491C158.244 71.2825 158.428 71.3492 158.692 71.3492C158.848 71.3492 158.986 71.3155 159.104 71.2495C159.224 71.1828 159.283 71.0792 159.283 70.9399C159.283 70.8337 159.235 70.7534 159.14 70.6984C159.079 70.6647 158.959 70.6259 158.78 70.5812L158.447 70.4983C158.233 70.4465 158.075 70.3882 157.974 70.3235C157.794 70.2114 157.703 70.0573 157.703 69.8592C157.703 69.626 157.788 69.4376 157.958 69.2938C158.128 69.1494 158.357 69.0775 158.644 69.0775C159.02 69.0775 159.291 69.1863 159.457 69.4039C159.562 69.5418 159.612 69.6908 159.61 69.8501H159.218C159.21 69.7568 159.177 69.6727 159.117 69.5962C159.02 69.4881 158.851 69.4337 158.612 69.4337C158.451 69.4337 158.33 69.4635 158.248 69.5231C158.165 69.5826 158.124 69.6616 158.124 69.7594C158.124 69.8663 158.178 69.9518 158.287 70.0159C158.349 70.0541 158.441 70.0877 158.562 70.1169L158.842 70.1836C159.145 70.2555 159.347 70.3254 159.45 70.3927C159.611 70.4983 159.692 70.6647 159.692 70.8914C159.692 71.1109 159.608 71.3 159.439 71.4593C159.271 71.6186 159.015 71.6982 158.67 71.6982C158.299 71.6982 158.037 71.6154 157.882 71.4489C157.728 71.2825 157.645 71.0772 157.634 70.8318H158.032Z" fill="#A58C65"/>
<path d="M160.232 68.4544H160.65V69.1422H161.044V69.4795H160.65V71.0868C160.65 71.1729 160.679 71.2299 160.738 71.2591C160.77 71.2759 160.823 71.2843 160.898 71.2843C160.919 71.2843 160.941 71.2843 160.963 71.283C160.986 71.2817 161.013 71.2791 161.044 71.2752V71.6042C160.996 71.6178 160.947 71.6275 160.895 71.634C160.843 71.6398 160.788 71.6431 160.729 71.6431C160.536 71.6431 160.404 71.5939 160.335 71.4948C160.266 71.3957 160.232 71.2675 160.232 71.1101V69.4795H159.899V69.1422H160.232V68.4544Z" fill="#A58C65"/>
<path d="M161.467 69.1424H161.876V69.4921C161.974 69.371 162.064 69.2823 162.143 69.2273C162.279 69.134 162.434 69.0874 162.608 69.0874C162.803 69.0874 162.962 69.1353 163.081 69.2318C163.149 69.2875 163.21 69.3684 163.265 69.4759C163.357 69.3438 163.465 69.2461 163.589 69.1826C163.714 69.1191 163.853 69.0874 164.008 69.0874C164.339 69.0874 164.564 69.2066 164.684 69.4455C164.748 69.5744 164.78 69.7479 164.78 69.9655V71.6045H164.35V69.8943C164.35 69.7304 164.309 69.6171 164.227 69.5562C164.145 69.4947 164.045 69.4643 163.927 69.4643C163.765 69.4643 163.625 69.5187 163.507 69.6275C163.39 69.7363 163.332 69.9182 163.332 70.1721V71.6045H162.911V69.9979C162.911 69.8302 162.891 69.7091 162.851 69.632C162.788 69.5174 162.671 69.4598 162.499 69.4598C162.343 69.4598 162.201 69.52 162.073 69.6411C161.944 69.7622 161.881 69.9817 161.881 70.299V71.6045H161.467V69.1424Z" fill="#A58C65"/>
<path d="M167.068 70.1763C167.051 69.9969 167.013 69.8531 166.951 69.7463C166.839 69.5468 166.651 69.4477 166.388 69.4477C166.2 69.4477 166.042 69.5157 165.914 69.653C165.786 69.7903 165.719 69.9645 165.711 70.1763H167.068ZM166.919 69.2094C167.083 69.2917 167.207 69.3972 167.292 69.528C167.375 69.6517 167.43 69.7968 167.457 69.9619C167.481 70.0759 167.493 70.2566 167.493 70.5046H165.703C165.71 70.7558 165.768 70.9566 165.878 71.1075C165.988 71.259 166.157 71.3348 166.386 71.3348C166.601 71.3348 166.772 71.2635 166.9 71.1204C166.972 71.0369 167.022 70.941 167.052 70.8316H167.459C167.448 70.9216 167.412 71.0226 167.351 71.134C167.292 71.2447 167.224 71.3361 167.149 71.406C167.025 71.529 166.87 71.6113 166.686 71.6547C166.587 71.6786 166.475 71.6909 166.351 71.6909C166.046 71.6909 165.787 71.5795 165.576 71.3568C165.364 71.134 165.258 70.8212 165.258 70.4197C165.258 70.0247 165.365 69.7035 165.578 69.4568C165.791 69.2094 166.07 69.0864 166.414 69.0864C166.588 69.0864 166.757 69.1272 166.919 69.2094Z" fill="#A58C65"/>
<path d="M168.027 69.1424H168.42V69.4921C168.537 69.3477 168.66 69.2441 168.79 69.1813C168.921 69.1185 169.066 69.0874 169.225 69.0874C169.575 69.0874 169.81 69.2091 169.933 69.4526C170 69.586 170.034 69.7764 170.034 70.0251V71.6045H169.613V70.0529C169.613 69.9027 169.591 69.7816 169.547 69.6896C169.473 69.5362 169.34 69.4598 169.147 69.4598C169.048 69.4598 168.968 69.4695 168.905 69.4895C168.792 69.5232 168.692 69.5906 168.606 69.6916C168.537 69.7732 168.493 69.8574 168.472 69.9435C168.451 70.0303 168.441 70.1539 168.441 70.3152V71.6045H168.027V69.1424Z" fill="#A58C65"/>
<path d="M170.738 68.4544H171.156V69.1422H171.549V69.4795H171.156V71.0868C171.156 71.1729 171.185 71.2299 171.244 71.2591C171.275 71.2759 171.329 71.2843 171.404 71.2843C171.425 71.2843 171.446 71.2843 171.469 71.283C171.492 71.2817 171.519 71.2791 171.549 71.2752V71.6042C171.502 71.6178 171.453 71.6275 171.401 71.634C171.349 71.6398 171.294 71.6431 171.235 71.6431C171.042 71.6431 170.91 71.5939 170.841 71.4948C170.772 71.3957 170.738 71.2675 170.738 71.1101V69.4795H170.404V69.1422H170.738V68.4544Z" fill="#A58C65"/>
<path d="M172.219 70.8318C172.232 70.9697 172.266 71.0753 172.325 71.1491C172.431 71.2825 172.615 71.3492 172.879 71.3492C173.035 71.3492 173.173 71.3155 173.291 71.2495C173.411 71.1828 173.47 71.0792 173.47 70.9399C173.47 70.8337 173.422 70.7534 173.327 70.6984C173.266 70.6647 173.146 70.6259 172.967 70.5812L172.634 70.4983C172.42 70.4465 172.262 70.3882 172.161 70.3235C171.981 70.2114 171.89 70.0573 171.89 69.8592C171.89 69.626 171.975 69.4376 172.145 69.2938C172.315 69.1494 172.544 69.0775 172.831 69.0775C173.207 69.0775 173.478 69.1863 173.644 69.4039C173.749 69.5418 173.799 69.6908 173.797 69.8501H173.405C173.397 69.7568 173.364 69.6727 173.304 69.5962C173.207 69.4881 173.038 69.4337 172.799 69.4337C172.638 69.4337 172.517 69.4635 172.435 69.5231C172.352 69.5826 172.311 69.6616 172.311 69.7594C172.311 69.8663 172.365 69.9518 172.474 70.0159C172.536 70.0541 172.628 70.0877 172.749 70.1169L173.029 70.1836C173.332 70.2555 173.534 70.3254 173.637 70.3927C173.798 70.4983 173.879 70.6647 173.879 70.8914C173.879 71.1109 173.795 71.3 173.626 71.4593C173.458 71.6186 173.202 71.6982 172.857 71.6982C172.486 71.6982 172.224 71.6154 172.069 71.4489C171.915 71.2825 171.832 71.0772 171.821 70.8318H172.219Z" fill="#A58C65"/>
<path d="M149.007 74.0551H149.468V77.4321H149.007V74.0551Z" fill="#A58C65"/>
<path d="M150.166 74.9706H150.559V75.3203C150.675 75.1758 150.799 75.0722 150.929 75.0094C151.059 74.9466 151.204 74.9155 151.364 74.9155C151.713 74.9155 151.949 75.0373 152.071 75.2808C152.139 75.4142 152.173 75.6045 152.173 75.8532V77.4326H151.752V75.881C151.752 75.7308 151.73 75.6097 151.686 75.5178C151.612 75.3643 151.478 75.2879 151.285 75.2879C151.187 75.2879 151.107 75.2976 151.044 75.3177C150.93 75.3513 150.831 75.4187 150.745 75.5197C150.676 75.6013 150.631 75.6855 150.611 75.7716C150.59 75.8584 150.58 75.9821 150.58 76.1433V77.4326H150.166V74.9706Z" fill="#A58C65"/>
<path d="M153.223 76.892C153.334 77.0701 153.513 77.1588 153.758 77.1588C153.949 77.1588 154.105 77.0766 154.228 76.9115C154.351 76.747 154.412 76.5106 154.412 76.2024C154.412 75.8915 154.349 75.661 154.223 75.5114C154.096 75.3618 153.94 75.2874 153.754 75.2874C153.546 75.2874 153.378 75.367 153.249 75.5263C153.12 75.6856 153.056 75.9207 153.056 76.2302C153.056 76.4938 153.111 76.7146 153.223 76.892ZM154.147 75.0458C154.22 75.0918 154.303 75.1728 154.396 75.2874V74.0434H154.794V77.4321H154.422V77.0902C154.325 77.2417 154.212 77.3512 154.08 77.4185C153.949 77.4859 153.799 77.5195 153.629 77.5195C153.356 77.5195 153.119 77.4049 152.919 77.1737C152.72 76.9432 152.619 76.6363 152.619 76.2529C152.619 75.8941 152.71 75.5833 152.892 75.321C153.075 75.0575 153.336 74.9267 153.675 74.9267C153.862 74.9267 154.02 74.9662 154.147 75.0458Z" fill="#A58C65"/>
<path d="M155.836 74.9703V76.6047C155.836 76.7304 155.855 76.8333 155.894 76.913C155.966 77.06 156.099 77.1338 156.295 77.1338C156.576 77.1338 156.766 77.0049 156.869 76.7472C156.924 76.6093 156.951 76.4202 156.951 76.1793V74.9703H157.365V77.4323H156.974L156.979 77.069C156.926 77.1629 156.86 77.2413 156.782 77.306C156.628 77.4349 156.439 77.499 156.218 77.499C155.874 77.499 155.639 77.3818 155.515 77.1474C155.447 77.0218 155.413 76.854 155.413 76.6436V74.9703H155.836Z" fill="#A58C65"/>
<path d="M158.296 76.6599C158.309 76.7979 158.344 76.9034 158.402 76.9772C158.508 77.1106 158.693 77.1773 158.956 77.1773C159.112 77.1773 159.25 77.1437 159.369 77.0776C159.488 77.0109 159.547 76.9073 159.547 76.7681C159.547 76.6619 159.499 76.5816 159.404 76.5265C159.343 76.4929 159.224 76.454 159.044 76.4093L158.711 76.3264C158.497 76.2746 158.34 76.2163 158.239 76.1516C158.058 76.0396 157.967 75.8854 157.967 75.6873C157.967 75.4542 158.052 75.2657 158.223 75.122C158.392 74.9775 158.621 74.9057 158.908 74.9057C159.285 74.9057 159.555 75.0145 159.722 75.232C159.826 75.37 159.876 75.5189 159.874 75.6782H159.483C159.474 75.585 159.441 75.5008 159.382 75.4244C159.284 75.3162 159.116 75.2618 158.876 75.2618C158.715 75.2618 158.594 75.2916 158.512 75.3512C158.429 75.4108 158.388 75.4898 158.388 75.5876C158.388 75.6944 158.443 75.7799 158.551 75.844C158.613 75.8822 158.706 75.9159 158.827 75.945L159.106 76.0117C159.409 76.0836 159.612 76.1535 159.715 76.2209C159.876 76.3264 159.956 76.4929 159.956 76.7195C159.956 76.939 159.873 77.1281 159.704 77.2874C159.535 77.4467 159.279 77.5264 158.934 77.5264C158.563 77.5264 158.301 77.4435 158.147 77.2771C157.992 77.1106 157.909 76.9054 157.899 76.6599H158.296Z" fill="#A58C65"/>
<path d="M160.496 74.2826H160.915V74.9703H161.308V75.3077H160.915V76.9149C160.915 77.0011 160.943 77.058 161.002 77.0872C161.034 77.104 161.088 77.1124 161.163 77.1124C161.183 77.1124 161.205 77.1124 161.228 77.1111C161.25 77.1098 161.277 77.1073 161.308 77.1034V77.4323C161.261 77.4459 161.211 77.4556 161.16 77.4621C161.108 77.468 161.053 77.4712 160.993 77.4712C160.8 77.4712 160.669 77.422 160.599 77.3229C160.531 77.2238 160.496 77.0956 160.496 76.9382V75.3077H160.163V74.9703H160.496V74.2826Z" fill="#A58C65"/>
<path d="M161.743 74.9706H162.136V75.396C162.168 75.3131 162.247 75.2121 162.373 75.0936C162.499 74.9745 162.644 74.9155 162.808 74.9155C162.815 74.9155 162.828 74.9162 162.846 74.9175C162.865 74.9188 162.896 74.922 162.941 74.9272V75.3636C162.916 75.3591 162.894 75.3559 162.873 75.3546C162.852 75.3526 162.83 75.352 162.806 75.352C162.596 75.352 162.436 75.4193 162.324 75.5534C162.213 75.6874 162.157 75.8415 162.157 76.0164V77.4326H161.743V74.9706Z" fill="#A58C65"/>
<path d="M163.309 74.9821H163.729V77.4331H163.309V74.9821ZM163.309 74.0554H163.729V74.5242H163.309V74.0554Z" fill="#A58C65"/>
<path d="M164.813 77.0604C164.9 77.129 165.004 77.1633 165.123 77.1633C165.268 77.1633 165.41 77.1297 165.546 77.0623C165.775 76.9509 165.891 76.7677 165.891 76.5138V76.181C165.84 76.2134 165.775 76.2399 165.695 76.2619C165.616 76.2833 165.538 76.2988 165.461 76.3079L165.211 76.3403C165.062 76.3597 164.949 76.3914 164.873 76.4342C164.745 76.5061 164.682 76.6207 164.682 76.778C164.682 76.8978 164.725 76.9917 164.813 77.0604ZM165.684 75.942C165.779 75.9304 165.843 75.8902 165.875 75.8229C165.893 75.786 165.902 75.7329 165.902 75.6636C165.902 75.5224 165.852 75.4195 165.751 75.356C165.652 75.2919 165.508 75.2602 165.322 75.2602C165.106 75.2602 164.953 75.3184 164.862 75.4356C164.813 75.5004 164.78 75.5962 164.764 75.7245H164.378C164.386 75.4201 164.484 75.2083 164.673 75.0892C164.862 74.97 165.081 74.9105 165.331 74.9105C165.62 74.9105 165.855 74.9655 166.036 75.0762C166.215 75.1863 166.305 75.3579 166.305 75.5911V77.0092C166.305 77.0526 166.313 77.0869 166.331 77.1135C166.349 77.1394 166.386 77.1523 166.442 77.1523C166.461 77.1523 166.481 77.151 166.505 77.1485C166.527 77.1465 166.553 77.1426 166.578 77.1381V77.4437C166.514 77.4625 166.465 77.4742 166.431 77.4787C166.397 77.4832 166.351 77.4852 166.293 77.4852C166.15 77.4852 166.047 77.4347 165.983 77.3337C165.949 77.2799 165.925 77.2041 165.911 77.1064C165.827 77.2164 165.706 77.3123 165.548 77.3939C165.391 77.4748 165.216 77.5156 165.026 77.5156C164.798 77.5156 164.611 77.4463 164.467 77.3078C164.322 77.1685 164.249 76.9956 164.249 76.7878C164.249 76.5592 164.32 76.3824 164.463 76.2568C164.606 76.1311 164.792 76.0541 165.024 76.0249L165.684 75.942Z" fill="#A58C65"/>
<path d="M167.004 74.0551H167.418V77.4321H167.004V74.0551Z" fill="#A58C65"/>
<path d="M169.72 76.343C169.73 76.5346 169.774 76.6901 169.85 76.8099C169.997 77.0333 170.254 77.1453 170.624 77.1453C170.788 77.1453 170.939 77.1207 171.075 77.0715C171.338 76.9769 171.469 76.8066 171.469 76.5612C171.469 76.3773 171.413 76.2465 171.302 76.1681C171.19 76.0917 171.012 76.025 170.772 75.968L170.329 75.8644C170.039 75.7971 169.834 75.7226 169.714 75.6417C169.506 75.5005 169.403 75.29 169.403 75.009C169.403 74.7059 169.505 74.4566 169.709 74.2623C169.913 74.0674 170.202 73.9703 170.577 73.9703C170.921 73.9703 171.214 74.0558 171.455 74.2261C171.696 74.3977 171.816 74.6703 171.816 75.0465H171.387C171.365 74.8652 171.317 74.7266 171.245 74.6302C171.111 74.454 170.885 74.3653 170.564 74.3653C170.305 74.3653 170.119 74.4223 170.007 74.5356C169.894 74.6489 169.837 74.781 169.837 74.9313C169.837 75.097 169.904 75.2181 170.037 75.2946C170.125 75.3438 170.323 75.4046 170.632 75.4785L171.091 75.5866C171.312 75.6384 171.483 75.7096 171.604 75.8003C171.811 75.9583 171.916 76.1875 171.916 76.488C171.916 76.8617 171.783 77.1291 171.517 77.2897C171.252 77.451 170.944 77.5312 170.593 77.5312C170.183 77.5312 169.862 77.4238 169.63 77.2094C169.399 76.9964 169.285 76.7075 169.29 76.343H169.72Z" fill="#A58C65"/>
<path d="M174.185 76.0044C174.168 75.825 174.13 75.6812 174.068 75.5744C173.956 75.375 173.768 75.2759 173.505 75.2759C173.317 75.2759 173.159 75.3439 173.031 75.4812C172.903 75.6184 172.836 75.7926 172.828 76.0044H174.185ZM174.036 75.0376C174.199 75.1198 174.324 75.2254 174.409 75.3562C174.491 75.4799 174.547 75.6249 174.574 75.79C174.598 75.904 174.61 76.0847 174.61 76.3327H172.819C172.827 76.584 172.885 76.7847 172.995 76.9356C173.104 77.0871 173.274 77.1629 173.503 77.1629C173.718 77.1629 173.889 77.0916 174.017 76.9485C174.089 76.865 174.139 76.7692 174.169 76.6597H174.576C174.565 76.7497 174.529 76.8508 174.468 76.9621C174.409 77.0729 174.341 77.1642 174.266 77.2341C174.142 77.3572 173.986 77.4394 173.802 77.4828C173.704 77.5067 173.592 77.519 173.468 77.519C173.163 77.519 172.904 77.4077 172.693 77.1849C172.481 76.9621 172.375 76.6494 172.375 76.2479C172.375 75.8529 172.482 75.5317 172.695 75.2849C172.908 75.0376 173.187 74.9145 173.531 74.9145C173.705 74.9145 173.874 74.9553 174.036 75.0376Z" fill="#A58C65"/>
<path d="M175.155 74.9706H175.548V75.396C175.581 75.3131 175.659 75.2121 175.785 75.0936C175.911 74.9745 176.056 74.9155 176.22 74.9155C176.227 74.9155 176.24 74.9162 176.259 74.9175C176.277 74.9188 176.308 74.922 176.353 74.9272V75.3636C176.329 75.3591 176.306 75.3559 176.285 75.3546C176.264 75.3526 176.242 75.352 176.218 75.352C176.009 75.352 175.849 75.4193 175.737 75.5534C175.625 75.6874 175.569 75.8415 175.569 76.0164V77.4326H175.155V74.9706Z" fill="#A58C65"/>
<path d="M176.924 74.9706L177.581 76.9754L178.266 74.9706H178.719L177.792 77.4326H177.351L176.443 74.9706H176.924Z" fill="#A58C65"/>
<path d="M179.084 74.9821H179.504V77.4331H179.084V74.9821ZM179.084 74.0554H179.504V74.5242H179.084V74.0554Z" fill="#A58C65"/>
<path d="M181.766 75.1009C181.94 75.2356 182.045 75.4681 182.08 75.7977H181.678C181.653 75.6455 181.597 75.5199 181.51 75.4195C181.423 75.3192 181.283 75.2687 181.089 75.2687C180.825 75.2687 180.637 75.3975 180.524 75.6546C180.45 75.8217 180.414 76.0276 180.414 76.2724C180.414 76.5185 180.465 76.7263 180.57 76.8947C180.674 77.0631 180.838 77.1473 181.062 77.1473C181.233 77.1473 181.369 77.0948 181.47 76.9899C181.57 76.8856 181.639 76.7425 181.678 76.5606H182.08C182.034 76.8876 181.919 77.1259 181.735 77.2768C181.551 77.4283 181.316 77.5034 181.029 77.5034C180.707 77.5034 180.451 77.3856 180.259 77.1505C180.068 76.9154 179.972 76.6214 179.972 76.2692C179.972 75.8366 180.077 75.5005 180.287 75.2596C180.497 75.0194 180.764 74.8989 181.089 74.8989C181.367 74.8989 181.592 74.9663 181.766 75.1009Z" fill="#A58C65"/>
<path d="M184.172 76.0044C184.156 75.825 184.117 75.6812 184.056 75.5744C183.944 75.375 183.756 75.2759 183.493 75.2759C183.305 75.2759 183.147 75.3439 183.019 75.4812C182.891 75.6184 182.824 75.7926 182.816 76.0044H184.172ZM184.024 75.0376C184.187 75.1198 184.312 75.2254 184.397 75.3562C184.479 75.4799 184.534 75.6249 184.562 75.79C184.586 75.904 184.598 76.0847 184.598 76.3327H182.807C182.814 76.584 182.873 76.7847 182.983 76.9356C183.092 77.0871 183.262 77.1629 183.491 77.1629C183.706 77.1629 183.877 77.0916 184.005 76.9485C184.077 76.865 184.127 76.7692 184.157 76.6597H184.564C184.553 76.7497 184.517 76.8508 184.456 76.9621C184.396 77.0729 184.328 77.1642 184.254 77.2341C184.13 77.3572 183.974 77.4394 183.79 77.4828C183.692 77.5067 183.58 77.519 183.456 77.519C183.151 77.519 182.892 77.4077 182.68 77.1849C182.469 76.9621 182.363 76.6494 182.363 76.2479C182.363 75.8529 182.47 75.5317 182.683 75.2849C182.896 75.0376 183.175 74.9145 183.519 74.9145C183.693 74.9145 183.862 74.9553 184.024 75.0376Z" fill="#A58C65"/>
<path d="M185.378 76.6599C185.391 76.7979 185.425 76.9034 185.483 76.9772C185.59 77.1106 185.774 77.1773 186.038 77.1773C186.194 77.1773 186.332 77.1437 186.45 77.0776C186.569 77.0109 186.629 76.9073 186.629 76.7681C186.629 76.6619 186.58 76.5816 186.486 76.5265C186.425 76.4929 186.305 76.454 186.126 76.4093L185.792 76.3264C185.579 76.2746 185.421 76.2163 185.32 76.1516C185.14 76.0396 185.049 75.8854 185.049 75.6873C185.049 75.4542 185.134 75.2657 185.304 75.122C185.474 74.9775 185.703 74.9057 185.99 74.9057C186.366 74.9057 186.637 75.0145 186.803 75.232C186.907 75.37 186.958 75.5189 186.955 75.6782H186.564C186.556 75.585 186.523 75.5008 186.463 75.4244C186.365 75.3162 186.197 75.2618 185.957 75.2618C185.797 75.2618 185.676 75.2916 185.593 75.3512C185.511 75.4108 185.47 75.4898 185.47 75.5876C185.47 75.6944 185.524 75.7799 185.632 75.844C185.694 75.8822 185.787 75.9159 185.908 75.945L186.187 76.0117C186.49 76.0836 186.693 76.1535 186.796 76.2209C186.957 76.3264 187.038 76.4929 187.038 76.7195C187.038 76.939 186.954 77.1281 186.785 77.2874C186.617 77.4467 186.361 77.5264 186.016 77.5264C185.645 77.5264 185.382 77.4435 185.228 77.2771C185.073 77.1106 184.991 76.9054 184.98 76.6599H185.378Z" fill="#A58C65"/>
</svg>
