<svg width="273" height="105" viewBox="0 0 273 105" fill="none" xmlns="http://www.w3.org/2000/svg">
<path d="M54.0854 67.8842H55.1378L59.7961 78.9886H59.8296L64.4393 67.8842H65.4909V79.8076H64.7564V68.7861H64.7229L60.1809 79.8076H59.4456L54.8534 68.7861H54.8199V79.8076H54.0854V67.8842Z" fill="white"/>
<path d="M74.6755 75.3493L72.1205 68.6029H72.0871L69.4316 75.3493H74.6755ZM71.6863 67.8842H72.4878L77.1971 79.8076H76.4123L74.9089 75.9835H69.1982L67.6789 79.8076H66.8934L71.6863 67.8842Z" fill="white"/>
<path d="M78.5997 67.8842H79.5183L87.0503 78.8221H87.0829V67.8842H87.8183V79.8076H86.949L79.3677 68.7861H79.3342V79.8076H78.5997V67.8842Z" fill="white"/>
<path d="M97.0018 75.3493L94.4467 68.6029H94.4133L91.7579 75.3493H97.0018ZM94.0134 67.8842H94.8149L99.5241 79.8076H98.7386L97.236 75.9835H91.5245L90.0052 79.8076H89.2196L94.0134 67.8842Z" fill="white"/>
<path d="M100.192 73.9125C100.192 73.0658 100.317 72.2618 100.567 71.4988C100.818 70.7367 101.183 70.0657 101.661 69.4868C102.14 68.9087 102.727 68.4494 103.423 68.1089C104.118 67.7692 104.917 67.5994 105.82 67.5994C106.432 67.5994 107.016 67.6897 107.573 67.8663C108.129 68.0453 108.628 68.3072 109.067 68.6518C109.507 68.9974 109.878 69.4148 110.179 69.9042C110.479 70.3945 110.679 70.9508 110.779 71.5741H110.078C109.799 70.5275 109.299 69.7102 108.575 69.1195C107.85 68.5289 106.938 68.2344 105.836 68.2344C105.034 68.2344 104.328 68.39 103.715 68.7012C103.103 69.0141 102.591 69.4316 102.179 69.9544C101.767 70.4782 101.455 71.0814 101.244 71.7665C101.032 72.4509 100.927 73.1662 100.927 73.9125C100.927 74.6696 101.03 75.3849 101.235 76.0575C101.441 76.7318 101.747 77.3183 102.154 77.8203C102.56 78.3214 103.069 78.7188 103.682 79.0141C104.294 79.3086 105.013 79.4567 105.836 79.4567C106.549 79.4567 107.189 79.3395 107.757 79.1061C108.325 78.8719 108.806 78.5439 109.202 78.1206C109.596 77.6973 109.894 77.1878 110.094 76.5921C110.295 75.9973 110.379 75.3313 110.345 74.5968H105.953V73.9626H110.98V79.8072H110.345V77.2689H110.312C110.167 77.7031 109.95 78.0955 109.66 78.446C109.371 78.7966 109.028 79.0919 108.634 79.3312C108.238 79.5713 107.799 79.757 107.314 79.8909C106.83 80.0247 106.326 80.0908 105.802 80.0908C104.901 80.0908 104.102 79.9294 103.406 79.6073C102.71 79.2843 102.124 78.8451 101.644 78.2871C101.166 77.7307 100.804 77.0765 100.559 76.3252C100.314 75.5731 100.192 74.7691 100.192 73.9125Z" fill="white"/>
<path d="M113.551 67.8842H121.567V68.5192H114.286V73.2946H121.133V73.9296H114.286V79.1726H121.651V79.8076H113.551V67.8842Z" fill="white"/>
<path d="M123.454 67.8842H124.506L129.165 78.9886H129.199L133.808 67.8842H134.86V79.8076H134.126V68.7861H134.092L129.549 79.8076H128.815L124.223 68.7861H124.189V79.8076H123.454V67.8842Z" fill="white"/>
<path d="M137.514 67.8842H145.531V68.5192H138.25V73.2946H145.097V73.9296H138.25V79.1726H145.615V79.8076H137.514V67.8842Z" fill="white"/>
<path d="M147.417 67.8842H148.337L155.868 78.8221H155.901V67.8842H156.636V79.8076H155.767L148.186 68.7861H148.153V79.8076H147.417V67.8842Z" fill="white"/>
<path d="M158.005 68.5192V67.8842H167.14V68.5192H162.932V79.8076H162.197V68.5192H158.005Z" fill="white"/>
<path d="M63.6035 93.8856C63.6035 93.0172 63.7315 92.2015 63.9875 91.4393C64.2444 90.6763 64.6141 90.0137 65.0977 89.4515C65.5821 88.8893 66.1778 88.4476 66.8855 88.1238C67.5925 87.8017 68.3906 87.6394 69.2816 87.6394C69.9827 87.6394 70.5901 87.7323 71.1021 87.9155C71.6132 88.0996 72.0449 88.3271 72.3963 88.6007C72.7468 88.8734 73.033 89.1704 73.2555 89.4934C73.4789 89.8171 73.6487 90.12 73.765 90.4036C73.8821 90.688 73.9633 90.9332 74.0076 91.139C74.0511 91.3448 74.0745 91.4586 74.0745 91.4811H73.34C73.2613 90.9792 73.0999 90.5316 72.8556 90.1367C72.6105 89.7418 72.3034 89.4047 71.937 89.1269C71.5689 88.8483 71.1598 88.6367 70.7088 88.4919C70.2579 88.3472 69.7827 88.2744 69.2816 88.2744C68.5019 88.2744 67.8058 88.425 67.1942 88.7253C66.5818 89.0257 66.0632 89.4298 65.6415 89.9359C65.2182 90.4429 64.8952 91.0361 64.6719 91.7146C64.4493 92.3939 64.3381 93.1176 64.3381 93.8856C64.3381 94.6536 64.4493 95.3772 64.6719 96.0566C64.8952 96.7351 65.2182 97.3282 65.6415 97.8352C66.0632 98.3413 66.5818 98.7454 67.1942 99.0458C67.8058 99.3461 68.5019 99.4967 69.2816 99.4967C69.8605 99.4967 70.4027 99.3762 70.9096 99.137C71.4158 98.8977 71.8584 98.5806 72.2373 98.1857C72.6155 97.7909 72.9192 97.3341 73.1467 96.8162C73.376 96.2992 73.5065 95.7612 73.5399 95.2049H74.2745C74.2076 95.9177 74.0327 96.5744 73.7483 97.176C73.4646 97.7758 73.1024 98.297 72.6632 98.7371C72.2231 99.1763 71.7136 99.5185 71.1347 99.7636C70.5566 100.008 69.9383 100.131 69.2816 100.131C68.3906 100.131 67.5925 99.9694 66.8855 99.6473C66.1778 99.3244 65.5821 98.8818 65.0977 98.3196C64.6141 97.7574 64.2444 97.0948 63.9875 96.3318C63.7315 95.5697 63.6035 94.754 63.6035 93.8856Z" fill="white"/>
<path d="M76.5621 93.8856C76.5621 94.6536 76.6733 95.3772 76.8959 96.0566C77.1184 96.7351 77.4422 97.3282 77.8655 97.8352C78.288 98.3413 78.8058 98.7454 79.4174 99.0458C80.0306 99.3461 80.7259 99.4967 81.5048 99.4967C82.2845 99.4967 82.9772 99.3461 83.5846 99.0458C84.1911 98.7454 84.7056 98.3413 85.129 97.8352C85.5523 97.3282 85.8752 96.7351 86.0969 96.0566C86.3203 95.3772 86.4316 94.6536 86.4316 93.8856C86.4316 93.1176 86.3203 92.3939 86.0969 91.7146C85.8752 91.0361 85.5523 90.4429 85.129 89.9359C84.7056 89.4298 84.1911 89.0257 83.5846 88.7253C82.9772 88.425 82.2845 88.2744 81.5048 88.2744C80.7259 88.2744 80.0306 88.425 79.4174 88.7253C78.8058 89.0257 78.288 89.4298 77.8655 89.9359C77.4422 90.4429 77.1184 91.0361 76.8959 91.7146C76.6733 92.3939 76.5621 93.1176 76.5621 93.8856ZM87.1669 93.8856C87.1669 94.754 87.0381 95.5697 86.7821 96.3318C86.5261 97.0948 86.1563 97.7574 85.6719 98.3196C85.1875 98.8818 84.5952 99.3244 83.8933 99.6473C83.1922 99.9694 82.3957 100.131 81.5048 100.131C80.6146 100.131 79.8165 99.9694 79.1087 99.6473C78.4018 99.3244 77.8061 98.8818 77.3217 98.3196C76.8381 97.7574 76.4675 97.0948 76.2115 96.3318C75.9547 95.5697 75.8275 94.754 75.8275 93.8856C75.8275 93.0172 75.9547 92.2015 76.2115 91.4393C76.4675 90.6763 76.8381 90.0137 77.3217 89.4515C77.8061 88.8893 78.4018 88.4476 79.1087 88.1238C79.8165 87.8017 80.6146 87.6394 81.5048 87.6394C82.3957 87.6394 83.1922 87.8017 83.8933 88.1238C84.5952 88.4476 85.1875 88.8893 85.6719 89.4515C86.1563 90.0137 86.5261 90.6763 86.7821 91.4393C87.0381 92.2015 87.1669 93.0172 87.1669 93.8856Z" fill="white"/>
<path d="M89.2868 87.9243H90.2062L97.7374 98.8621H97.7709V87.9243H98.5054V99.8477H97.6362L90.0556 88.8261H90.0222V99.8477H89.2868V87.9243Z" fill="white"/>
<path d="M108.942 91.3306C108.92 90.8185 108.812 90.3726 108.616 89.9936C108.422 89.6155 108.158 89.2984 107.823 89.0424C107.49 88.7864 107.091 88.594 106.629 88.466C106.167 88.3388 105.664 88.2744 105.118 88.2744C104.784 88.2744 104.425 88.3137 104.041 88.3907C103.657 88.4693 103.3 88.6057 102.972 88.8006C102.644 88.9956 102.373 89.2566 102.162 89.5854C101.951 89.9142 101.845 90.3233 101.845 90.8127C101.845 91.2912 101.962 91.6811 102.196 91.9814C102.429 92.2826 102.736 92.5244 103.114 92.7076C103.493 92.8917 103.927 93.0397 104.417 93.151C104.907 93.2623 105.403 93.3677 105.903 93.4681C106.415 93.5685 106.914 93.6873 107.397 93.8262C107.882 93.9659 108.316 94.1558 108.701 94.3942C109.085 94.6343 109.393 94.9455 109.627 95.3296C109.861 95.7136 109.977 96.1954 109.977 96.7744C109.977 97.3977 109.844 97.9214 109.577 98.3439C109.31 98.7672 108.972 99.1127 108.567 99.3796C108.159 99.6465 107.709 99.8389 107.214 99.956C106.719 100.072 106.242 100.131 105.787 100.131C105.085 100.131 104.428 100.056 103.816 99.9058C103.203 99.7552 102.669 99.5101 102.213 99.1704C101.756 98.8316 101.396 98.3941 101.135 97.8603C100.873 97.3257 100.749 96.674 100.759 95.906H101.495C101.461 96.5627 101.555 97.1166 101.778 97.5675C102.001 98.0184 102.31 98.389 102.705 98.6777C103.1 98.968 103.565 99.1763 104.099 99.3043C104.634 99.4331 105.195 99.4967 105.787 99.4967C106.142 99.4967 106.523 99.4515 106.93 99.3629C107.336 99.2733 107.709 99.1227 108.049 98.9119C108.388 98.7011 108.672 98.4225 108.901 98.0761C109.129 97.7315 109.243 97.2981 109.243 96.7744C109.243 96.2732 109.126 95.8641 108.892 95.5471C108.658 95.2292 108.349 94.9732 107.965 94.7782C107.581 94.5841 107.147 94.4277 106.663 94.3114C106.178 94.1943 105.68 94.0855 105.168 93.986C104.667 93.8856 104.172 93.7684 103.682 93.6346C103.192 93.5016 102.757 93.3208 102.379 93.0916C102.001 92.8641 101.695 92.5687 101.461 92.2073C101.227 91.8451 101.111 91.3807 101.111 90.8127C101.111 90.2446 101.23 89.7577 101.469 89.352C101.709 88.9445 102.021 88.6166 102.405 88.3664C102.789 88.1155 103.22 87.9322 103.698 87.8151C104.178 87.698 104.651 87.6394 105.118 87.6394C105.741 87.6394 106.323 87.7097 106.863 87.8486C107.403 87.9875 107.876 88.205 108.283 88.4995C108.689 88.7948 109.014 89.1763 109.259 89.6431C109.505 90.1116 109.643 90.6738 109.677 91.3306H108.942Z" fill="white"/>
<path d="M112.967 87.9239V95.071C112.967 95.3045 112.978 95.5772 113 95.8892C113.022 96.2013 113.078 96.5209 113.167 96.8497C113.256 97.1785 113.381 97.5006 113.542 97.8185C113.704 98.1355 113.925 98.4192 114.202 98.6701C114.481 98.9211 114.823 99.1211 115.229 99.2708C115.636 99.4214 116.128 99.4967 116.707 99.4967C117.443 99.4967 118.057 99.3938 118.553 99.188C119.048 98.9822 119.449 98.686 119.755 98.302C120.06 97.918 120.28 97.4537 120.414 96.9082C120.549 96.3628 120.615 95.7504 120.615 95.071V87.9239H121.35V95.071C121.35 95.7838 121.275 96.4464 121.125 97.0588C120.974 97.6704 120.721 98.205 120.365 98.6618C120.008 99.1186 119.532 99.4775 118.937 99.7385C118.341 100 117.597 100.131 116.707 100.131C116.006 100.131 115.405 100.041 114.904 99.8631C114.403 99.6866 113.988 99.4549 113.659 99.1704C113.332 98.8868 113.072 98.5614 112.883 98.1933C112.694 97.8268 112.549 97.4571 112.449 97.0831C112.349 96.7108 112.287 96.3485 112.265 95.998C112.243 95.6466 112.231 95.3379 112.231 95.071V87.9239H112.967Z" fill="white"/>
<path d="M124.005 87.9243H124.74V99.2127H131.503V99.8477H124.005V87.9243Z" fill="white"/>
<path d="M129.817 88.5583V87.9233H138.952V88.5583H134.743V99.8467H134.009V88.5583H129.817Z" fill="white"/>
<path d="M140.32 87.9243H141.056V99.8477H140.32V87.9243Z" fill="white"/>
<path d="M143.71 87.9243H144.629L152.16 98.8621H152.194V87.9243H152.928V99.8477H152.059L144.479 88.8261H144.445V99.8477H143.71V87.9243Z" fill="white"/>
<path d="M155.149 93.9525C155.149 93.1058 155.274 92.3019 155.524 91.5389C155.775 90.7767 156.14 90.1058 156.619 89.5268C157.097 88.9487 157.684 88.4894 158.38 88.1489C159.076 87.8093 159.875 87.6394 160.777 87.6394C161.389 87.6394 161.973 87.7298 162.53 87.9063C163.086 88.0853 163.585 88.3472 164.024 88.6919C164.464 89.0374 164.835 89.4549 165.136 89.9443C165.436 90.4345 165.636 90.9909 165.736 91.6142H165.035C164.756 90.5676 164.256 89.7502 163.532 89.1595C162.808 88.5689 161.895 88.2744 160.793 88.2744C159.992 88.2744 159.285 88.43 158.672 88.7412C158.06 89.0541 157.548 89.4716 157.136 89.9945C156.725 90.5182 156.413 91.1214 156.201 91.8066C155.989 92.4909 155.884 93.2062 155.884 93.9525C155.884 94.7096 155.987 95.4249 156.193 96.0976C156.398 96.7719 156.705 97.3583 157.111 97.8603C157.517 98.3614 158.027 98.7588 158.639 99.0541C159.251 99.3486 159.97 99.4967 160.793 99.4967C161.506 99.4967 162.146 99.3796 162.714 99.1462C163.282 98.9119 163.763 98.584 164.159 98.1606C164.553 97.7373 164.852 97.2278 165.052 96.6322C165.252 96.0373 165.336 95.3714 165.303 94.6368H160.91V94.0027H165.938V99.8472H165.303V97.309H165.269C165.124 97.7432 164.907 98.1355 164.617 98.4861C164.328 98.8366 163.986 99.1319 163.591 99.3712C163.195 99.6113 162.756 99.7971 162.271 99.9309C161.787 100.065 161.283 100.131 160.76 100.131C159.859 100.131 159.06 99.9694 158.364 99.6473C157.668 99.3244 157.081 98.8851 156.602 98.3271C156.123 97.7708 155.761 97.1166 155.516 96.3653C155.272 95.6132 155.149 94.8092 155.149 93.9525Z" fill="white"/>
<path d="M53.8068 3.91349H58.9445L81.6952 58.1393H81.8575L104.364 3.91349H109.501V62.1357H105.913V8.31741H105.75L83.5701 62.1357H79.9827L57.5573 8.31741H57.395V62.1357H53.8068V3.91349Z" fill="white"/>
<path d="M114.801 33.0245C114.801 28.7837 115.425 24.8023 116.676 21.0785C117.926 17.3556 119.734 14.1196 122.1 11.3739C124.464 8.62978 127.371 6.46881 130.824 4.8918C134.276 3.31562 138.175 2.5267 142.526 2.5267C145.95 2.5267 148.912 2.97513 151.414 3.87197C153.913 4.76966 156.022 5.88486 157.733 7.21507C159.446 8.54863 160.845 10.0018 161.933 11.578C163.02 13.1558 163.849 14.6366 164.42 16.0229C164.991 17.4083 165.385 18.6055 165.602 19.6103C165.818 20.6167 165.929 21.1739 165.929 21.2818H162.341C161.96 18.8356 161.171 16.6479 159.976 14.7178C158.779 12.7894 157.285 11.1438 155.491 9.78431C153.697 8.42648 151.699 7.39243 149.498 6.68633C147.296 5.98023 144.972 5.6255 142.526 5.6255C138.72 5.6255 135.321 6.35921 132.333 7.82747C129.342 9.29488 126.814 11.2659 124.749 13.739C122.683 16.2128 121.106 19.1083 120.02 22.423C118.931 25.7401 118.388 29.2731 118.388 33.0245C118.388 36.775 118.931 40.3097 120.02 43.6252C121.106 46.9415 122.683 49.8362 124.749 52.3092C126.814 54.7839 129.342 56.7533 132.333 58.2207C135.321 59.689 138.72 60.4227 142.526 60.4227C145.352 60.4227 148.002 59.8396 150.477 58.6691C152.95 57.5012 155.111 55.9518 156.959 54.0218C158.807 52.0925 160.288 49.863 161.403 47.3347C162.516 44.8073 163.156 42.1846 163.319 39.4656H166.907C166.581 42.945 165.725 46.1526 164.338 49.0883C162.953 52.0239 161.184 54.5656 159.038 56.7123C156.89 58.8607 154.403 60.5323 151.577 61.7278C148.75 62.9225 145.733 63.5215 142.526 63.5215C138.175 63.5215 134.276 62.7326 130.824 61.1564C127.371 59.5802 124.464 57.4192 122.1 54.6743C119.734 51.9294 117.926 48.6942 116.676 44.9696C115.425 41.2476 114.801 37.2645 114.801 33.0245Z" fill="white"/>
<path d="M2.60939 3.91349H46.887V11.6605L12.965 53.3287H47.7027V62.1357H0V53.8182L33.9221 12.7197H2.60939V3.91349Z" fill="white"/>
<path d="M221.415 18.8327L223.319 11.7274L215.952 13.3705L217.294 14.7124L191.909 40.086V42.2461H194.755L219.894 17.3117L221.415 18.8327Z" fill="white"/>
<path d="M205.411 18.8327L207.315 11.7274L199.949 13.3705L201.291 14.7124L201.359 14.781L195.589 20.5519V6.20825H227.947V15.7799L231.627 12.5188V2.528H191.909V28.8076L203.958 17.3795L205.411 18.8327Z" fill="white"/>
<path d="M239.165 11.7274L231.799 13.3713L232.059 13.6315L233.263 14.8354L209.22 38.8787L209.221 38.8796L205.849 42.2461H231.627V25.4177L227.947 29.0159V38.5667H214.737L227.947 25.3566V25.3675L235.865 17.4381L237.118 18.6905L237.26 18.8327L239.165 11.7274Z" fill="white"/>
<path d="M180.588 105H179.649V0.154251H180.588V105Z" fill="white"/>
<path d="M192.357 50.6517H193.204L194.459 54.3403L195.705 50.6517H196.545V55.0146H195.981V52.4396C195.981 52.3509 195.983 52.2028 195.987 51.997C195.991 51.7912 195.993 51.5703 195.993 51.3344L194.747 55.0146H194.161L192.904 51.3344V51.4683C192.904 51.5753 192.907 51.7385 192.913 51.9568C192.919 52.176 192.922 52.3367 192.922 52.4396V55.0146H192.357V50.6517Z" fill="white"/>
<path d="M199.536 53.1691C199.515 52.9374 199.465 52.7517 199.386 52.6136C199.241 52.356 198.998 52.228 198.659 52.228C198.415 52.228 198.211 52.3158 198.046 52.4932C197.881 52.6705 197.794 52.8956 197.784 53.1691H199.536ZM199.345 51.9201C199.556 52.0263 199.716 52.1627 199.827 52.3317C199.933 52.4915 200.004 52.6789 200.039 52.8922C200.071 53.0395 200.086 53.2729 200.086 53.5933H197.773C197.782 53.9179 197.857 54.1773 198 54.3722C198.141 54.568 198.36 54.6658 198.656 54.6658C198.933 54.6658 199.155 54.5738 199.32 54.3889C199.413 54.281 199.478 54.1572 199.516 54.0158H200.042C200.027 54.1321 199.981 54.2626 199.903 54.4065C199.826 54.5496 199.738 54.6675 199.642 54.7579C199.481 54.9168 199.28 55.0231 199.043 55.0791C198.916 55.1101 198.771 55.126 198.61 55.126C198.216 55.126 197.882 54.9821 197.609 54.6943C197.335 54.4065 197.199 54.0024 197.199 53.4837C197.199 52.9734 197.337 52.5584 197.612 52.2397C197.887 51.9201 198.248 51.7611 198.692 51.7611C198.917 51.7611 199.135 51.8138 199.345 51.9201Z" fill="white"/>
<path d="M200.791 51.8339H201.298V52.3835C201.34 52.2764 201.441 52.1459 201.605 51.9928C201.767 51.8389 201.954 51.7627 202.166 51.7627C202.175 51.7627 202.193 51.7636 202.216 51.7653C202.24 51.7669 202.281 51.7711 202.338 51.7778V52.3417C202.306 52.3358 202.277 52.3316 202.25 52.33C202.224 52.3275 202.194 52.3266 202.163 52.3266C201.893 52.3266 201.687 52.4136 201.542 52.5868C201.398 52.76 201.325 52.9591 201.325 53.185V55.0146H200.791V51.8339Z" fill="white"/>
<path d="M204.648 52.5345C204.486 52.3438 204.28 52.2492 204.03 52.2492C203.655 52.2492 203.399 52.4258 203.261 52.778C203.189 52.9662 203.152 53.213 203.152 53.5175C203.152 53.8765 203.225 54.1484 203.369 54.3358C203.514 54.5232 203.709 54.6169 203.953 54.6169C204.335 54.6169 204.603 54.4437 204.76 54.0965C204.846 53.9007 204.889 53.6715 204.889 53.4105C204.889 53.0164 204.808 52.7244 204.648 52.5345ZM204.582 51.9606C204.683 52.0301 204.785 52.1313 204.889 52.2643V51.8627H205.383V54.7557C205.383 55.1598 205.324 55.4794 205.205 55.7128C204.984 56.1437 204.566 56.3604 203.953 56.3604C203.612 56.3604 203.324 56.2834 203.091 56.1294C202.858 55.9763 202.728 55.7362 202.701 55.41H203.244C203.27 55.5522 203.321 55.6618 203.398 55.7396C203.517 55.8584 203.707 55.9169 203.965 55.9169C204.372 55.9169 204.639 55.7731 204.766 55.4836C204.84 55.3138 204.874 55.0092 204.869 54.5725C204.762 54.734 204.633 54.8553 204.484 54.9348C204.334 55.0134 204.136 55.0536 203.89 55.0536C203.547 55.0536 203.245 54.9306 202.989 54.6863C202.731 54.442 202.603 54.0371 202.603 53.4732C202.603 52.9403 202.732 52.5245 202.992 52.225C203.25 51.9263 203.564 51.7774 203.931 51.7774C204.179 51.7774 204.397 51.8385 204.582 51.9606Z" fill="white"/>
<path d="M208.365 53.1691C208.344 52.9374 208.294 52.7517 208.214 52.6136C208.07 52.356 207.827 52.228 207.487 52.228C207.244 52.228 207.04 52.3158 206.875 52.4932C206.709 52.6705 206.622 52.8956 206.612 53.1691H208.365ZM208.173 51.9201C208.384 52.0263 208.545 52.1627 208.655 52.3317C208.762 52.4915 208.833 52.6789 208.868 52.8922C208.9 53.0395 208.915 53.2729 208.915 53.5933H206.601C206.611 53.9179 206.686 54.1773 206.828 54.3722C206.969 54.568 207.189 54.6658 207.485 54.6658C207.762 54.6658 207.983 54.5738 208.148 54.3889C208.241 54.281 208.306 54.1572 208.345 54.0158H208.87C208.856 54.1321 208.81 54.2626 208.731 54.4065C208.654 54.5496 208.567 54.6675 208.47 54.7579C208.31 54.9168 208.109 55.0231 207.871 55.0791C207.744 55.1101 207.599 55.126 207.439 55.126C207.045 55.126 206.711 54.9821 206.437 54.6943C206.164 54.4065 206.027 54.0024 206.027 53.4837C206.027 52.9734 206.166 52.5584 206.441 52.2397C206.716 51.9201 207.077 51.7611 207.521 51.7611C207.746 51.7611 207.963 51.8138 208.173 51.9201Z" fill="white"/>
<path d="M209.618 51.8339H210.126V52.3835C210.168 52.2764 210.269 52.1459 210.432 51.9928C210.595 51.8389 210.782 51.7627 210.994 51.7627C211.003 51.7627 211.02 51.7636 211.044 51.7653C211.067 51.7669 211.108 51.7711 211.166 51.7778V52.3417C211.134 52.3358 211.105 52.3316 211.078 52.33C211.051 52.3275 211.022 52.3266 210.991 52.3266C210.721 52.3266 210.514 52.4136 210.37 52.5868C210.226 52.76 210.153 52.9591 210.153 53.185V55.0146H209.618V51.8339Z" fill="white"/>
<path d="M211.959 54.0173C211.976 54.1955 212.02 54.3319 212.095 54.4273C212.233 54.5996 212.471 54.6858 212.811 54.6858C213.013 54.6858 213.191 54.6423 213.344 54.5569C213.498 54.4708 213.575 54.3369 213.575 54.157C213.575 54.0198 213.513 53.9161 213.39 53.845C213.312 53.8015 213.157 53.7513 212.925 53.6936L212.494 53.5865C212.218 53.5196 212.015 53.4443 211.884 53.3606C211.651 53.2159 211.534 53.0167 211.534 52.7607C211.534 52.4596 211.644 52.2161 211.864 52.0304C212.083 51.8438 212.379 51.751 212.75 51.751C213.236 51.751 213.585 51.8915 213.8 52.1726C213.935 52.3508 214 52.5432 213.997 52.749H213.492C213.481 52.6286 213.438 52.5198 213.361 52.4211C213.235 52.2814 213.017 52.2111 212.708 52.2111C212.5 52.2111 212.344 52.2496 212.238 52.3265C212.13 52.4035 212.078 52.5056 212.078 52.6319C212.078 52.7699 212.148 52.8804 212.288 52.9632C212.368 53.0126 212.488 53.0561 212.644 53.0937L213.005 53.1799C213.396 53.2727 213.658 53.3631 213.791 53.4501C213.999 53.5865 214.103 53.8015 214.103 54.0943C214.103 54.3779 213.995 54.6222 213.777 54.828C213.559 55.0338 213.229 55.1367 212.783 55.1367C212.304 55.1367 211.965 55.0296 211.766 54.8146C211.566 54.5996 211.459 54.3344 211.445 54.0173H211.959Z" fill="white"/>
<path d="M218.126 52.0214C218.241 51.8868 218.299 51.7378 218.299 51.5739C218.299 51.445 218.256 51.3346 218.172 51.2417C218.087 51.1489 217.973 51.102 217.83 51.102C217.611 51.102 217.459 51.1756 217.375 51.322C217.331 51.3965 217.309 51.4793 217.309 51.568C217.309 51.6885 217.343 51.8039 217.41 51.9144C217.476 52.0248 217.586 52.1687 217.741 52.3444C217.927 52.2122 218.055 52.1043 218.126 52.0214ZM218.168 54.4945C218.325 54.3932 218.447 54.2803 218.531 54.1556L217.549 52.9526C217.272 53.1392 217.09 53.2814 217.005 53.3809C216.876 53.529 216.811 53.7106 216.811 53.9239C216.811 54.1556 216.894 54.3338 217.063 54.4585C217.232 54.584 217.411 54.6459 217.603 54.6459C217.822 54.6459 218.009 54.5957 218.168 54.4945ZM216.883 52.0532C216.821 51.9085 216.79 51.7688 216.79 51.6341C216.79 51.353 216.885 51.1196 217.074 50.9347C217.264 50.749 217.517 50.6569 217.835 50.6569C218.137 50.6569 218.373 50.7431 218.543 50.9154C218.712 51.087 218.797 51.2928 218.797 51.5329C218.797 51.8115 218.71 52.0566 218.534 52.2657C218.432 52.3887 218.26 52.5301 218.02 52.6907L218.812 53.642C218.865 53.4838 218.901 53.365 218.922 53.2872C218.943 53.2086 218.963 53.0998 218.984 52.9585H219.493C219.459 53.2379 219.392 53.5056 219.292 53.7624C219.191 54.0184 219.141 54.1222 219.141 54.072L219.914 55.014H219.226L218.818 54.5145C218.657 54.6911 218.508 54.8199 218.374 54.9011C218.14 55.0441 217.869 55.1152 217.563 55.1152C217.112 55.1152 216.783 54.9931 216.577 54.748C216.372 54.5037 216.27 54.2284 216.27 53.9214C216.27 53.5901 216.37 53.314 216.57 53.0923C216.691 52.9576 216.92 52.7895 217.253 52.5878C217.069 52.3753 216.946 52.1971 216.883 52.0532Z" fill="white"/>
<path d="M224.148 53.2268L223.486 51.2993L222.782 53.2268H224.148ZM223.177 50.6517H223.846L225.428 55.0146H224.781L224.338 53.7079H222.613L222.141 55.0146H221.534L223.177 50.6517Z" fill="white"/>
<path d="M228.008 52.0026C228.233 52.1766 228.369 52.477 228.413 52.9028H227.894C227.862 52.7062 227.79 52.5439 227.677 52.4142C227.565 52.2846 227.383 52.2193 227.133 52.2193C226.793 52.2193 226.549 52.3858 226.403 52.7179C226.308 52.9338 226.26 53.1998 226.26 53.516C226.26 53.834 226.327 54.1025 226.462 54.32C226.597 54.5375 226.808 54.6463 227.098 54.6463C227.32 54.6463 227.495 54.5785 227.625 54.443C227.755 54.3083 227.844 54.1234 227.894 53.8883H228.413C228.354 54.3108 228.206 54.6187 227.968 54.8136C227.73 55.0094 227.427 55.1064 227.056 55.1064C226.64 55.1064 226.309 54.9542 226.061 54.6505C225.814 54.3468 225.69 53.967 225.69 53.5119C225.69 52.953 225.825 52.5188 226.097 52.2076C226.368 51.8972 226.714 51.7416 227.133 51.7416C227.492 51.7416 227.783 51.8286 228.008 52.0026Z" fill="white"/>
<path d="M229.418 54.159C229.554 54.4903 229.798 54.6552 230.15 54.6552C230.522 54.6552 230.778 54.4811 230.918 54.1323C230.995 53.9399 231.035 53.6947 231.035 53.3952C231.035 53.1208 230.991 52.8907 230.906 52.7067C230.762 52.3921 230.508 52.234 230.144 52.234C229.914 52.234 229.714 52.3344 229.55 52.536C229.385 52.7368 229.302 53.0472 229.302 53.4672C229.302 53.7424 229.34 53.9725 229.418 54.159ZM230.755 51.9613C230.854 52.0324 230.948 52.137 231.04 52.2758V51.8333H231.545V56.2832H231.009V54.6493C230.921 54.7915 230.798 54.9053 230.641 54.989C230.483 55.0735 230.287 55.1153 230.052 55.1153C229.714 55.1153 229.411 54.9831 229.145 54.7171C228.878 54.4519 228.743 54.0486 228.743 53.5057C228.743 52.997 228.869 52.5787 229.12 52.2524C229.369 51.9253 229.693 51.7622 230.091 51.7622C230.354 51.7622 230.575 51.8283 230.755 51.9613Z" fill="white"/>
<path d="M232.89 51.8336V53.9452C232.89 54.1075 232.916 54.2406 232.966 54.3435C233.059 54.5334 233.231 54.6287 233.484 54.6287C233.847 54.6287 234.093 54.4623 234.225 54.1293C234.296 53.9511 234.332 53.7068 234.332 53.3956V51.8336H234.866V55.0144H234.361L234.367 54.5451C234.299 54.6664 234.214 54.7676 234.114 54.8513C233.914 55.0178 233.67 55.1006 233.385 55.1006C232.94 55.1006 232.636 54.9492 232.476 54.6463C232.388 54.484 232.344 54.2673 232.344 53.9954V51.8336H232.89Z" fill="white"/>
<path d="M235.751 51.8491H236.294V55.0156H235.751V51.8491ZM235.751 50.6519H236.294V51.2576H235.751V50.6519Z" fill="white"/>
<path d="M237.432 54.0173C237.449 54.1955 237.493 54.3319 237.569 54.4273C237.706 54.5996 237.944 54.6858 238.285 54.6858C238.486 54.6858 238.665 54.6423 238.818 54.5569C238.972 54.4708 239.049 54.3369 239.049 54.157C239.049 54.0198 238.986 53.9161 238.864 53.845C238.785 53.8015 238.63 53.7513 238.398 53.6936L237.968 53.5865C237.692 53.5196 237.488 53.4443 237.358 53.3606C237.124 53.2159 237.007 53.0167 237.007 52.7607C237.007 52.4596 237.117 52.2161 237.337 52.0304C237.556 51.8438 237.852 51.751 238.223 51.751C238.709 51.751 239.059 51.8915 239.274 52.1726C239.408 52.3508 239.474 52.5432 239.47 52.749H238.965C238.954 52.6286 238.911 52.5198 238.834 52.4211C238.708 52.2814 238.491 52.2111 238.181 52.2111C237.973 52.2111 237.817 52.2496 237.711 52.3265C237.604 52.4035 237.551 52.5056 237.551 52.6319C237.551 52.7699 237.621 52.8804 237.761 52.9632C237.841 53.0126 237.961 53.0561 238.117 53.0937L238.478 53.1799C238.869 53.2727 239.131 53.3631 239.264 53.4501C239.473 53.5865 239.576 53.8015 239.576 54.0943C239.576 54.3779 239.469 54.6222 239.25 54.828C239.033 55.0338 238.702 55.1367 238.256 55.1367C237.777 55.1367 237.438 55.0296 237.239 54.8146C237.039 54.5996 236.932 54.3344 236.919 54.0173H237.432Z" fill="white"/>
<path d="M240.169 51.8491H240.712V55.0156H240.169V51.8491ZM240.169 50.6519H240.712V51.2576H240.169V50.6519Z" fill="white"/>
<path d="M241.639 50.945H242.179V51.8335H242.687V52.2693H242.179V54.3458C242.179 54.4571 242.216 54.5307 242.292 54.5683C242.333 54.5901 242.403 54.601 242.5 54.601C242.527 54.601 242.554 54.601 242.584 54.5993C242.613 54.5976 242.648 54.5943 242.687 54.5893V55.0143C242.626 55.0318 242.563 55.0444 242.496 55.0527C242.429 55.0603 242.358 55.0645 242.281 55.0645C242.031 55.0645 241.862 55.0009 241.772 54.8729C241.683 54.7449 241.639 54.5792 241.639 54.3759V52.2693H241.208V51.8335H241.639V50.945Z" fill="white"/>
<path d="M243.235 51.8491H243.778V55.0156H243.235V51.8491ZM243.235 50.6519H243.778V51.2576H243.235V50.6519Z" fill="white"/>
<path d="M246.571 54.2654C246.701 53.9977 246.766 53.699 246.766 53.371C246.766 53.0741 246.719 52.8331 246.625 52.6474C246.477 52.3546 246.22 52.2082 245.856 52.2082C245.533 52.2082 245.298 52.3328 245.151 52.5821C245.004 52.8314 244.931 53.1318 244.931 53.484C244.931 53.822 245.004 54.1039 245.151 54.329C245.298 54.5549 245.531 54.667 245.85 54.667C246.201 54.667 246.441 54.5331 246.571 54.2654ZM246.903 52.1513C247.184 52.424 247.324 52.8256 247.324 53.356C247.324 53.8688 247.201 54.2922 246.953 54.6268C246.705 54.9606 246.321 55.1279 245.8 55.1279C245.366 55.1279 245.02 54.9798 244.765 54.6837C244.509 54.3884 244.381 53.991 244.381 53.4924C244.381 52.9586 244.516 52.5336 244.785 52.2165C245.055 51.9003 245.417 51.7413 245.871 51.7413C246.278 51.7413 246.622 51.8785 246.903 52.1513Z" fill="white"/>
<path d="M247.994 51.8339H248.501V52.2856C248.652 52.0991 248.812 51.9652 248.98 51.8841C249.148 51.8029 249.336 51.7627 249.541 51.7627C249.993 51.7627 250.298 51.92 250.456 52.2346C250.543 52.4069 250.587 52.6529 250.587 52.9742V55.0146H250.043V53.0101C250.043 52.816 250.014 52.6596 249.957 52.5408C249.862 52.3425 249.689 52.2438 249.44 52.2438C249.313 52.2438 249.209 52.2563 249.128 52.2823C248.982 52.3258 248.853 52.4128 248.742 52.5433C248.653 52.6487 248.595 52.7575 248.568 52.8687C248.542 52.9808 248.528 53.1406 248.528 53.349V55.0146H247.994V51.8339Z" fill="white"/>
<path d="M251.707 54.0173C251.724 54.1955 251.768 54.3319 251.843 54.4273C251.98 54.5996 252.219 54.6858 252.559 54.6858C252.761 54.6858 252.939 54.6423 253.092 54.5569C253.246 54.4708 253.323 54.3369 253.323 54.157C253.323 54.0198 253.261 53.9161 253.138 53.845C253.06 53.8015 252.905 53.7513 252.673 53.6936L252.242 53.5865C251.966 53.5196 251.763 53.4443 251.632 53.3606C251.399 53.2159 251.282 53.0167 251.282 52.7607C251.282 52.4596 251.392 52.2161 251.612 52.0304C251.831 51.8438 252.127 51.751 252.498 51.751C252.984 51.751 253.333 51.8915 253.548 52.1726C253.683 52.3508 253.748 52.5432 253.745 52.749H253.24C253.229 52.6286 253.186 52.5198 253.109 52.4211C252.983 52.2814 252.765 52.2111 252.456 52.2111C252.248 52.2111 252.092 52.2496 251.986 52.3265C251.878 52.4035 251.826 52.5056 251.826 52.6319C251.826 52.7699 251.896 52.8804 252.036 52.9632C252.116 53.0126 252.236 53.0561 252.392 53.0937L252.753 53.1799C253.144 53.2727 253.406 53.3631 253.539 53.4501C253.747 53.5865 253.851 53.8015 253.851 54.0943C253.851 54.3779 253.743 54.6222 253.525 54.828C253.307 55.0338 252.977 55.1367 252.531 55.1367C252.052 55.1367 251.713 55.0296 251.514 54.8146C251.314 54.5996 251.207 54.3344 251.193 54.0173H251.707Z" fill="white"/>
<path d="M257.553 50.5795C257.242 51.1835 257.04 51.6277 256.946 51.913C256.806 52.3472 256.735 52.8475 256.735 53.4164C256.735 53.9903 256.816 54.5149 256.977 54.9901C257.076 55.2837 257.271 55.7054 257.562 56.2559H257.202C256.913 55.8041 256.734 55.5163 256.664 55.3908C256.595 55.267 256.52 55.0972 256.439 54.8838C256.328 54.5902 256.251 54.2773 256.207 53.9443C256.186 53.7728 256.175 53.608 256.175 53.4515C256.175 52.8659 256.267 52.3439 256.451 51.8862C256.567 51.5951 256.811 51.1601 257.182 50.5795H257.553Z" fill="white"/>
<path d="M258.239 50.6517H259.086L260.34 54.3403L261.586 50.6517H262.427V55.0146H261.862V52.4396C261.862 52.3509 261.865 52.2028 261.869 51.997C261.872 51.7912 261.875 51.5703 261.875 51.3344L260.628 55.0146H260.043L258.785 51.3344V51.4683C258.785 51.5753 258.789 51.7385 258.794 51.9568C258.8 52.176 258.804 52.3367 258.804 52.4396V55.0146H258.239V50.6517Z" fill="white"/>
<path d="M264.99 52.0214C265.105 51.8868 265.163 51.7378 265.163 51.5739C265.163 51.445 265.12 51.3346 265.036 51.2417C264.951 51.1489 264.837 51.102 264.694 51.102C264.475 51.102 264.323 51.1756 264.239 51.322C264.195 51.3965 264.173 51.4793 264.173 51.568C264.173 51.6885 264.207 51.8039 264.274 51.9144C264.34 52.0248 264.45 52.1687 264.605 52.3444C264.791 52.2122 264.919 52.1043 264.99 52.0214ZM265.032 54.4945C265.189 54.3932 265.311 54.2803 265.395 54.1556L264.413 52.9526C264.136 53.1392 263.954 53.2814 263.87 53.3809C263.74 53.529 263.675 53.7106 263.675 53.9239C263.675 54.1556 263.758 54.3338 263.927 54.4585C264.096 54.584 264.275 54.6459 264.467 54.6459C264.686 54.6459 264.873 54.5957 265.032 54.4945ZM263.747 52.0532C263.685 51.9085 263.654 51.7688 263.654 51.6341C263.654 51.353 263.749 51.1196 263.938 50.9347C264.128 50.749 264.381 50.6569 264.699 50.6569C265.001 50.6569 265.237 50.7431 265.407 50.9154C265.576 51.087 265.662 51.2928 265.662 51.5329C265.662 51.8115 265.574 52.0566 265.398 52.2657C265.296 52.3887 265.124 52.5301 264.884 52.6907L265.676 53.642C265.729 53.4838 265.765 53.365 265.786 53.2872C265.807 53.2086 265.827 53.0998 265.848 52.9585H266.357C266.323 53.2379 266.256 53.5056 266.156 53.7624C266.055 54.0184 266.005 54.1222 266.005 54.072L266.778 55.014H266.09L265.682 54.5145C265.521 54.6911 265.372 54.8199 265.238 54.9011C265.004 55.0441 264.733 55.1152 264.428 55.1152C263.976 55.1152 263.647 54.9931 263.441 54.748C263.236 54.5037 263.134 54.2284 263.134 53.9214C263.134 53.5901 263.234 53.314 263.434 53.0923C263.555 52.9576 263.784 52.7895 264.117 52.5878C263.933 52.3753 263.81 52.1971 263.747 52.0532Z" fill="white"/>
<path d="M269.642 53.2268L268.98 51.2993L268.275 53.2268H269.642ZM268.671 50.6517H269.34L270.922 55.0146H270.275L269.832 53.7079H268.106L267.635 55.0146H267.028L268.671 50.6517Z" fill="white"/>
<path d="M271.219 56.2559C271.534 55.6426 271.737 55.1942 271.828 54.9139C271.967 54.4881 272.037 53.9886 272.037 53.4164C272.037 52.8442 271.956 52.3204 271.795 51.8452C271.696 51.5516 271.502 51.1308 271.21 50.5795H271.57C271.874 51.0672 272.059 51.3675 272.124 51.4813C272.188 51.5951 272.258 51.7524 272.333 51.9523C272.428 52.2 272.496 52.4443 272.536 52.6852C272.577 52.927 272.597 53.1596 272.597 53.3838C272.597 53.9702 272.504 54.4931 272.318 54.9516C272.202 55.2469 271.959 55.6811 271.591 56.2559H271.219Z" fill="white"/>
<path d="M192.429 58.181H195.455V58.7156H193.02V60.04H195.162V60.5603H193.02V62.5439H192.429V58.181Z" fill="white"/>
<path d="M196.029 59.3784H196.572V62.5449H196.029V59.3784ZM196.029 58.1812H196.572V58.7869H196.029V58.1812Z" fill="white"/>
<path d="M197.393 59.3632H197.9V59.8149C198.051 59.6284 198.211 59.4945 198.379 59.4133C198.547 59.3322 198.735 59.292 198.94 59.292C199.392 59.292 199.697 59.4493 199.855 59.7639C199.942 59.9362 199.986 60.1822 199.986 60.5035V62.5439H199.441V60.5394C199.441 60.3453 199.413 60.1889 199.356 60.0701C199.261 59.8718 199.088 59.7731 198.839 59.7731C198.712 59.7731 198.608 59.7856 198.527 59.8116C198.381 59.8551 198.252 59.9421 198.141 60.0726C198.052 60.178 197.994 60.2868 197.967 60.398C197.941 60.5101 197.927 60.6699 197.927 60.8783V62.5439H197.393V59.3632Z" fill="white"/>
<path d="M201.367 62.0632C201.48 62.1519 201.614 62.1963 201.768 62.1963C201.956 62.1963 202.139 62.1527 202.315 62.0657C202.611 61.9218 202.76 61.6851 202.76 61.3571V60.9271C202.695 60.9689 202.61 61.0032 202.507 61.0317C202.405 61.0593 202.304 61.0794 202.205 61.0911L201.883 61.1329C201.689 61.158 201.544 61.199 201.446 61.2542C201.28 61.3471 201.198 61.4952 201.198 61.6985C201.198 61.8532 201.254 61.9745 201.367 62.0632ZM202.493 60.6184C202.615 60.6033 202.698 60.5515 202.74 60.4645C202.763 60.4168 202.775 60.3482 202.775 60.2587C202.775 60.0763 202.71 59.9433 202.58 59.8613C202.451 59.7784 202.266 59.7375 202.025 59.7375C201.746 59.7375 201.549 59.8127 201.432 59.9642C201.367 60.0478 201.325 60.1717 201.304 60.3373H200.806C200.816 59.9441 200.942 59.6705 201.186 59.5166C201.431 59.3627 201.714 59.2857 202.037 59.2857C202.41 59.2857 202.714 59.3568 202.948 59.4999C203.179 59.6421 203.295 59.8638 203.295 60.165V61.9971C203.295 62.0532 203.306 62.0975 203.329 62.1318C203.352 62.1653 203.4 62.182 203.473 62.182C203.497 62.182 203.523 62.1804 203.553 62.177C203.583 62.1745 203.615 62.1695 203.649 62.1636V62.5585C203.565 62.5828 203.502 62.5978 203.458 62.6037C203.414 62.6095 203.355 62.612 203.28 62.612C203.096 62.612 202.962 62.5468 202.879 62.4163C202.835 62.3468 202.804 62.249 202.787 62.1226C202.677 62.2649 202.522 62.3887 202.318 62.4941C202.114 62.5987 201.888 62.6514 201.643 62.6514C201.349 62.6514 201.107 62.5618 200.92 62.3828C200.733 62.2029 200.639 61.9796 200.639 61.711C200.639 61.4157 200.731 61.1873 200.915 61.025C201.1 60.8627 201.341 60.7631 201.64 60.7255L202.493 60.6184Z" fill="white"/>
<path d="M204.183 59.3632H204.691V59.8149C204.842 59.6284 205.002 59.4945 205.17 59.4133C205.338 59.3322 205.525 59.292 205.731 59.292C206.183 59.292 206.487 59.4493 206.646 59.7639C206.733 59.9362 206.777 60.1822 206.777 60.5035V62.5439H206.232V60.5394C206.232 60.3453 206.204 60.1889 206.147 60.0701C206.052 59.8718 205.879 59.7731 205.63 59.7731C205.503 59.7731 205.399 59.7856 205.318 59.8116C205.172 59.8551 205.043 59.9421 204.932 60.0726C204.843 60.178 204.785 60.2868 204.758 60.398C204.731 60.5101 204.718 60.6699 204.718 60.8783V62.5439H204.183V59.3632Z" fill="white"/>
<path d="M209.68 59.5319C209.905 59.7059 210.04 60.0063 210.084 60.4321H209.565C209.533 60.2355 209.461 60.0732 209.348 59.9435C209.236 59.8139 209.055 59.7486 208.804 59.7486C208.464 59.7486 208.22 59.9151 208.074 60.2472C207.98 60.4631 207.932 60.7291 207.932 61.0453C207.932 61.3633 207.999 61.6318 208.133 61.8493C208.268 62.0668 208.48 62.1756 208.769 62.1756C208.991 62.1756 209.167 62.1078 209.296 61.9723C209.426 61.8376 209.516 61.6527 209.565 61.4176H210.084C210.026 61.8401 209.877 62.148 209.639 62.3429C209.402 62.5387 209.098 62.6357 208.727 62.6357C208.312 62.6357 207.98 62.4835 207.733 62.1798C207.485 61.8761 207.361 61.4963 207.361 61.0412C207.361 60.4823 207.497 60.0481 207.769 59.7369C208.04 59.4265 208.385 59.2709 208.804 59.2709C209.163 59.2709 209.454 59.3579 209.68 59.5319Z" fill="white"/>
<path d="M212.788 60.6994C212.767 60.4677 212.717 60.2819 212.638 60.1439C212.493 59.8862 212.25 59.7582 211.911 59.7582C211.667 59.7582 211.463 59.8461 211.298 60.0234C211.133 60.2008 211.046 60.4258 211.035 60.6994H212.788ZM212.597 59.4504C212.807 59.5566 212.968 59.693 213.078 59.862C213.185 60.0218 213.256 60.2092 213.291 60.4225C213.323 60.5697 213.338 60.8032 213.338 61.1236H211.025C211.034 61.4482 211.109 61.7075 211.251 61.9025C211.393 62.0982 211.612 62.1961 211.908 62.1961C212.185 62.1961 212.407 62.1041 212.571 61.9192C212.664 61.8113 212.73 61.6875 212.768 61.5461H213.293C213.279 61.6624 213.233 61.7929 213.155 61.9368C213.078 62.0798 212.99 62.1978 212.894 62.2881C212.733 62.4471 212.532 62.5533 212.295 62.6094C212.167 62.6404 212.023 62.6562 211.862 62.6562C211.468 62.6562 211.134 62.5124 210.861 62.2246C210.587 61.9368 210.451 61.5327 210.451 61.014C210.451 60.5037 210.589 60.0887 210.864 59.7699C211.139 59.4504 211.5 59.2914 211.944 59.2914C212.169 59.2914 212.387 59.3441 212.597 59.4504Z" fill="white"/>
<path d="M194.363 67.709C194.633 67.709 194.846 67.6538 195.003 67.5425C195.16 67.4321 195.238 67.2321 195.238 66.9426C195.238 66.6314 195.129 66.4198 194.909 66.3068C194.792 66.2474 194.635 66.2181 194.438 66.2181H193.035V67.709H194.363ZM192.443 65.7103H194.427C194.754 65.7103 195.022 65.7588 195.235 65.8559C195.636 66.0416 195.839 66.3855 195.839 66.8866C195.839 67.1476 195.785 67.361 195.677 67.5283C195.569 67.6939 195.418 67.8278 195.223 67.929C195.394 67.9984 195.523 68.0896 195.608 68.2017C195.695 68.3155 195.742 68.4979 195.752 68.7514L195.774 69.337C195.779 69.5035 195.793 69.6265 195.815 69.7085C195.85 69.8465 195.914 69.936 196.005 69.9754V70.0732H195.28C195.26 70.0356 195.245 69.9871 195.232 69.9277C195.221 69.8683 195.211 69.7537 195.203 69.583L195.167 68.856C195.154 68.5707 195.051 68.3791 194.858 68.2829C194.749 68.2294 194.576 68.2017 194.342 68.2017H193.035V70.0732H192.443V65.7103Z" fill="white"/>
<path d="M198.862 68.2287C198.841 67.997 198.791 67.8112 198.712 67.6732C198.567 67.4155 198.324 67.2875 197.985 67.2875C197.741 67.2875 197.537 67.3754 197.372 67.5527C197.207 67.7301 197.12 67.9551 197.11 68.2287H198.862ZM198.671 66.9797C198.882 67.0859 199.042 67.2223 199.153 67.3913C199.259 67.5511 199.33 67.7385 199.365 67.9518C199.397 68.099 199.412 68.3325 199.412 68.6529H197.099C197.108 68.9775 197.183 69.2368 197.326 69.4318C197.467 69.6275 197.686 69.7254 197.982 69.7254C198.259 69.7254 198.481 69.6334 198.646 69.4485C198.739 69.3406 198.804 69.2168 198.842 69.0754H199.368C199.353 69.1917 199.307 69.3222 199.229 69.4661C199.152 69.6091 199.064 69.7271 198.968 69.8174C198.807 69.9764 198.606 70.0826 198.369 70.1387C198.242 70.1697 198.097 70.1855 197.936 70.1855C197.542 70.1855 197.208 70.0416 196.935 69.7539C196.661 69.4661 196.525 69.062 196.525 68.5433C196.525 68.0329 196.663 67.618 196.938 67.2992C197.213 66.9797 197.574 66.8207 198.018 66.8207C198.243 66.8207 198.461 66.8734 198.671 66.9797Z" fill="white"/>
<path d="M200.42 69.0759C200.436 69.2541 200.481 69.3905 200.556 69.4859C200.693 69.6582 200.932 69.7444 201.272 69.7444C201.474 69.7444 201.652 69.7009 201.805 69.6155C201.959 69.5294 202.036 69.3955 202.036 69.2156C202.036 69.0784 201.973 68.9747 201.851 68.9036C201.772 68.8601 201.618 68.8099 201.386 68.7522L200.955 68.6451C200.679 68.5781 200.476 68.5028 200.345 68.4192C200.112 68.2745 199.995 68.0753 199.995 67.8193C199.995 67.5182 200.104 67.2747 200.324 67.089C200.543 66.9024 200.84 66.8095 201.21 66.8095C201.696 66.8095 202.046 66.9501 202.261 67.2312C202.396 67.4094 202.461 67.6018 202.458 67.8076H201.952C201.941 67.6872 201.899 67.5784 201.822 67.4797C201.695 67.34 201.478 67.2697 201.168 67.2697C200.961 67.2697 200.804 67.3082 200.698 67.3851C200.591 67.4621 200.538 67.5642 200.538 67.6905C200.538 67.8285 200.609 67.939 200.748 68.0218C200.829 68.0712 200.948 68.1147 201.105 68.1523L201.465 68.2385C201.857 68.3313 202.119 68.4217 202.252 68.5087C202.46 68.6451 202.564 68.8601 202.564 69.1529C202.564 69.4365 202.456 69.6808 202.238 69.8866C202.02 70.0924 201.69 70.1953 201.244 70.1953C200.764 70.1953 200.425 70.0882 200.226 69.8732C200.026 69.6582 199.919 69.393 199.906 69.0759H200.42Z" fill="white"/>
<path d="M203.263 66.0046H203.803V66.893H204.311V67.3289H203.803V69.4054C203.803 69.5166 203.84 69.5903 203.916 69.6279C203.957 69.6497 204.027 69.6605 204.124 69.6605C204.15 69.6605 204.178 69.6605 204.207 69.6589C204.237 69.6572 204.272 69.6538 204.311 69.6488V70.0738C204.25 70.0914 204.186 70.1039 204.119 70.1123C204.053 70.1198 203.981 70.124 203.904 70.124C203.655 70.124 203.485 70.0604 203.396 69.9324C203.307 69.8044 203.263 69.6388 203.263 69.4355V67.3289H202.832V66.893H203.263V66.0046Z" fill="white"/>
<path d="M204.873 66.8924H205.381V67.4421C205.423 67.335 205.524 67.2045 205.687 67.0514C205.849 66.8975 206.037 66.8213 206.249 66.8213C206.258 66.8213 206.275 66.8222 206.299 66.8238C206.322 66.8255 206.363 66.8297 206.421 66.8364V67.4003C206.389 67.3944 206.36 67.3902 206.333 67.3886C206.306 67.386 206.277 67.3852 206.246 67.3852C205.976 67.3852 205.769 67.4722 205.624 67.6454C205.481 67.8186 205.408 68.0177 205.408 68.2436V70.0732H204.873V66.8924Z" fill="white"/>
<path d="M207.429 66.8922V69.0038C207.429 69.1661 207.455 69.2991 207.505 69.402C207.598 69.592 207.77 69.6873 208.023 69.6873C208.386 69.6873 208.632 69.5208 208.764 69.1879C208.835 69.0097 208.871 68.7654 208.871 68.4542V66.8922H209.405V70.073H208.9L208.906 69.6037C208.838 69.725 208.753 69.8262 208.653 69.9099C208.453 70.0764 208.209 70.1592 207.924 70.1592C207.479 70.1592 207.175 70.0078 207.015 69.7049C206.927 69.5426 206.883 69.3259 206.883 69.054V66.8922H207.429Z" fill="white"/>
<path d="M212.392 67.0612C212.617 67.2352 212.753 67.5356 212.797 67.9614H212.277C212.246 67.7648 212.174 67.6025 212.061 67.4728C211.949 67.3432 211.767 67.2779 211.517 67.2779C211.177 67.2779 210.933 67.4444 210.787 67.7765C210.692 67.9924 210.644 68.2584 210.644 68.5746C210.644 68.8926 210.711 69.1611 210.846 69.3786C210.981 69.5961 211.192 69.7049 211.482 69.7049C211.704 69.7049 211.879 69.6371 212.009 69.5016C212.139 69.3669 212.228 69.182 212.277 68.9469H212.797C212.738 69.3694 212.59 69.6773 212.352 69.8722C212.114 70.068 211.811 70.165 211.44 70.165C211.024 70.165 210.693 70.0128 210.445 69.7091C210.198 69.4054 210.074 69.0256 210.074 68.5705C210.074 68.0116 210.209 67.5774 210.481 67.2662C210.752 66.9558 211.098 66.8002 211.517 66.8002C211.876 66.8002 212.167 66.8872 212.392 67.0612Z" fill="white"/>
<path d="M213.452 66.0046H213.992V66.893H214.5V67.3289H213.992V69.4054C213.992 69.5166 214.029 69.5903 214.105 69.6279C214.146 69.6497 214.215 69.6605 214.313 69.6605C214.339 69.6605 214.367 69.6605 214.396 69.6589C214.425 69.6572 214.461 69.6538 214.5 69.6488V70.0738C214.439 70.0914 214.375 70.1039 214.308 70.1123C214.241 70.1198 214.17 70.124 214.093 70.124C213.844 70.124 213.674 70.0604 213.585 69.9324C213.496 69.8044 213.452 69.6388 213.452 69.4355V67.3289H213.021V66.893H213.452V66.0046Z" fill="white"/>
<path d="M215.582 66.8922V69.0038C215.582 69.1661 215.607 69.2991 215.657 69.402C215.75 69.592 215.922 69.6873 216.175 69.6873C216.538 69.6873 216.784 69.5208 216.916 69.1879C216.987 69.0097 217.023 68.7654 217.023 68.4542V66.8922H217.557V70.073H217.052L217.058 69.6037C216.99 69.725 216.905 69.8262 216.805 69.9099C216.605 70.0764 216.361 70.1592 216.076 70.1592C215.631 70.1592 215.327 70.0078 215.167 69.7049C215.079 69.5426 215.035 69.3259 215.035 69.054V66.8922H215.582Z" fill="white"/>
<path d="M218.457 66.8924H218.965V67.4421C219.007 67.335 219.108 67.2045 219.271 67.0514C219.434 66.8975 219.621 66.8213 219.833 66.8213C219.842 66.8213 219.859 66.8222 219.883 66.8238C219.906 66.8255 219.947 66.8297 220.005 66.8364V67.4003C219.973 67.3944 219.944 67.3902 219.917 67.3886C219.89 67.386 219.861 67.3852 219.83 67.3852C219.56 67.3852 219.353 67.4722 219.209 67.6454C219.065 67.8186 218.992 68.0177 218.992 68.2436V70.0732H218.457V66.8924Z" fill="white"/>
<path d="M220.48 66.9077H221.023V70.0742H220.48V66.9077ZM220.48 65.7105H221.023V66.3162H220.48V65.7105Z" fill="white"/>
<path d="M221.844 66.8924H222.352V67.3442C222.502 67.1577 222.662 67.0238 222.83 66.9426C222.998 66.8615 223.186 66.8213 223.391 66.8213C223.843 66.8213 224.148 66.9786 224.306 67.2932C224.393 67.4655 224.437 67.7115 224.437 68.0327V70.0732H223.893V68.0687C223.893 67.8746 223.864 67.7182 223.807 67.5994C223.712 67.4011 223.54 67.3024 223.29 67.3024C223.163 67.3024 223.059 67.3149 222.978 67.3409C222.832 67.3844 222.703 67.4714 222.593 67.6019C222.503 67.7073 222.445 67.8161 222.419 67.9273C222.392 68.0394 222.378 68.1992 222.378 68.4076V70.0732H221.844V66.8924Z" fill="white"/>
<path d="M227.073 67.5931C226.912 67.4024 226.706 67.3078 226.456 67.3078C226.08 67.3078 225.825 67.4844 225.687 67.8366C225.614 68.0248 225.578 68.2716 225.578 68.5761C225.578 68.935 225.65 69.2069 225.795 69.3943C225.94 69.5817 226.135 69.6754 226.379 69.6754C226.761 69.6754 227.029 69.5023 227.186 69.1551C227.272 68.9593 227.315 68.7301 227.315 68.4691C227.315 68.075 227.234 67.783 227.073 67.5931ZM227.008 67.0192C227.109 67.0886 227.211 67.1899 227.315 67.3229V66.9213H227.809V69.8143C227.809 70.2184 227.749 70.538 227.631 70.7714C227.41 71.2023 226.992 71.4189 226.379 71.4189C226.038 71.4189 225.75 71.342 225.517 71.188C225.284 71.0349 225.154 70.7948 225.127 70.4686H225.67C225.696 70.6108 225.747 70.7204 225.824 70.7982C225.943 70.917 226.133 70.9755 226.391 70.9755C226.798 70.9755 227.065 70.8316 227.191 70.5422C227.266 70.3723 227.3 70.0678 227.295 69.6311C227.188 69.7926 227.059 69.9139 226.91 69.9934C226.76 70.072 226.562 70.1122 226.316 70.1122C225.973 70.1122 225.671 69.9892 225.414 69.7449C225.157 69.5006 225.029 69.0957 225.029 68.5318C225.029 67.9989 225.158 67.5831 225.418 67.2836C225.676 66.9849 225.99 66.836 226.357 66.836C226.605 66.836 226.823 66.8971 227.008 67.0192Z" fill="white"/>
<path d="M192.506 73.2396H193.103V77.6025H192.506V73.2396Z" fill="white"/>
<path d="M194.004 74.4227H194.511V74.8745C194.662 74.6879 194.822 74.5541 194.99 74.4729C195.158 74.3918 195.346 74.3516 195.551 74.3516C196.003 74.3516 196.308 74.5089 196.466 74.8235C196.553 74.9958 196.597 75.2418 196.597 75.563V77.6035H196.052V75.599C196.052 75.4049 196.024 75.2485 195.967 75.1297C195.872 74.9314 195.699 74.8327 195.45 74.8327C195.323 74.8327 195.219 74.8452 195.138 74.8711C194.992 74.9146 194.863 75.0017 194.752 75.1322C194.663 75.2376 194.605 75.3463 194.578 75.4576C194.552 75.5697 194.538 75.7295 194.538 75.9378V77.6035H194.004V74.4227Z" fill="white"/>
<path d="M197.506 73.5338H198.047V74.4223H198.554V74.8582H198.047V76.9347C198.047 77.0459 198.083 77.1196 198.16 77.1572C198.201 77.179 198.27 77.1898 198.367 77.1898C198.394 77.1898 198.421 77.1898 198.451 77.1882C198.48 77.1865 198.515 77.1831 198.554 77.1781V77.6031C198.493 77.6207 198.43 77.6332 198.363 77.6416C198.296 77.6491 198.225 77.6533 198.148 77.6533C197.899 77.6533 197.729 77.5897 197.639 77.4617C197.551 77.3337 197.506 77.1681 197.506 76.9648V74.8582H197.075V74.4223H197.506V73.5338Z" fill="white"/>
<path d="M201.258 75.758C201.237 75.5263 201.187 75.3405 201.107 75.2025C200.962 74.9448 200.72 74.8168 200.38 74.8168C200.137 74.8168 199.933 74.9047 199.768 75.082C199.602 75.2594 199.515 75.4844 199.505 75.758H201.258ZM201.066 74.509C201.277 74.6152 201.438 74.7516 201.548 74.9206C201.654 75.0804 201.725 75.2678 201.761 75.4811C201.792 75.6283 201.807 75.8618 201.807 76.1822H199.494C199.503 76.5068 199.579 76.7661 199.721 76.9611C199.862 77.1568 200.082 77.2547 200.378 77.2547C200.655 77.2547 200.876 77.1627 201.041 76.9778C201.134 76.8699 201.199 76.746 201.238 76.6047H201.763C201.749 76.721 201.703 76.8515 201.624 76.9954C201.547 77.1384 201.459 77.2564 201.363 77.3467C201.203 77.5057 201.002 77.6119 200.764 77.668C200.637 77.6989 200.492 77.7148 200.332 77.7148C199.938 77.7148 199.604 77.5709 199.33 77.2832C199.057 76.9954 198.92 76.5913 198.92 76.0726C198.92 75.5622 199.058 75.1473 199.334 74.8285C199.609 74.509 199.969 74.35 200.414 74.35C200.639 74.35 200.856 74.4027 201.066 74.509Z" fill="white"/>
<path d="M202.512 74.4227H203.02V74.9724C203.062 74.8653 203.163 74.7348 203.326 74.5817C203.488 74.4277 203.676 74.3516 203.887 74.3516C203.897 74.3516 203.914 74.3524 203.938 74.3541C203.961 74.3558 204.002 74.36 204.06 74.3667V74.9305C204.028 74.9247 203.999 74.9205 203.972 74.9188C203.945 74.9163 203.916 74.9155 203.885 74.9155C203.615 74.9155 203.408 75.0025 203.263 75.1757C203.119 75.3488 203.047 75.548 203.047 75.7738V77.6035H202.512V74.4227Z" fill="white"/>
<path d="M204.534 74.437H205.077V77.6035H204.534V74.437ZM204.534 73.2398H205.077V73.8455H204.534V73.2398Z" fill="white"/>
<path d="M205.898 74.4227H206.426V74.8745C206.553 74.718 206.668 74.6034 206.771 74.5323C206.947 74.4118 207.147 74.3516 207.371 74.3516C207.624 74.3516 207.828 74.4135 207.982 74.5382C208.07 74.6101 208.149 74.7147 208.22 74.8536C208.339 74.6829 208.479 74.5566 208.639 74.4746C208.8 74.3926 208.98 74.3516 209.18 74.3516C209.608 74.3516 209.898 74.5055 210.053 74.8143C210.136 74.9807 210.178 75.205 210.178 75.4861V77.6035H209.622V75.394C209.622 75.1824 209.569 75.036 209.463 74.9573C209.358 74.8778 209.228 74.8385 209.076 74.8385C208.866 74.8385 208.685 74.9088 208.533 75.0493C208.382 75.1899 208.306 75.425 208.306 75.7529V77.6035H207.762V75.5279C207.762 75.3112 207.736 75.1548 207.685 75.0552C207.604 74.9071 207.453 74.8327 207.231 74.8327C207.03 74.8327 206.845 74.9105 206.681 75.0669C206.514 75.2234 206.432 75.507 206.432 75.9169V77.6035H205.898V74.4227Z" fill="white"/>
<path d="M211.295 76.6052C211.311 76.7834 211.356 76.9198 211.431 77.0152C211.568 77.1875 211.807 77.2737 212.147 77.2737C212.349 77.2737 212.527 77.2302 212.68 77.1448C212.834 77.0587 212.911 76.9248 212.911 76.7449C212.911 76.6077 212.848 76.504 212.726 76.4329C212.648 76.3894 212.493 76.3392 212.261 76.2815L211.83 76.1744C211.554 76.1074 211.351 76.0321 211.22 75.9485C210.987 75.8038 210.87 75.6046 210.87 75.3486C210.87 75.0475 210.979 74.804 211.199 74.6183C211.419 74.4317 211.715 74.3388 212.085 74.3388C212.571 74.3388 212.921 74.4794 213.136 74.7605C213.271 74.9387 213.336 75.1311 213.333 75.3369H212.827C212.817 75.2165 212.774 75.1077 212.697 75.009C212.571 74.8693 212.353 74.799 212.044 74.799C211.836 74.799 211.68 74.8375 211.573 74.9144C211.466 74.9914 211.414 75.0935 211.414 75.2198C211.414 75.3578 211.484 75.4683 211.624 75.5511C211.704 75.6005 211.823 75.644 211.98 75.6816L212.341 75.7678C212.732 75.8606 212.994 75.951 213.127 76.038C213.335 76.1744 213.439 76.3894 213.439 76.6822C213.439 76.9658 213.331 77.2101 213.113 77.4159C212.895 77.6217 212.565 77.7246 212.119 77.7246C211.639 77.7246 211.301 77.6175 211.101 77.4025C210.902 77.1875 210.794 76.9223 210.781 76.6052H211.295Z" fill="white"/>
<path d="M213.891 75.633H215.382V76.1826H213.891V75.633Z" fill="white"/>
<path d="M216.125 73.2406H216.972L218.226 76.9292L219.472 73.2406H220.313V77.6035H219.748V75.0284C219.748 74.9397 219.751 74.7917 219.755 74.5859C219.758 74.3801 219.761 74.1592 219.761 73.9233L218.514 77.6035H217.929L216.671 73.9233V74.0571C216.671 74.1642 216.675 74.3273 216.68 74.5457C216.686 74.7649 216.69 74.9255 216.69 75.0284V77.6035H216.125V73.2406Z" fill="white"/>
<path d="M221.727 77.1228C221.84 77.2115 221.974 77.2558 222.128 77.2558C222.316 77.2558 222.498 77.2123 222.675 77.1253C222.971 76.9814 223.12 76.7447 223.12 76.4167V75.9867C223.055 76.0285 222.97 76.0628 222.867 76.0913C222.765 76.1189 222.664 76.1389 222.565 76.1507L222.242 76.1925C222.049 76.2176 221.904 76.2586 221.806 76.3138C221.64 76.4067 221.558 76.5547 221.558 76.758C221.558 76.9128 221.614 77.0341 221.727 77.1228ZM222.853 75.678C222.975 75.6629 223.058 75.611 223.1 75.524C223.123 75.4764 223.135 75.4077 223.135 75.3182C223.135 75.1358 223.07 75.0028 222.94 74.9208C222.811 74.838 222.626 74.797 222.385 74.797C222.106 74.797 221.909 74.8723 221.791 75.0237C221.727 75.1074 221.684 75.2312 221.664 75.3969H221.166C221.176 75.0037 221.302 74.7301 221.546 74.5762C221.791 74.4222 222.074 74.3453 222.397 74.3453C222.77 74.3453 223.074 74.4164 223.307 74.5594C223.539 74.7016 223.655 74.9234 223.655 75.2245V77.0567C223.655 77.1128 223.665 77.1571 223.689 77.1914C223.711 77.2249 223.76 77.2416 223.833 77.2416C223.857 77.2416 223.883 77.2399 223.913 77.2366C223.942 77.2341 223.975 77.229 224.008 77.2232V77.6181C223.925 77.6423 223.862 77.6574 223.818 77.6633C223.774 77.6691 223.715 77.6716 223.639 77.6716C223.455 77.6716 223.322 77.6064 223.239 77.4758C223.195 77.4064 223.164 77.3085 223.147 77.1822C223.037 77.3244 222.882 77.4482 222.677 77.5537C222.474 77.6582 222.248 77.7109 222.003 77.7109C221.709 77.7109 221.467 77.6214 221.28 77.4424C221.093 77.2625 220.999 77.0391 220.999 76.7706C220.999 76.4753 221.091 76.2469 221.275 76.0846C221.46 75.9223 221.701 75.8227 222 75.7851L222.853 75.678Z" fill="white"/>
<path d="M224.543 74.4227H225.051V74.8745C225.202 74.6879 225.361 74.5541 225.53 74.4729C225.698 74.3918 225.885 74.3516 226.091 74.3516C226.543 74.3516 226.847 74.5089 227.005 74.8235C227.092 74.9958 227.137 75.2418 227.137 75.563V77.6035H226.592V75.599C226.592 75.4049 226.564 75.2485 226.507 75.1297C226.411 74.9314 226.239 74.8327 225.99 74.8327C225.863 74.8327 225.759 74.8452 225.678 74.8711C225.531 74.9146 225.402 75.0017 225.292 75.1322C225.202 75.2376 225.145 75.3463 225.118 75.4576C225.091 75.5697 225.078 75.7295 225.078 75.9378V77.6035H224.543V74.4227Z" fill="white"/>
<path d="M228.518 77.1228C228.631 77.2115 228.765 77.2558 228.919 77.2558C229.107 77.2558 229.289 77.2123 229.466 77.1253C229.762 76.9814 229.911 76.7447 229.911 76.4167V75.9867C229.846 76.0285 229.761 76.0628 229.658 76.0913C229.556 76.1189 229.455 76.1389 229.356 76.1507L229.033 76.1925C228.84 76.2176 228.694 76.2586 228.597 76.3138C228.431 76.4067 228.349 76.5547 228.349 76.758C228.349 76.9128 228.405 77.0341 228.518 77.1228ZM229.644 75.678C229.766 75.6629 229.849 75.611 229.891 75.524C229.914 75.4764 229.926 75.4077 229.926 75.3182C229.926 75.1358 229.861 75.0028 229.731 74.9208C229.602 74.838 229.416 74.797 229.175 74.797C228.897 74.797 228.699 74.8723 228.582 75.0237C228.518 75.1074 228.475 75.2312 228.455 75.3969H227.957C227.967 75.0037 228.093 74.7301 228.337 74.5762C228.581 74.4222 228.865 74.3453 229.188 74.3453C229.561 74.3453 229.865 74.4164 230.098 74.5594C230.33 74.7016 230.445 74.9234 230.445 75.2245V77.0567C230.445 77.1128 230.456 77.1571 230.48 77.1914C230.502 77.2249 230.551 77.2416 230.624 77.2416C230.648 77.2416 230.674 77.2399 230.704 77.2366C230.733 77.2341 230.766 77.229 230.799 77.2232V77.6181C230.716 77.6423 230.653 77.6574 230.609 77.6633C230.565 77.6691 230.506 77.6716 230.43 77.6716C230.246 77.6716 230.112 77.6064 230.03 77.4758C229.986 77.4064 229.955 77.3085 229.938 77.1822C229.828 77.3244 229.672 77.4482 229.468 77.5537C229.265 77.6582 229.039 77.7109 228.794 77.7109C228.499 77.7109 228.258 77.6214 228.071 77.4424C227.884 77.2625 227.79 77.0391 227.79 76.7706C227.79 76.4753 227.882 76.2469 228.066 76.0846C228.251 75.9223 228.492 75.8227 228.791 75.7851L229.644 75.678Z" fill="white"/>
<path d="M233.168 75.1234C233.007 74.9327 232.801 74.8381 232.551 74.8381C232.175 74.8381 231.92 75.0146 231.782 75.3669C231.709 75.5551 231.672 75.8019 231.672 76.1064C231.672 76.4653 231.745 76.7372 231.89 76.9246C232.035 77.112 232.23 77.2057 232.474 77.2057C232.855 77.2057 233.124 77.0325 233.28 76.6854C233.367 76.4896 233.41 76.2604 233.41 75.9993C233.41 75.6053 233.329 75.3133 233.168 75.1234ZM233.103 74.5495C233.203 74.6189 233.306 74.7202 233.41 74.8532V74.4516H233.904V77.3446C233.904 77.7487 233.844 78.0683 233.726 78.3017C233.505 78.7325 233.087 78.9492 232.474 78.9492C232.133 78.9492 231.845 78.8723 231.612 78.7183C231.379 78.5652 231.249 78.3251 231.222 77.9988H231.765C231.79 78.1411 231.841 78.2506 231.918 78.3285C232.038 78.4473 232.228 78.5058 232.486 78.5058C232.893 78.5058 233.16 78.3619 233.286 78.0725C233.361 77.9026 233.395 77.5981 233.39 77.1614C233.283 77.3228 233.154 77.4442 233.005 77.5236C232.855 77.6023 232.657 77.6424 232.41 77.6424C232.067 77.6424 231.766 77.5195 231.509 77.2752C231.252 77.0309 231.124 76.626 231.124 76.0621C231.124 75.5292 231.252 75.1134 231.513 74.8139C231.771 74.5152 232.085 74.3663 232.452 74.3663C232.7 74.3663 232.917 74.4273 233.103 74.5495Z" fill="white"/>
<path d="M236.885 75.758C236.864 75.5263 236.814 75.3405 236.734 75.2025C236.589 74.9448 236.347 74.8168 236.007 74.8168C235.764 74.8168 235.56 74.9047 235.395 75.082C235.229 75.2594 235.142 75.4844 235.132 75.758H236.885ZM236.693 74.509C236.904 74.6152 237.065 74.7516 237.175 74.9206C237.281 75.0804 237.352 75.2678 237.388 75.4811C237.419 75.6283 237.434 75.8618 237.434 76.1822H235.121C235.13 76.5068 235.206 76.7661 235.348 76.9611C235.489 77.1568 235.709 77.2547 236.005 77.2547C236.282 77.2547 236.503 77.1627 236.668 76.9778C236.761 76.8699 236.826 76.746 236.865 76.6047H237.39C237.376 76.721 237.33 76.8515 237.251 76.9954C237.174 77.1384 237.086 77.2564 236.99 77.3467C236.83 77.5057 236.629 77.6119 236.391 77.668C236.264 77.6989 236.119 77.7148 235.959 77.7148C235.565 77.7148 235.231 77.5709 234.957 77.2832C234.684 76.9954 234.547 76.5913 234.547 76.0726C234.547 75.5622 234.685 75.1473 234.961 74.8285C235.236 74.509 235.596 74.35 236.041 74.35C236.266 74.35 236.483 74.4027 236.693 74.509Z" fill="white"/>
<path d="M238.124 74.4227H238.653V74.8745C238.779 74.718 238.895 74.6034 238.998 74.5323C239.173 74.4118 239.373 74.3516 239.598 74.3516C239.85 74.3516 240.055 74.4135 240.209 74.5382C240.297 74.6101 240.376 74.7147 240.447 74.8536C240.565 74.6829 240.705 74.5566 240.866 74.4746C241.026 74.3926 241.206 74.3516 241.406 74.3516C241.835 74.3516 242.125 74.5055 242.28 74.8143C242.363 74.9807 242.404 75.205 242.404 75.4861V77.6035H241.849V75.394C241.849 75.1824 241.796 75.036 241.69 74.9573C241.584 74.8778 241.455 74.8385 241.303 74.8385C241.093 74.8385 240.912 74.9088 240.76 75.0493C240.609 75.1899 240.533 75.425 240.533 75.7529V77.6035H239.989V75.5279C239.989 75.3112 239.963 75.1548 239.912 75.0552C239.831 74.9071 239.68 74.8327 239.458 74.8327C239.256 74.8327 239.072 74.9105 238.907 75.0669C238.741 75.2234 238.659 75.507 238.659 75.9169V77.6035H238.124V74.4227Z" fill="white"/>
<path d="M245.36 75.758C245.339 75.5263 245.288 75.3405 245.209 75.2025C245.064 74.9448 244.822 74.8168 244.482 74.8168C244.239 74.8168 244.034 74.9047 243.87 75.082C243.704 75.2594 243.617 75.4844 243.607 75.758H245.36ZM245.168 74.509C245.379 74.6152 245.539 74.7516 245.65 74.9206C245.756 75.0804 245.827 75.2678 245.862 75.4811C245.894 75.6283 245.909 75.8618 245.909 76.1822H243.596C243.605 76.5068 243.681 76.7661 243.823 76.9611C243.964 77.1568 244.183 77.2547 244.479 77.2547C244.756 77.2547 244.978 77.1627 245.143 76.9778C245.236 76.8699 245.301 76.746 245.34 76.6047H245.865C245.851 76.721 245.805 76.8515 245.726 76.9954C245.649 77.1384 245.561 77.2564 245.465 77.3467C245.304 77.5057 245.104 77.6119 244.866 77.668C244.739 77.6989 244.594 77.7148 244.433 77.7148C244.039 77.7148 243.706 77.5709 243.432 77.2832C243.158 76.9954 243.022 76.5913 243.022 76.0726C243.022 75.5622 243.16 75.1473 243.435 74.8285C243.711 74.509 244.071 74.35 244.515 74.35C244.74 74.35 244.958 74.4027 245.168 74.509Z" fill="white"/>
<path d="M246.599 74.4227H247.107V74.8745C247.257 74.6879 247.417 74.5541 247.585 74.4729C247.754 74.3918 247.941 74.3516 248.147 74.3516C248.598 74.3516 248.903 74.5089 249.061 74.8235C249.148 74.9958 249.192 75.2418 249.192 75.563V77.6035H248.648V75.599C248.648 75.4049 248.619 75.2485 248.563 75.1297C248.467 74.9314 248.295 74.8327 248.045 74.8327C247.918 74.8327 247.815 74.8452 247.733 74.8711C247.587 74.9146 247.458 75.0017 247.348 75.1322C247.258 75.2376 247.201 75.3463 247.174 75.4576C247.147 75.5697 247.134 75.7295 247.134 75.9378V77.6035H246.599V74.4227Z" fill="white"/>
<path d="M250.102 73.5338H250.642V74.4223H251.15V74.8582H250.642V76.9347C250.642 77.0459 250.679 77.1196 250.755 77.1572C250.796 77.179 250.865 77.1898 250.962 77.1898C250.989 77.1898 251.017 77.1898 251.046 77.1882C251.075 77.1865 251.11 77.1831 251.15 77.1781V77.6031C251.089 77.6207 251.025 77.6332 250.958 77.6416C250.891 77.6491 250.82 77.6533 250.743 77.6533C250.494 77.6533 250.324 77.5897 250.235 77.4617C250.146 77.3337 250.102 77.1681 250.102 76.9648V74.8582H249.671V74.4223H250.102V73.5338Z" fill="white"/>
<path d="M195.458 81.0877C195.759 81.3789 195.927 81.7093 195.961 82.0799H195.384C195.32 81.7988 195.193 81.5755 195 81.4115C194.81 81.2467 194.54 81.1647 194.194 81.1647C193.771 81.1647 193.431 81.3161 193.171 81.6181C192.912 81.9201 192.782 82.3836 192.782 83.0077C192.782 83.5189 192.899 83.9339 193.134 84.2518C193.368 84.5705 193.718 84.7295 194.183 84.7295C194.61 84.7295 194.937 84.5622 195.161 84.2267C195.279 84.051 195.368 83.8193 195.425 83.5323H196.002C195.951 83.9916 195.783 84.3764 195.497 84.6877C195.154 85.0616 194.692 85.249 194.111 85.249C193.61 85.249 193.189 85.0959 192.849 84.7881C192.401 84.3823 192.176 83.7548 192.176 82.9065C192.176 82.2632 192.344 81.7344 192.681 81.3228C193.045 80.8752 193.547 80.651 194.187 80.651C194.733 80.651 195.158 80.7966 195.458 81.0877Z" fill="white"/>
<path d="M198.679 84.3835C198.809 84.1158 198.874 83.8172 198.874 83.4892C198.874 83.1922 198.827 82.9513 198.733 82.7655C198.585 82.4727 198.328 82.3263 197.964 82.3263C197.641 82.3263 197.406 82.451 197.26 82.7003C197.112 82.9496 197.039 83.2499 197.039 83.6022C197.039 83.9401 197.112 84.2221 197.26 84.4471C197.406 84.673 197.639 84.7851 197.958 84.7851C198.309 84.7851 198.549 84.6513 198.679 84.3835ZM199.011 82.2694C199.292 82.5422 199.432 82.9437 199.432 83.4742C199.432 83.987 199.309 84.4103 199.061 84.745C198.813 85.0788 198.429 85.2461 197.908 85.2461C197.474 85.2461 197.128 85.098 196.873 84.8019C196.617 84.5065 196.489 84.1091 196.489 83.6105C196.489 83.0768 196.624 82.6518 196.893 82.3347C197.163 82.0184 197.525 81.8595 197.979 81.8595C198.386 81.8595 198.73 81.9967 199.011 82.2694Z" fill="white"/>
<path d="M200.681 84.6521C200.794 84.7408 200.928 84.7851 201.082 84.7851C201.27 84.7851 201.452 84.7416 201.629 84.6546C201.925 84.5107 202.074 84.2739 202.074 83.946V83.516C202.009 83.5578 201.924 83.5921 201.821 83.6206C201.719 83.6482 201.618 83.6682 201.519 83.68L201.196 83.7218C201.003 83.7469 200.858 83.7879 200.76 83.8431C200.594 83.936 200.512 84.084 200.512 84.2873C200.512 84.4421 200.568 84.5634 200.681 84.6521ZM201.807 83.2073C201.929 83.1922 202.012 83.1403 202.054 83.0533C202.077 83.0056 202.089 82.937 202.089 82.8475C202.089 82.6651 202.024 82.5321 201.894 82.4501C201.765 82.3673 201.58 82.3263 201.339 82.3263C201.06 82.3263 200.863 82.4016 200.745 82.553C200.681 82.6367 200.638 82.7605 200.618 82.9262H200.12C200.13 82.533 200.256 82.2594 200.5 82.1055C200.745 81.9515 201.028 81.8745 201.351 81.8745C201.724 81.8745 202.028 81.9457 202.261 82.0887C202.493 82.2309 202.609 82.4526 202.609 82.7538V84.586C202.609 84.6421 202.619 84.6864 202.643 84.7207C202.665 84.7542 202.714 84.7709 202.787 84.7709C202.811 84.7709 202.837 84.7692 202.867 84.7659C202.896 84.7634 202.929 84.7583 202.962 84.7525V85.1474C202.879 85.1716 202.816 85.1867 202.772 85.1925C202.728 85.1984 202.669 85.2009 202.594 85.2009C202.409 85.2009 202.276 85.1357 202.193 85.0051C202.149 84.9357 202.118 84.8378 202.101 84.7115C201.991 84.8537 201.836 84.9775 201.631 85.083C201.428 85.1875 201.202 85.2402 200.957 85.2402C200.663 85.2402 200.421 85.1507 200.234 84.9717C200.047 84.7918 199.953 84.5684 199.953 84.2999C199.953 84.0046 200.045 83.7762 200.229 83.6139C200.414 83.4516 200.655 83.352 200.954 83.3144L201.807 83.2073Z" fill="white"/>
<path d="M205.599 82.1208C205.824 82.2948 205.959 82.5951 206.003 83.021H205.484C205.452 82.8244 205.38 82.6621 205.267 82.5324C205.155 82.4027 204.974 82.3375 204.723 82.3375C204.383 82.3375 204.139 82.504 203.993 82.8361C203.899 83.0519 203.851 83.318 203.851 83.6342C203.851 83.9521 203.918 84.2207 204.052 84.4382C204.187 84.6557 204.399 84.7645 204.688 84.7645C204.91 84.7645 205.086 84.6967 205.215 84.5612C205.345 84.4265 205.435 84.2416 205.484 84.0065H206.003C205.945 84.429 205.796 84.7369 205.558 84.9318C205.321 85.1276 205.017 85.2246 204.646 85.2246C204.231 85.2246 203.899 85.0723 203.652 84.7687C203.404 84.465 203.28 84.0851 203.28 83.63C203.28 83.0712 203.416 82.637 203.688 82.3258C203.959 82.0154 204.304 81.8598 204.723 81.8598C205.082 81.8598 205.373 81.9468 205.599 82.1208Z" fill="white"/>
<path d="M206.551 80.7539H207.086V82.3819C207.212 82.2213 207.327 82.1083 207.427 82.0431C207.599 81.9301 207.814 81.8741 208.071 81.8741C208.533 81.8741 208.846 82.0355 209.01 82.3576C209.1 82.5342 209.145 82.7784 209.145 83.0913V85.1318H208.594V83.1273C208.594 82.8939 208.565 82.7224 208.506 82.6136C208.408 82.4396 208.226 82.3518 207.959 82.3518C207.738 82.3518 207.537 82.4279 207.356 82.581C207.176 82.7333 207.086 83.0211 207.086 83.4452V85.1318H206.551V80.7539Z" fill="white"/>
<path d="M209.946 81.9672H210.489V85.1338H209.946V81.9672ZM209.946 80.77H210.489V81.3757H209.946V80.77Z" fill="white"/>
<path d="M211.309 81.952H211.817V82.4038C211.968 82.2172 212.128 82.0834 212.296 82.0022C212.464 81.9211 212.651 81.8809 212.857 81.8809C213.309 81.8809 213.613 82.0382 213.772 82.3528C213.859 82.5251 213.903 82.7711 213.903 83.0923V85.1328H213.358V83.1283C213.358 82.9342 213.33 82.7778 213.273 82.659C213.178 82.4607 213.005 82.362 212.756 82.362C212.629 82.362 212.525 82.3745 212.444 82.4004C212.297 82.4439 212.169 82.531 212.058 82.6615C211.969 82.7669 211.911 82.8756 211.884 82.9869C211.857 83.099 211.844 83.2588 211.844 83.4671V85.1328H211.309V81.952Z" fill="white"/>
<path d="M216.539 82.6527C216.378 82.4619 216.172 82.3674 215.922 82.3674C215.546 82.3674 215.291 82.5439 215.153 82.8961C215.08 83.0844 215.043 83.3312 215.043 83.6357C215.043 83.9946 215.116 84.2665 215.261 84.4539C215.405 84.6413 215.6 84.735 215.845 84.735C216.226 84.735 216.495 84.5618 216.651 84.2146C216.737 84.0189 216.781 83.7896 216.781 83.5286C216.781 83.1346 216.7 82.8426 216.539 82.6527ZM216.474 82.0788C216.574 82.1482 216.676 82.2494 216.781 82.3825V81.9809H217.274V84.8739C217.274 85.278 217.215 85.5976 217.096 85.831C216.875 86.2618 216.458 86.4785 215.845 86.4785C215.503 86.4785 215.216 86.4015 214.983 86.2476C214.75 86.0945 214.62 85.8544 214.592 85.5281H215.135C215.161 85.6703 215.212 85.7799 215.289 85.8578C215.409 85.9765 215.599 86.0351 215.856 86.0351C216.264 86.0351 216.531 85.8912 216.657 85.6017C216.731 85.4319 216.766 85.1274 216.761 84.6907C216.654 84.8521 216.525 84.9735 216.376 85.0529C216.225 85.1316 216.028 85.1717 215.781 85.1717C215.438 85.1717 215.137 85.0487 214.88 84.8045C214.622 84.5602 214.494 84.1552 214.494 83.5914C214.494 83.0585 214.623 82.6427 214.883 82.3431C215.142 82.0445 215.456 81.8956 215.823 81.8956C216.071 81.8956 216.288 81.9566 216.474 82.0788Z" fill="white"/>
<path d="M221.531 82.1396C221.646 82.0049 221.704 81.856 221.704 81.692C221.704 81.5632 221.661 81.4528 221.577 81.3599C221.492 81.267 221.378 81.2202 221.235 81.2202C221.016 81.2202 220.864 81.2938 220.78 81.4402C220.736 81.5147 220.714 81.5975 220.714 81.6862C220.714 81.8066 220.748 81.9221 220.815 82.0325C220.881 82.143 220.991 82.2869 221.146 82.4625C221.333 82.3304 221.461 82.2224 221.531 82.1396ZM221.573 84.6126C221.73 84.5114 221.852 84.3985 221.936 84.2738L220.954 83.0708C220.677 83.2573 220.495 83.3995 220.411 83.4991C220.281 83.6472 220.216 83.8287 220.216 84.0421C220.216 84.2738 220.299 84.452 220.468 84.5767C220.637 84.7022 220.816 84.7641 221.008 84.7641C221.227 84.7641 221.415 84.7139 221.573 84.6126ZM220.289 82.1714C220.226 82.0267 220.195 81.887 220.195 81.7523C220.195 81.4712 220.29 81.2377 220.479 81.0529C220.669 80.8671 220.922 80.7751 221.24 80.7751C221.543 80.7751 221.779 80.8613 221.948 81.0336C222.117 81.2051 222.203 81.4109 222.203 81.651C222.203 81.9296 222.115 82.1747 221.939 82.3839C221.837 82.5069 221.666 82.6483 221.425 82.8089L222.217 83.7601C222.27 83.602 222.306 83.4832 222.327 83.4054C222.348 83.3268 222.368 83.218 222.389 83.0766H222.898C222.864 83.356 222.798 83.6238 222.697 83.8806C222.596 84.1366 222.547 84.2403 222.547 84.1901L223.32 85.1322H222.631L222.224 84.6327C222.062 84.8092 221.913 84.9381 221.779 85.0192C221.545 85.1623 221.274 85.2334 220.969 85.2334C220.517 85.2334 220.188 85.1113 219.982 84.8661C219.777 84.6218 219.675 84.3466 219.675 84.0396C219.675 83.7083 219.775 83.4322 219.975 83.2105C220.096 83.0758 220.325 82.9076 220.658 82.706C220.474 82.4935 220.351 82.3153 220.289 82.1714Z" fill="white"/>
<path d="M225.631 80.7699H226.478L227.733 84.4585L228.979 80.7699H229.82V85.1328H229.255V82.5577C229.255 82.469 229.257 82.321 229.262 82.1152C229.265 81.9094 229.267 81.6885 229.267 81.4526L228.021 85.1328H227.435L226.178 81.4526V81.5864C226.178 81.6935 226.181 81.8566 226.187 82.075C226.193 82.2942 226.196 82.4548 226.196 82.5577V85.1328H225.631V80.7699Z" fill="white"/>
<path d="M232.81 83.2873C232.789 83.0556 232.739 82.8698 232.66 82.7318C232.515 82.4741 232.272 82.3461 231.933 82.3461C231.689 82.3461 231.485 82.434 231.32 82.6113C231.155 82.7887 231.068 83.0137 231.058 83.2873H232.81ZM232.619 82.0382C232.83 82.1445 232.99 82.2809 233.101 82.4499C233.207 82.6097 233.278 82.7971 233.313 83.0104C233.345 83.1576 233.36 83.391 233.36 83.7115H231.047C231.056 84.0361 231.131 84.2954 231.274 84.4904C231.415 84.6861 231.634 84.784 231.93 84.784C232.207 84.784 232.429 84.692 232.594 84.5071C232.687 84.3992 232.752 84.2753 232.79 84.134H233.316C233.301 84.2502 233.255 84.3808 233.177 84.5247C233.1 84.6677 233.012 84.7857 232.916 84.876C232.755 85.035 232.554 85.1412 232.317 85.1973C232.19 85.2282 232.045 85.2441 231.884 85.2441C231.49 85.2441 231.156 85.1002 230.883 84.8124C230.609 84.5247 230.473 84.1206 230.473 83.6019C230.473 83.0915 230.611 82.6766 230.886 82.3578C231.161 82.0382 231.522 81.8793 231.966 81.8793C232.191 81.8793 232.409 81.932 232.619 82.0382Z" fill="white"/>
<path d="M234.604 84.4344C234.748 84.6645 234.978 84.7791 235.296 84.7791C235.542 84.7791 235.744 84.6729 235.903 84.4595C236.061 84.247 236.141 83.9417 236.141 83.5435C236.141 83.1419 236.059 82.844 235.895 82.6508C235.732 82.4575 235.53 82.3613 235.29 82.3613C235.022 82.3613 234.804 82.4642 234.638 82.67C234.472 82.8758 234.388 83.1795 234.388 83.5794C234.388 83.9199 234.46 84.2052 234.604 84.4344ZM235.798 82.0493C235.892 82.1087 236 82.2132 236.12 82.3613V80.7542H236.634V85.1322H236.153V84.6904C236.028 84.8862 235.881 85.0276 235.711 85.1146C235.542 85.2016 235.348 85.2451 235.129 85.2451C234.776 85.2451 234.47 85.097 234.211 84.7984C233.954 84.5005 233.824 84.104 233.824 83.6087C233.824 83.1452 233.942 82.7437 234.177 82.4048C234.413 82.0643 234.75 81.8953 235.188 81.8953C235.43 81.8953 235.634 81.9464 235.798 82.0493Z" fill="white"/>
<path d="M237.445 81.9672H237.988V85.1338H237.445V81.9672ZM237.445 80.77H237.988V81.3757H237.445V80.77Z" fill="white"/>
<path d="M239.387 84.6521C239.5 84.7408 239.634 84.7851 239.788 84.7851C239.976 84.7851 240.159 84.7416 240.335 84.6546C240.631 84.5107 240.78 84.2739 240.78 83.946V83.516C240.715 83.5578 240.631 83.5921 240.528 83.6206C240.426 83.6482 240.324 83.6682 240.226 83.68L239.903 83.7218C239.71 83.7469 239.564 83.7879 239.466 83.8431C239.3 83.936 239.218 84.084 239.218 84.2873C239.218 84.4421 239.275 84.5634 239.387 84.6521ZM240.514 83.2073C240.636 83.1922 240.719 83.1403 240.76 83.0533C240.784 83.0056 240.795 82.937 240.795 82.8475C240.795 82.6651 240.73 82.5321 240.601 82.4501C240.472 82.3673 240.286 82.3263 240.045 82.3263C239.766 82.3263 239.569 82.4016 239.452 82.553C239.387 82.6367 239.345 82.7605 239.325 82.9262H238.826C238.836 82.533 238.962 82.2594 239.207 82.1055C239.451 81.9515 239.735 81.8745 240.058 81.8745C240.431 81.8745 240.734 81.9457 240.968 82.0887C241.2 82.2309 241.315 82.4526 241.315 82.7538V84.586C241.315 84.6421 241.326 84.6864 241.349 84.7207C241.372 84.7542 241.42 84.7709 241.493 84.7709C241.517 84.7709 241.543 84.7692 241.574 84.7659C241.603 84.7634 241.635 84.7583 241.669 84.7525V85.1474C241.585 85.1716 241.522 85.1867 241.478 85.1925C241.435 85.1984 241.375 85.2009 241.3 85.2009C241.116 85.2009 240.982 85.1357 240.899 85.0051C240.856 84.9357 240.825 84.8378 240.807 84.7115C240.698 84.8537 240.542 84.9775 240.338 85.083C240.135 85.1875 239.909 85.2402 239.664 85.2402C239.369 85.2402 239.127 85.1507 238.941 84.9717C238.753 84.7918 238.66 84.5684 238.66 84.2999C238.66 84.0046 238.752 83.7762 238.936 83.6139C239.121 83.4516 239.362 83.352 239.66 83.3144L240.514 83.2073Z" fill="white"/>
<path d="M242.311 81.0631H242.851V81.9516H243.359V82.3875H242.851V84.464C242.851 84.5752 242.888 84.6489 242.964 84.6865C243.005 84.7083 243.074 84.7191 243.171 84.7191C243.198 84.7191 243.226 84.7191 243.255 84.7175C243.284 84.7158 243.32 84.7124 243.359 84.7074V85.1324C243.298 85.15 243.234 85.1625 243.167 85.1709C243.1 85.1784 243.029 85.1826 242.952 85.1826C242.703 85.1826 242.533 85.119 242.444 84.991C242.355 84.863 242.311 84.6974 242.311 84.4941V82.3875H241.88V81.9516H242.311V81.0631Z" fill="white"/>
<path d="M243.906 81.9672H244.449V85.1338H243.906V81.9672ZM243.906 80.77H244.449V81.3757H243.906V80.77Z" fill="white"/>
<path d="M247.243 84.3835C247.373 84.1158 247.438 83.8172 247.438 83.4892C247.438 83.1922 247.391 82.9513 247.296 82.7655C247.148 82.4727 246.891 82.3263 246.528 82.3263C246.205 82.3263 245.97 82.451 245.823 82.7003C245.676 82.9496 245.602 83.2499 245.602 83.6022C245.602 83.9401 245.676 84.2221 245.823 84.4471C245.97 84.673 246.203 84.7851 246.522 84.7851C246.872 84.7851 247.112 84.6513 247.243 84.3835ZM247.574 82.2694C247.855 82.5422 247.996 82.9437 247.996 83.4742C247.996 83.987 247.873 84.4103 247.624 84.745C247.377 85.0788 246.993 85.2461 246.472 85.2461C246.037 85.2461 245.692 85.098 245.437 84.8019C245.181 84.5065 245.053 84.1091 245.053 83.6105C245.053 83.0768 245.187 82.6518 245.457 82.3347C245.727 82.0184 246.088 81.8595 246.543 81.8595C246.949 81.8595 247.294 81.9967 247.574 82.2694Z" fill="white"/>
<path d="M248.665 81.952H249.173V82.4038C249.324 82.2172 249.483 82.0834 249.652 82.0022C249.82 81.9211 250.007 81.8809 250.213 81.8809C250.665 81.8809 250.969 82.0382 251.127 82.3528C251.214 82.5251 251.259 82.7711 251.259 83.0923V85.1328H250.714V83.1283C250.714 82.9342 250.686 82.7778 250.629 82.659C250.533 82.4607 250.361 82.362 250.112 82.362C249.984 82.362 249.881 82.3745 249.8 82.4004C249.653 82.4439 249.524 82.531 249.414 82.6615C249.324 82.7669 249.267 82.8756 249.24 82.9869C249.213 83.099 249.2 83.2588 249.2 83.4671V85.1328H248.665V81.952Z" fill="white"/>
<path d="M192.506 88.2992H193.103V92.6621H192.506V88.2992Z" fill="white"/>
<path d="M194.004 89.4813H194.511V89.9331C194.662 89.7465 194.822 89.6127 194.99 89.5315C195.158 89.4504 195.346 89.4102 195.551 89.4102C196.003 89.4102 196.308 89.5675 196.466 89.8821C196.553 90.0544 196.597 90.3004 196.597 90.6216V92.6621H196.052V90.6576C196.052 90.4635 196.024 90.3071 195.967 90.1883C195.872 89.99 195.699 89.8913 195.45 89.8913C195.323 89.8913 195.219 89.9038 195.138 89.9297C194.992 89.9732 194.863 90.0603 194.752 90.1908C194.663 90.2962 194.605 90.4049 194.578 90.5162C194.552 90.6283 194.538 90.7881 194.538 90.9964V92.6621H194.004V89.4813Z" fill="white"/>
<path d="M197.662 89.4813L198.511 92.0715L199.397 89.4813H199.981L198.784 92.6621H198.214L197.041 89.4813H197.662Z" fill="white"/>
<path d="M202.609 90.8176C202.588 90.5858 202.538 90.4001 202.459 90.2621C202.314 90.0044 202.071 89.8764 201.732 89.8764C201.488 89.8764 201.284 89.9642 201.119 90.1416C200.954 90.319 200.866 90.544 200.856 90.8176H202.609ZM202.418 89.5685C202.628 89.6748 202.789 89.8111 202.899 89.9801C203.006 90.1399 203.077 90.3273 203.112 90.5407C203.144 90.6879 203.159 90.9213 203.159 91.2417H200.846C200.855 91.5663 200.93 91.8257 201.072 92.0206C201.214 92.2164 201.433 92.3143 201.729 92.3143C202.006 92.3143 202.228 92.2223 202.392 92.0374C202.485 91.9294 202.551 91.8056 202.589 91.6642H203.114C203.1 91.7805 203.054 91.911 202.976 92.0549C202.899 92.198 202.811 92.316 202.715 92.4063C202.554 92.5653 202.353 92.6715 202.116 92.7276C201.988 92.7585 201.844 92.7744 201.683 92.7744C201.289 92.7744 200.955 92.6305 200.682 92.3427C200.408 92.0549 200.272 91.6508 200.272 91.1321C200.272 90.6218 200.41 90.2069 200.685 89.8881C200.96 89.5685 201.321 89.4096 201.765 89.4096C201.99 89.4096 202.208 89.4623 202.418 89.5685Z" fill="white"/>
<path d="M204.166 91.6638C204.183 91.842 204.227 91.9784 204.303 92.0738C204.44 92.2461 204.678 92.3323 205.019 92.3323C205.221 92.3323 205.399 92.2888 205.552 92.2034C205.706 92.1173 205.783 91.9834 205.783 91.8035C205.783 91.6663 205.72 91.5626 205.598 91.4915C205.519 91.448 205.364 91.3978 205.133 91.34L204.702 91.233C204.426 91.166 204.222 91.0907 204.092 91.0071C203.859 90.8623 203.741 90.6632 203.741 90.4072C203.741 90.106 203.851 89.8626 204.071 89.6769C204.29 89.4903 204.586 89.3974 204.957 89.3974C205.443 89.3974 205.793 89.538 206.008 89.8191C206.142 89.9973 206.208 90.1897 206.204 90.3955H205.699C205.688 90.275 205.646 90.1663 205.569 90.0676C205.442 89.9279 205.225 89.8576 204.915 89.8576C204.708 89.8576 204.551 89.8961 204.445 89.973C204.338 90.05 204.285 90.1521 204.285 90.2784C204.285 90.4164 204.355 90.5269 204.495 90.6097C204.575 90.659 204.695 90.7026 204.852 90.7402L205.212 90.8264C205.604 90.9192 205.866 91.0096 205.999 91.0966C206.207 91.233 206.311 91.448 206.311 91.7408C206.311 92.0244 206.203 92.2687 205.984 92.4745C205.767 92.6803 205.436 92.7832 204.99 92.7832C204.511 92.7832 204.172 92.6761 203.973 92.4611C203.773 92.2461 203.666 91.9809 203.653 91.6638H204.166Z" fill="white"/>
<path d="M207.009 88.5924H207.549V89.4809H208.057V89.9168H207.549V91.9933C207.549 92.1045 207.586 92.1782 207.662 92.2158C207.703 92.2376 207.773 92.2484 207.87 92.2484C207.896 92.2484 207.924 92.2484 207.953 92.2468C207.983 92.2451 208.018 92.2417 208.057 92.2367V92.6617C207.996 92.6793 207.932 92.6918 207.865 92.7002C207.798 92.7077 207.727 92.7119 207.65 92.7119C207.401 92.7119 207.231 92.6483 207.142 92.5203C207.053 92.3923 207.009 92.2267 207.009 92.0234V89.9168H206.578V89.4809H207.009V88.5924Z" fill="white"/>
<path d="M208.604 89.4813H209.133V89.9331C209.259 89.7766 209.375 89.662 209.478 89.5909C209.653 89.4704 209.853 89.4102 210.078 89.4102C210.33 89.4102 210.535 89.4721 210.689 89.5968C210.777 89.6687 210.856 89.7733 210.927 89.9122C211.046 89.7415 211.185 89.6152 211.346 89.5332C211.507 89.4512 211.686 89.4102 211.886 89.4102C212.315 89.4102 212.605 89.5641 212.76 89.8728C212.843 90.0393 212.884 90.2635 212.884 90.5446V92.6621H212.329V90.4526C212.329 90.241 212.276 90.0946 212.17 90.0159C212.065 89.9364 211.935 89.8971 211.783 89.8971C211.573 89.8971 211.392 89.9674 211.24 90.1079C211.089 90.2485 211.013 90.4836 211.013 90.8115V92.6621H210.469V90.5865C210.469 90.3698 210.443 90.2133 210.392 90.1138C210.311 89.9657 210.16 89.8913 209.938 89.8913C209.736 89.8913 209.552 89.9691 209.387 90.1255C209.221 90.282 209.139 90.5656 209.139 90.9755V92.6621H208.604V89.4813Z" fill="white"/>
<path d="M215.84 90.8176C215.819 90.5858 215.769 90.4001 215.689 90.2621C215.544 90.0044 215.302 89.8764 214.962 89.8764C214.719 89.8764 214.515 89.9642 214.35 90.1416C214.184 90.319 214.097 90.544 214.087 90.8176H215.84ZM215.648 89.5685C215.859 89.6748 216.02 89.8111 216.13 89.9801C216.236 90.1399 216.307 90.3273 216.343 90.5407C216.374 90.6879 216.389 90.9213 216.389 91.2417H214.076C214.085 91.5663 214.161 91.8257 214.303 92.0206C214.444 92.2164 214.663 92.3143 214.96 92.3143C215.237 92.3143 215.458 92.2223 215.623 92.0374C215.716 91.9294 215.781 91.8056 215.82 91.6642H216.345C216.331 91.7805 216.285 91.911 216.206 92.0549C216.129 92.198 216.041 92.316 215.945 92.4063C215.785 92.5653 215.584 92.6715 215.346 92.7276C215.219 92.7585 215.074 92.7744 214.914 92.7744C214.52 92.7744 214.186 92.6305 213.912 92.3427C213.639 92.0549 213.502 91.6508 213.502 91.1321C213.502 90.6218 213.64 90.2069 213.916 89.8881C214.191 89.5685 214.551 89.4096 214.996 89.4096C215.221 89.4096 215.438 89.4623 215.648 89.5685Z" fill="white"/>
<path d="M217.079 89.4813H217.587V89.9331C217.737 89.7465 217.897 89.6127 218.065 89.5315C218.234 89.4504 218.421 89.4102 218.627 89.4102C219.079 89.4102 219.383 89.5675 219.541 89.8821C219.628 90.0544 219.673 90.3004 219.673 90.6216V92.6621H219.128V90.6576C219.128 90.4635 219.099 90.3071 219.043 90.1883C218.947 89.99 218.775 89.8913 218.526 89.8913C218.398 89.8913 218.295 89.9038 218.213 89.9297C218.067 89.9732 217.938 90.0603 217.828 90.1908C217.738 90.2962 217.681 90.4049 217.654 90.5162C217.627 90.6283 217.614 90.7881 217.614 90.9964V92.6621H217.079V89.4813Z" fill="white"/>
<path d="M220.581 88.5924H221.122V89.4809H221.63V89.9168H221.122V91.9933C221.122 92.1045 221.159 92.1782 221.235 92.2158C221.276 92.2376 221.345 92.2484 221.442 92.2484C221.469 92.2484 221.497 92.2484 221.526 92.2468C221.555 92.2451 221.59 92.2417 221.63 92.2367V92.6617C221.569 92.6793 221.505 92.6918 221.438 92.7002C221.371 92.7077 221.3 92.7119 221.223 92.7119C220.974 92.7119 220.804 92.6483 220.715 92.5203C220.626 92.3923 220.581 92.2267 220.581 92.0234V89.9168H220.151V89.4809H220.581V88.5924Z" fill="white"/>
<path d="M222.495 91.6638C222.512 91.842 222.556 91.9784 222.631 92.0738C222.769 92.2461 223.007 92.3323 223.348 92.3323C223.549 92.3323 223.727 92.2888 223.88 92.2034C224.034 92.1173 224.111 91.9834 224.111 91.8035C224.111 91.6663 224.049 91.5626 223.926 91.4915C223.848 91.448 223.693 91.3978 223.461 91.34L223.03 91.233C222.754 91.166 222.551 91.0907 222.421 91.0071C222.187 90.8623 222.07 90.6632 222.07 90.4072C222.07 90.106 222.18 89.8626 222.4 89.6769C222.619 89.4903 222.915 89.3974 223.286 89.3974C223.772 89.3974 224.121 89.538 224.336 89.8191C224.471 89.9973 224.536 90.1897 224.533 90.3955H224.028C224.017 90.275 223.974 90.1663 223.897 90.0676C223.771 89.9279 223.553 89.8576 223.244 89.8576C223.036 89.8576 222.88 89.8961 222.774 89.973C222.667 90.05 222.614 90.1521 222.614 90.2784C222.614 90.4164 222.684 90.5269 222.824 90.6097C222.904 90.659 223.024 90.7026 223.18 90.7402L223.541 90.8264C223.932 90.9192 224.194 91.0096 224.327 91.0966C224.535 91.233 224.639 91.448 224.639 91.7408C224.639 92.0244 224.531 92.2687 224.313 92.4745C224.095 92.6803 223.765 92.7832 223.319 92.7832C222.84 92.7832 222.501 92.6761 222.302 92.4611C222.102 92.2461 221.995 91.9809 221.981 91.6638H222.495Z" fill="white"/>
<path d="M192.506 95.8285H193.103V100.191H192.506V95.8285Z" fill="white"/>
<path d="M194.004 97.0106H194.511V97.4624C194.662 97.2758 194.822 97.142 194.99 97.0608C195.158 96.9797 195.346 96.9395 195.551 96.9395C196.003 96.9395 196.308 97.0968 196.466 97.4113C196.553 97.5837 196.597 97.8297 196.597 98.1509V100.191H196.052V98.1869C196.052 97.9928 196.024 97.8363 195.967 97.7175C195.872 97.5193 195.699 97.4206 195.45 97.4206C195.323 97.4206 195.219 97.4331 195.138 97.459C194.992 97.5025 194.863 97.5895 194.752 97.7201C194.663 97.8255 194.605 97.9342 194.578 98.0455C194.552 98.1576 194.538 98.3174 194.538 98.5257V100.191H194.004V97.0106Z" fill="white"/>
<path d="M197.953 99.493C198.097 99.7231 198.328 99.8377 198.645 99.8377C198.891 99.8377 199.093 99.7315 199.252 99.5181C199.41 99.3056 199.49 99.0003 199.49 98.602C199.49 98.2005 199.408 97.9026 199.245 97.7094C199.082 97.5161 198.879 97.4199 198.639 97.4199C198.371 97.4199 198.154 97.5228 197.987 97.7286C197.821 97.9344 197.737 98.2381 197.737 98.638C197.737 98.9785 197.809 99.2638 197.953 99.493ZM199.147 97.1079C199.241 97.1673 199.349 97.2718 199.469 97.4199V95.8128H199.983V100.191H199.502V99.749C199.378 99.9448 199.231 100.086 199.061 100.173C198.892 100.26 198.698 100.304 198.478 100.304C198.125 100.304 197.819 100.156 197.561 99.857C197.303 99.5591 197.173 99.1626 197.173 98.6673C197.173 98.2038 197.291 97.8022 197.526 97.4634C197.762 97.1229 198.099 96.9539 198.537 96.9539C198.78 96.9539 198.983 97.005 199.147 97.1079Z" fill="white"/>
<path d="M201.329 97.0104V99.122C201.329 99.2843 201.354 99.4173 201.404 99.5202C201.497 99.7101 201.669 99.8055 201.922 99.8055C202.285 99.8055 202.531 99.639 202.663 99.306C202.734 99.1278 202.77 98.8836 202.77 98.5723V97.0104H203.304V100.191H202.8L202.805 99.7218C202.738 99.8431 202.652 99.9444 202.552 100.028C202.352 100.195 202.109 100.277 201.823 100.277C201.378 100.277 201.075 100.126 200.914 99.8231C200.826 99.6608 200.783 99.4441 200.783 99.1722V97.0104H201.329Z" fill="white"/>
<path d="M204.508 99.1931C204.525 99.3713 204.569 99.5077 204.644 99.6031C204.781 99.7754 205.02 99.8616 205.36 99.8616C205.562 99.8616 205.74 99.8181 205.893 99.7327C206.047 99.6466 206.124 99.5127 206.124 99.3328C206.124 99.1956 206.061 99.0919 205.939 99.0208C205.861 98.9773 205.706 98.9271 205.474 98.8693L205.043 98.7623C204.767 98.6953 204.564 98.62 204.433 98.5364C204.2 98.3916 204.083 98.1925 204.083 97.9365C204.083 97.6353 204.192 97.3919 204.412 97.2062C204.632 97.0196 204.928 96.9267 205.298 96.9267C205.784 96.9267 206.134 97.0673 206.349 97.3484C206.484 97.5266 206.549 97.719 206.546 97.9248H206.04C206.03 97.8043 205.987 97.6956 205.91 97.5969C205.784 97.4571 205.566 97.3869 205.257 97.3869C205.049 97.3869 204.893 97.4254 204.786 97.5023C204.679 97.5793 204.627 97.6814 204.627 97.8077C204.627 97.9457 204.697 98.0562 204.837 98.139C204.917 98.1883 205.037 98.2318 205.193 98.2695L205.554 98.3557C205.945 98.4485 206.207 98.5389 206.34 98.6259C206.548 98.7623 206.652 98.9773 206.652 99.2701C206.652 99.5537 206.544 99.798 206.326 100.004C206.108 100.21 205.778 100.312 205.332 100.312C204.853 100.312 204.514 100.205 204.315 99.9904C204.115 99.7754 204.008 99.5102 203.994 99.1931H204.508Z" fill="white"/>
<path d="M207.35 96.1217H207.891V97.0102H208.398V97.4461H207.891V99.5226C207.891 99.6338 207.927 99.7075 208.004 99.7451C208.045 99.7669 208.114 99.7777 208.211 99.7777C208.238 99.7777 208.265 99.7777 208.295 99.7761C208.324 99.7744 208.359 99.771 208.398 99.766V100.191C208.337 100.209 208.274 100.221 208.207 100.229C208.14 100.237 208.069 100.241 207.992 100.241C207.743 100.241 207.573 100.178 207.483 100.05C207.395 99.9216 207.35 99.756 207.35 99.5527V97.4461H206.919V97.0102H207.35V96.1217Z" fill="white"/>
<path d="M208.961 97.0106H209.468V97.5603C209.51 97.4532 209.611 97.3227 209.775 97.1696C209.937 97.0156 210.124 96.9395 210.336 96.9395C210.345 96.9395 210.363 96.9403 210.386 96.942C210.41 96.9437 210.451 96.9479 210.508 96.9546V97.5184C210.477 97.5126 210.447 97.5084 210.42 97.5067C210.394 97.5042 210.364 97.5034 210.333 97.5034C210.063 97.5034 209.857 97.5904 209.712 97.7636C209.568 97.9367 209.495 98.1359 209.495 98.3617V100.191H208.961V97.0106Z" fill="white"/>
<path d="M210.984 97.0258H211.527V100.192H210.984V97.0258ZM210.984 95.8286H211.527V96.4343H210.984V95.8286Z" fill="white"/>
<path d="M212.926 99.7107C213.039 99.7994 213.173 99.8437 213.327 99.8437C213.515 99.8437 213.698 99.8002 213.874 99.7132C214.17 99.5693 214.319 99.3325 214.319 99.0046V98.5746C214.254 98.6164 214.169 98.6507 214.067 98.6791C213.965 98.7068 213.863 98.7268 213.765 98.7385L213.442 98.7804C213.248 98.8055 213.103 98.8465 213.005 98.9017C212.839 98.9946 212.757 99.1426 212.757 99.3459C212.757 99.5007 212.813 99.622 212.926 99.7107ZM214.052 98.2659C214.175 98.2508 214.257 98.1989 214.299 98.1119C214.323 98.0642 214.334 97.9956 214.334 97.9061C214.334 97.7237 214.269 97.5907 214.139 97.5087C214.011 97.4259 213.825 97.3849 213.584 97.3849C213.305 97.3849 213.108 97.4602 212.991 97.6116C212.926 97.6953 212.884 97.8191 212.864 97.9848H212.365C212.375 97.5916 212.501 97.318 212.746 97.164C212.99 97.0101 213.273 96.9331 213.596 96.9331C213.97 96.9331 214.273 97.0043 214.507 97.1473C214.738 97.2895 214.854 97.5112 214.854 97.8124V99.6446C214.854 99.7007 214.865 99.745 214.888 99.7793C214.911 99.8128 214.959 99.8295 215.032 99.8295C215.056 99.8295 215.082 99.8278 215.112 99.8245C215.142 99.822 215.174 99.8169 215.208 99.8111V100.206C215.124 100.23 215.061 100.245 215.017 100.251C214.973 100.257 214.914 100.26 214.839 100.26C214.655 100.26 214.521 100.194 214.438 100.064C214.395 99.9943 214.364 99.8964 214.346 99.7701C214.236 99.9123 214.081 100.036 213.877 100.142C213.673 100.246 213.447 100.299 213.202 100.299C212.908 100.299 212.666 100.209 212.48 100.03C212.292 99.8504 212.198 99.627 212.198 99.3585C212.198 99.0632 212.29 98.8348 212.475 98.6725C212.659 98.5102 212.9 98.4106 213.199 98.373L214.052 98.2659Z" fill="white"/>
<path d="M215.757 95.8285H216.292V100.191H215.757V95.8285Z" fill="white"/>
<path d="M219.266 98.7842C219.28 99.0318 219.336 99.2326 219.434 99.3874C219.624 99.676 219.956 99.8207 220.434 99.8207C220.647 99.8207 220.842 99.7889 221.017 99.7253C221.357 99.6032 221.526 99.3832 221.526 99.0661C221.526 98.8285 221.454 98.6595 221.31 98.5583C221.165 98.4596 220.936 98.3734 220.626 98.2998L220.053 98.1659C219.679 98.0789 219.414 97.9827 219.259 97.8781C218.99 97.6957 218.856 97.4238 218.856 97.0607C218.856 96.6692 218.988 96.3471 219.252 96.0961C219.516 95.8443 219.889 95.7188 220.373 95.7188C220.818 95.7188 221.197 95.8292 221.508 96.0493C221.82 96.271 221.974 96.6232 221.974 97.1093H221.42C221.391 96.875 221.33 96.696 221.236 96.5713C221.064 96.3438 220.771 96.2291 220.357 96.2291C220.022 96.2291 219.782 96.3028 219.637 96.4492C219.491 96.5956 219.418 96.7662 219.418 96.9603C219.418 97.1745 219.504 97.331 219.676 97.4297C219.79 97.4933 220.046 97.5719 220.445 97.6673L221.037 97.807C221.323 97.8739 221.544 97.9659 221.7 98.0831C221.968 98.2872 222.103 98.5834 222.103 98.9716C222.103 99.4543 221.932 99.7998 221.588 100.007C221.246 100.216 220.847 100.319 220.394 100.319C219.864 100.319 219.45 100.18 219.151 99.9035C218.851 99.6283 218.705 99.2552 218.711 98.7842H219.266Z" fill="white"/>
<path d="M225.034 98.3469C225.013 98.1151 224.963 97.9294 224.884 97.7914C224.739 97.5337 224.496 97.4057 224.157 97.4057C223.913 97.4057 223.709 97.4935 223.544 97.6709C223.379 97.8483 223.292 98.0733 223.282 98.3469H225.034ZM224.843 97.0978C225.054 97.2041 225.214 97.3404 225.325 97.5094C225.431 97.6692 225.502 97.8566 225.537 98.07C225.569 98.2172 225.584 98.4506 225.584 98.771H223.271C223.28 99.0956 223.355 99.355 223.497 99.5499C223.639 99.7457 223.858 99.8436 224.154 99.8436C224.431 99.8436 224.653 99.7515 224.818 99.5667C224.91 99.4587 224.976 99.3349 225.014 99.1935H225.54C225.525 99.3098 225.479 99.4403 225.401 99.5842C225.324 99.7273 225.236 99.8452 225.14 99.9356C224.979 100.095 224.778 100.201 224.541 100.257C224.414 100.288 224.269 100.304 224.108 100.304C223.714 100.304 223.38 100.16 223.107 99.872C222.833 99.5842 222.697 99.1801 222.697 98.6614C222.697 98.1511 222.835 97.7362 223.11 97.4174C223.385 97.0978 223.746 96.9389 224.19 96.9389C224.415 96.9389 224.633 96.9916 224.843 97.0978Z" fill="white"/>
<path d="M226.288 97.0106H226.796V97.5603C226.838 97.4532 226.939 97.3227 227.102 97.1696C227.265 97.0156 227.452 96.9395 227.664 96.9395C227.673 96.9395 227.69 96.9403 227.714 96.942C227.737 96.9437 227.778 96.9479 227.836 96.9546V97.5184C227.804 97.5126 227.775 97.5084 227.748 97.5067C227.721 97.5042 227.692 97.5034 227.661 97.5034C227.391 97.5034 227.184 97.5904 227.039 97.7636C226.896 97.9367 226.823 98.1359 226.823 98.3617V100.191H226.288V97.0106Z" fill="white"/>
<path d="M228.573 97.0106L229.423 99.6008L230.308 97.0106H230.892L229.695 100.191H229.126L227.953 97.0106H228.573Z" fill="white"/>
<path d="M231.364 97.0258H231.907V100.192H231.364V97.0258ZM231.364 95.8286H231.907V96.4343H231.364V95.8286Z" fill="white"/>
<path d="M234.829 97.1794C235.054 97.3534 235.19 97.6537 235.234 98.0796H234.715C234.683 97.883 234.611 97.7207 234.498 97.591C234.386 97.4613 234.204 97.3961 233.954 97.3961C233.614 97.3961 233.37 97.5625 233.224 97.8947C233.129 98.1105 233.082 98.3766 233.082 98.6928C233.082 99.0107 233.149 99.2793 233.283 99.4968C233.418 99.7143 233.63 99.8231 233.919 99.8231C234.141 99.8231 234.317 99.7553 234.446 99.6198C234.576 99.4851 234.665 99.3002 234.715 99.0651H235.234C235.176 99.4876 235.027 99.7955 234.789 99.9904C234.552 100.186 234.248 100.283 233.877 100.283C233.461 100.283 233.13 100.131 232.883 99.8273C232.635 99.5236 232.511 99.1437 232.511 98.6886C232.511 98.1298 232.647 97.6956 232.919 97.3843C233.19 97.074 233.535 96.9184 233.954 96.9184C234.313 96.9184 234.604 97.0054 234.829 97.1794Z" fill="white"/>
<path d="M237.938 98.3469C237.917 98.1151 237.867 97.9294 237.787 97.7914C237.643 97.5337 237.4 97.4057 237.06 97.4057C236.817 97.4057 236.613 97.4935 236.448 97.6709C236.282 97.8483 236.195 98.0733 236.185 98.3469H237.938ZM237.746 97.0978C237.957 97.2041 238.118 97.3404 238.228 97.5094C238.334 97.6692 238.406 97.8566 238.441 98.07C238.472 98.2172 238.488 98.4506 238.488 98.771H236.174C236.184 99.0956 236.259 99.355 236.401 99.5499C236.542 99.7457 236.762 99.8436 237.058 99.8436C237.335 99.8436 237.556 99.7515 237.721 99.5667C237.814 99.4587 237.879 99.3349 237.918 99.1935H238.443C238.429 99.3098 238.383 99.4403 238.304 99.5842C238.227 99.7273 238.14 99.8452 238.043 99.9356C237.883 100.095 237.682 100.201 237.444 100.257C237.317 100.288 237.172 100.304 237.012 100.304C236.618 100.304 236.284 100.16 236.01 99.872C235.737 99.5842 235.6 99.1801 235.6 98.6614C235.6 98.1511 235.738 97.7362 236.014 97.4174C236.289 97.0978 236.65 96.9389 237.094 96.9389C237.319 96.9389 237.536 96.9916 237.746 97.0978Z" fill="white"/>
<path d="M239.495 99.1931C239.512 99.3713 239.556 99.5077 239.632 99.6031C239.769 99.7754 240.007 99.8616 240.348 99.8616C240.549 99.8616 240.728 99.8181 240.881 99.7327C241.035 99.6466 241.112 99.5127 241.112 99.3328C241.112 99.1956 241.049 99.0919 240.927 99.0208C240.848 98.9773 240.693 98.9271 240.462 98.8693L240.031 98.7623C239.755 98.6953 239.551 98.62 239.421 98.5364C239.187 98.3916 239.07 98.1925 239.07 97.9365C239.07 97.6353 239.18 97.3919 239.4 97.2062C239.619 97.0196 239.915 96.9267 240.286 96.9267C240.772 96.9267 241.122 97.0673 241.337 97.3484C241.471 97.5266 241.537 97.719 241.533 97.9248H241.028C241.017 97.8043 240.974 97.6956 240.897 97.5969C240.771 97.4571 240.554 97.3869 240.244 97.3869C240.037 97.3869 239.88 97.4254 239.774 97.5023C239.667 97.5793 239.614 97.6814 239.614 97.8077C239.614 97.9457 239.684 98.0562 239.824 98.139C239.904 98.1883 240.024 98.2318 240.18 98.2695L240.541 98.3557C240.933 98.4485 241.194 98.5389 241.327 98.6259C241.536 98.7623 241.639 98.9773 241.639 99.2701C241.639 99.5537 241.532 99.798 241.313 100.004C241.096 100.21 240.765 100.312 240.319 100.312C239.84 100.312 239.501 100.205 239.302 99.9904C239.102 99.7754 238.995 99.5102 238.982 99.1931H239.495Z" fill="white"/>
</svg>
