<svg width="64" height="47" viewBox="0 0 64 47" fill="none" xmlns="http://www.w3.org/2000/svg">
<path d="M50.3125 19.2168C42.7559 19.2168 36.625 25.3477 36.625 32.9043C36.625 40.6035 42.7559 46.5918 50.3125 46.5918C58.0117 46.5918 64 40.6035 64 32.9043V19.2168C64 9.23633 55.873 0.966797 45.75 0.966797C43.3262 0.966797 41.1875 3.10547 41.1875 5.5293C41.1875 8.0957 43.3262 10.0918 45.75 10.0918C50.8828 10.0918 54.875 14.2266 54.875 19.2168V20.0723C53.4492 19.6445 52.0234 19.2168 50.3125 19.2168ZM13.8125 19.2168C6.25586 19.2168 0.125 25.3477 0.125 32.9043C0.125 40.6035 6.25586 46.5918 13.8125 46.5918C21.5117 46.5918 27.5 40.6035 27.5 32.9043V19.2168C27.5 9.23633 19.373 0.966797 9.25 0.966797C6.82617 0.966797 4.6875 3.10547 4.6875 5.5293C4.6875 8.0957 6.82617 10.0918 9.25 10.0918C14.3828 10.0918 18.375 14.2266 18.375 19.2168V20.0723C16.9492 19.6445 15.5234 19.2168 13.8125 19.2168Z" fill="#582C5F"/>
</svg>
